  0
SECTION
  2
HEADER
  9
$ACADVER
  1
AC1009
  9
$FILLMODE
 70
1
  9
$EXTMIN
 10
-0.3416
 20
-0.5080
 30
0.0000
  9
$EXTMAX
 10
87.4183
 20
31.1516
 30
0.0000
  0
ENDSEC
  0
SECTION
  2
TABLES
  0
TABLE
  2
LTYPE
 70
1
  0
LTYPE
  2
CONTINUOUS
 70
64
  3
Solid line
 72
65
 73
0
 40
0
  0
ENDTAB
  0
TABLE
  2
LAYER
 70
255
  0
LAYER
  2
16
 70
64
 62
175
  6
CONTINUOUS
  0
LAYER
  2
17
 70
64
 62
82
  6
CONTINUOUS
  0
LAYER
  2
18
 70
64
 62
82
  6
CONTINUOUS
  0
LAYER
  2
19
 70
64
 62
53
  6
CONTINUOUS
  0
ENDTAB
  0
ENDSEC
  0
SECTION
  2
BLOCKS
  0
BLOCK
  8
0
  2
RECT
 70
64
 10
0.0000
 20
0.0000
 30
0.0000
  3
RECT
  0
SOLID
  8
0
 10
-0.5000
 20
-0.5000
 30
0.0000
 11
0.5000
 21
-0.5000
 31
0.0000
 12
-0.5000
 22
0.5000
 32
0.0000
 13
0.5000
 23
0.5000
 33
0.0000
  0
ENDBLK
  8
0
  0
BLOCK
  8
0
  2
PIE
 70
64
 10
0.0000
 20
0.0000
 30
0.0000
  3
PIE
  0
POLYLINE
  8
0
 66
1
 10
0.0000
 20
0.0000
 30
0.0000
 40
0.5000
 41
0.5000
 70
0
  0
VERTEX
  8
0
 10
0.0000
 20
-0.2500
 30
0.0000
 42
1.0000
  0
VERTEX
  8
0
 10
0.0000
 20
0.2500
 30
0.0000
 42
1.0000
  0
VERTEX
  8
0
 10
0.0000
 20
-0.2500
 30
0.0000
  0
SEQEND
  8
0
  0
ENDBLK
  8
0
  0
BLOCK
  8
0
  2
OCTAGONP
 70
64
 10
0.0000
 20
0.0000
 30
0.0000
  3
OCTAGONP
  0
POLYLINE
  8
0
 66
1
 10
0.0000
 20
0.0000
 30
0.0000
 40
0.5000
 41
0.5000
 70
0
  0
VERTEX
  8
0
 10
-0.2500
 20
-0.1036
 30
0.0000
  0
VERTEX
  8
0
 10
-0.2500
 20
0.1036
 30
0.0000
  0
VERTEX
  8
0
 10
-0.1036
 20
0.2500
 30
0.0000
  0
VERTEX
  8
0
 10
0.1036
 20
0.2500
 30
0.0000
  0
VERTEX
  8
0
 10
0.2500
 20
0.1036
 30
0.0000
  0
VERTEX
  8
0
 10
0.2500
 20
-0.1036
 30
0.0000
  0
VERTEX
  8
0
 10
0.1036
 20
-0.2500
 30
0.0000
  0
VERTEX
  8
0
 10
-0.1036
 20
-0.2500
 30
0.0000
  0
VERTEX
  8
0
 10
-0.2500
 20
-0.1036
 30
0.0000
  0
VERTEX
  8
0
 10
-0.2500
 20
0.1036
 30
0.0000
  0
SEQEND
  8
0
  0
ENDBLK
  8
0
  0
BLOCK
  8
0
  2
SQUAREP
 70
64
 10
0.0000
 20
0.0000
 30
0.0000
  3
SQUAREP
  0
SOLID
  8
0
 10
-0.5000
 20
-0.5000
 30
0.0000
 11
0.5000
 21
-0.5000
 31
0.0000
 12
-0.5000
 22
0.5000
 32
0.0000
 13
0.5000
 23
0.5000
 33
0.0000
  0
ENDBLK
  8
0
  0
BLOCK
  8
0
  2
ROUNDP
 70
64
 10
0.0000
 20
0.0000
 30
0.0000
  3
ROUNDP
  0
POLYLINE
  8
0
 66
1
 10
0.0000
 20
0.0000
 30
0.0000
 40
0.5000
 41
0.5000
 70
0
  0
VERTEX
  8
0
 10
0.0000
 20
-0.2500
 30
0.0000
 42
1.0000
  0
VERTEX
  8
0
 10
0.0000
 20
0.2500
 30
0.0000
 42
1.0000
  0
VERTEX
  8
0
 10
0.0000
 20
-0.2500
 30
0.0000
  0
SEQEND
  8
0
  0
ENDBLK
  8
0
  0
BLOCK
  8
0
  2
ANNULUSP
 70
64
 10
0.0000
 20
0.0000
 30
0.0000
  3
ANNULUSP
  0
POLYLINE
  8
0
 66
1
 10
0.0000
 20
0.0000
 30
0.0000
 40
0.5000
 41
0.5000
 70
0
  0
VERTEX
  8
0
 10
0.0000
 20
-0.2500
 30
0.0000
 42
1.0000
  0
VERTEX
  8
0
 10
0.0000
 20
0.2500
 30
0.0000
 42
1.0000
  0
VERTEX
  8
0
 10
0.0000
 20
-0.2500
 30
0.0000
  0
SEQEND
  8
0
  0
ENDBLK
  8
0
  0
BLOCK
  8
0
  2
THERMALP
 70
64
 10
0.0000
 20
0.0000
 30
0.0000
  3
THERMALP
  0
POLYLINE
  8
0
 66
1
 10
0.0000
 20
0.0000
 30
0.0000
 40
0.1000
 41
0.1000
 70
0
  0
VERTEX
  8
0
 10
-0.2379
 20
0.4500
 30
0.0000
  0
VERTEX
  8
0
 10
0.2379
 20
0.4500
 30
0.0000
  0
SEQEND
  8
0
  0
POLYLINE
  8
0
 66
1
 10
0.0000
 20
0.0000
 30
0.0000
 40
0.0500
 41
0.0500
 70
0
  0
VERTEX
  8
0
 10
0.2379
 20
0.4250
 30
0.0000
 42
1.0000
  0
VERTEX
  8
0
 10
0.2379
 20
0.4750
 30
0.0000
  0
SEQEND
  8
0
  0
POLYLINE
  8
0
 66
1
 10
0.0000
 20
0.0000
 30
0.0000
 40
0.0500
 41
0.0500
 70
0
  0
VERTEX
  8
0
 10
-0.2379
 20
0.4750
 30
0.0000
 42
1.0000
  0
VERTEX
  8
0
 10
-0.2379
 20
0.4250
 30
0.0000
  0
SEQEND
  8
0
  0
POLYLINE
  8
0
 66
1
 10
0.0000
 20
0.0000
 30
0.0000
 40
0.1000
 41
0.1000
 70
0
  0
VERTEX
  8
0
 10
0.4500
 20
0.2379
 30
0.0000
  0
VERTEX
  8
0
 10
0.4500
 20
-0.2379
 30
0.0000
  0
SEQEND
  8
0
  0
POLYLINE
  8
0
 66
1
 10
0.0000
 20
0.0000
 30
0.0000
 40
0.0500
 41
0.0500
 70
0
  0
VERTEX
  8
0
 10
0.4250
 20
-0.2379
 30
0.0000
 42
1.0000
  0
VERTEX
  8
0
 10
0.4750
 20
-0.2379
 30
0.0000
  0
SEQEND
  8
0
  0
POLYLINE
  8
0
 66
1
 10
0.0000
 20
0.0000
 30
0.0000
 40
0.0500
 41
0.0500
 70
0
  0
VERTEX
  8
0
 10
0.4750
 20
0.2379
 30
0.0000
 42
1.0000
  0
VERTEX
  8
0
 10
0.4250
 20
0.2379
 30
0.0000
  0
SEQEND
  8
0
  0
POLYLINE
  8
0
 66
1
 10
0.0000
 20
0.0000
 30
0.0000
 40
0.1000
 41
0.1000
 70
0
  0
VERTEX
  8
0
 10
0.2379
 20
-0.4500
 30
0.0000
  0
VERTEX
  8
0
 10
-0.2379
 20
-0.4500
 30
0.0000
  0
SEQEND
  8
0
  0
POLYLINE
  8
0
 66
1
 10
0.0000
 20
0.0000
 30
0.0000
 40
0.0500
 41
0.0500
 70
0
  0
VERTEX
  8
0
 10
-0.2379
 20
-0.4250
 30
0.0000
 42
1.0000
  0
VERTEX
  8
0
 10
-0.2379
 20
-0.4750
 30
0.0000
  0
SEQEND
  8
0
  0
POLYLINE
  8
0
 66
1
 10
0.0000
 20
0.0000
 30
0.0000
 40
0.0500
 41
0.0500
 70
0
  0
VERTEX
  8
0
 10
0.2379
 20
-0.4750
 30
0.0000
 42
1.0000
  0
VERTEX
  8
0
 10
0.2379
 20
-0.4250
 30
0.0000
  0
SEQEND
  8
0
  0
POLYLINE
  8
0
 66
1
 10
0.0000
 20
0.0000
 30
0.0000
 40
0.1000
 41
0.1000
 70
0
  0
VERTEX
  8
0
 10
-0.4500
 20
-0.2379
 30
0.0000
  0
VERTEX
  8
0
 10
-0.4500
 20
0.2379
 30
0.0000
  0
SEQEND
  8
0
  0
POLYLINE
  8
0
 66
1
 10
0.0000
 20
0.0000
 30
0.0000
 40
0.0500
 41
0.0500
 70
0
  0
VERTEX
  8
0
 10
-0.4250
 20
0.2379
 30
0.0000
 42
1.0000
  0
VERTEX
  8
0
 10
-0.4750
 20
0.2379
 30
0.0000
  0
SEQEND
  8
0
  0
POLYLINE
  8
0
 66
1
 10
0.0000
 20
0.0000
 30
0.0000
 40
0.0500
 41
0.0500
 70
0
  0
VERTEX
  8
0
 10
-0.4750
 20
-0.2379
 30
0.0000
 42
1.0000
  0
VERTEX
  8
0
 10
-0.4250
 20
-0.2379
 30
0.0000
  0
SEQEND
  8
0
  0
ENDBLK
  8
0
  0
BLOCK
  8
0
  2
OCTAGONV
 70
64
 10
0.0000
 20
0.0000
 30
0.0000
  3
OCTAGONV
  0
POLYLINE
  8
0
 66
1
 10
0.0000
 20
0.0000
 30
0.0000
 40
0.5000
 41
0.5000
 70
0
  0
VERTEX
  8
0
 10
-0.2500
 20
-0.1036
 30
0.0000
  0
VERTEX
  8
0
 10
-0.2500
 20
0.1036
 30
0.0000
  0
VERTEX
  8
0
 10
-0.1036
 20
0.2500
 30
0.0000
  0
VERTEX
  8
0
 10
0.1036
 20
0.2500
 30
0.0000
  0
VERTEX
  8
0
 10
0.2500
 20
0.1036
 30
0.0000
  0
VERTEX
  8
0
 10
0.2500
 20
-0.1036
 30
0.0000
  0
VERTEX
  8
0
 10
0.1036
 20
-0.2500
 30
0.0000
  0
VERTEX
  8
0
 10
-0.1036
 20
-0.2500
 30
0.0000
  0
VERTEX
  8
0
 10
-0.2500
 20
-0.1036
 30
0.0000
  0
VERTEX
  8
0
 10
-0.2500
 20
0.1036
 30
0.0000
  0
SEQEND
  8
0
  0
ENDBLK
  8
0
  0
BLOCK
  8
0
  2
SQUAREV
 70
64
 10
0.0000
 20
0.0000
 30
0.0000
  3
SQUAREV
  0
SOLID
  8
0
 10
-0.5000
 20
-0.5000
 30
0.0000
 11
0.5000
 21
-0.5000
 31
0.0000
 12
-0.5000
 22
0.5000
 32
0.0000
 13
0.5000
 23
0.5000
 33
0.0000
  0
ENDBLK
  8
0
  0
BLOCK
  8
0
  2
ROUNDV
 70
64
 10
0.0000
 20
0.0000
 30
0.0000
  3
ROUNDV
  0
POLYLINE
  8
0
 66
1
 10
0.0000
 20
0.0000
 30
0.0000
 40
0.5000
 41
0.5000
 70
0
  0
VERTEX
  8
0
 10
0.0000
 20
-0.2500
 30
0.0000
 42
1.0000
  0
VERTEX
  8
0
 10
0.0000
 20
0.2500
 30
0.0000
 42
1.0000
  0
VERTEX
  8
0
 10
0.0000
 20
-0.2500
 30
0.0000
  0
SEQEND
  8
0
  0
ENDBLK
  8
0
  0
BLOCK
  8
0
  2
ANNULUSV
 70
64
 10
0.0000
 20
0.0000
 30
0.0000
  3
ANNULUSV
  0
POLYLINE
  8
0
 66
1
 10
0.0000
 20
0.0000
 30
0.0000
 40
0.5000
 41
0.5000
 70
0
  0
VERTEX
  8
0
 10
0.0000
 20
-0.2500
 30
0.0000
 42
1.0000
  0
VERTEX
  8
0
 10
0.0000
 20
0.2500
 30
0.0000
 42
1.0000
  0
VERTEX
  8
0
 10
0.0000
 20
-0.2500
 30
0.0000
  0
SEQEND
  8
0
  0
ENDBLK
  8
0
  0
BLOCK
  8
0
  2
THERMALV
 70
64
 10
0.0000
 20
0.0000
 30
0.0000
  3
THERMALV
  0
POLYLINE
  8
0
 66
1
 10
0.0000
 20
0.0000
 30
0.0000
 40
0.1000
 41
0.1000
 70
0
  0
VERTEX
  8
0
 10
-0.2379
 20
0.4500
 30
0.0000
  0
VERTEX
  8
0
 10
0.2379
 20
0.4500
 30
0.0000
  0
SEQEND
  8
0
  0
POLYLINE
  8
0
 66
1
 10
0.0000
 20
0.0000
 30
0.0000
 40
0.0500
 41
0.0500
 70
0
  0
VERTEX
  8
0
 10
0.2379
 20
0.4250
 30
0.0000
 42
1.0000
  0
VERTEX
  8
0
 10
0.2379
 20
0.4750
 30
0.0000
  0
SEQEND
  8
0
  0
POLYLINE
  8
0
 66
1
 10
0.0000
 20
0.0000
 30
0.0000
 40
0.0500
 41
0.0500
 70
0
  0
VERTEX
  8
0
 10
-0.2379
 20
0.4750
 30
0.0000
 42
1.0000
  0
VERTEX
  8
0
 10
-0.2379
 20
0.4250
 30
0.0000
  0
SEQEND
  8
0
  0
POLYLINE
  8
0
 66
1
 10
0.0000
 20
0.0000
 30
0.0000
 40
0.1000
 41
0.1000
 70
0
  0
VERTEX
  8
0
 10
0.4500
 20
0.2379
 30
0.0000
  0
VERTEX
  8
0
 10
0.4500
 20
-0.2379
 30
0.0000
  0
SEQEND
  8
0
  0
POLYLINE
  8
0
 66
1
 10
0.0000
 20
0.0000
 30
0.0000
 40
0.0500
 41
0.0500
 70
0
  0
VERTEX
  8
0
 10
0.4250
 20
-0.2379
 30
0.0000
 42
1.0000
  0
VERTEX
  8
0
 10
0.4750
 20
-0.2379
 30
0.0000
  0
SEQEND
  8
0
  0
POLYLINE
  8
0
 66
1
 10
0.0000
 20
0.0000
 30
0.0000
 40
0.0500
 41
0.0500
 70
0
  0
VERTEX
  8
0
 10
0.4750
 20
0.2379
 30
0.0000
 42
1.0000
  0
VERTEX
  8
0
 10
0.4250
 20
0.2379
 30
0.0000
  0
SEQEND
  8
0
  0
POLYLINE
  8
0
 66
1
 10
0.0000
 20
0.0000
 30
0.0000
 40
0.1000
 41
0.1000
 70
0
  0
VERTEX
  8
0
 10
0.2379
 20
-0.4500
 30
0.0000
  0
VERTEX
  8
0
 10
-0.2379
 20
-0.4500
 30
0.0000
  0
SEQEND
  8
0
  0
POLYLINE
  8
0
 66
1
 10
0.0000
 20
0.0000
 30
0.0000
 40
0.0500
 41
0.0500
 70
0
  0
VERTEX
  8
0
 10
-0.2379
 20
-0.4250
 30
0.0000
 42
1.0000
  0
VERTEX
  8
0
 10
-0.2379
 20
-0.4750
 30
0.0000
  0
SEQEND
  8
0
  0
POLYLINE
  8
0
 66
1
 10
0.0000
 20
0.0000
 30
0.0000
 40
0.0500
 41
0.0500
 70
0
  0
VERTEX
  8
0
 10
0.2379
 20
-0.4750
 30
0.0000
 42
1.0000
  0
VERTEX
  8
0
 10
0.2379
 20
-0.4250
 30
0.0000
  0
SEQEND
  8
0
  0
POLYLINE
  8
0
 66
1
 10
0.0000
 20
0.0000
 30
0.0000
 40
0.1000
 41
0.1000
 70
0
  0
VERTEX
  8
0
 10
-0.4500
 20
-0.2379
 30
0.0000
  0
VERTEX
  8
0
 10
-0.4500
 20
0.2379
 30
0.0000
  0
SEQEND
  8
0
  0
POLYLINE
  8
0
 66
1
 10
0.0000
 20
0.0000
 30
0.0000
 40
0.0500
 41
0.0500
 70
0
  0
VERTEX
  8
0
 10
-0.4250
 20
0.2379
 30
0.0000
 42
1.0000
  0
VERTEX
  8
0
 10
-0.4750
 20
0.2379
 30
0.0000
  0
SEQEND
  8
0
  0
POLYLINE
  8
0
 66
1
 10
0.0000
 20
0.0000
 30
0.0000
 40
0.0500
 41
0.0500
 70
0
  0
VERTEX
  8
0
 10
-0.4750
 20
-0.2379
 30
0.0000
 42
1.0000
  0
VERTEX
  8
0
 10
-0.4250
 20
-0.2379
 30
0.0000
  0
SEQEND
  8
0
  0
ENDBLK
  8
0
  0
ENDSEC
  0
SECTION
  2
ENTITIES
  0
INSERT
  8
16
  2
RECT
 10
37.1300
 20
6.3500
 30
0.0000
 41
0.6500
 42
1.7000
 43
1.0000
 50
90.0000
  0
INSERT
  8
16
  2
RECT
 10
37.1300
 20
7.6200
 30
0.0000
 41
0.6500
 42
1.7000
 43
1.0000
 50
90.0000
  0
INSERT
  8
16
  2
RECT
 10
37.1300
 20
8.8900
 30
0.0000
 41
0.6500
 42
1.7000
 43
1.0000
 50
90.0000
  0
INSERT
  8
16
  2
RECT
 10
37.1300
 20
10.1600
 30
0.0000
 41
0.6500
 42
1.7000
 43
1.0000
 50
90.0000
  0
INSERT
  8
16
  2
RECT
 10
37.1300
 20
11.4300
 30
0.0000
 41
0.6500
 42
1.7000
 43
1.0000
 50
90.0000
  0
INSERT
  8
16
  2
RECT
 10
37.1300
 20
12.7000
 30
0.0000
 41
0.6500
 42
1.7000
 43
1.0000
 50
90.0000
  0
INSERT
  8
16
  2
RECT
 10
37.1300
 20
13.9700
 30
0.0000
 41
0.6500
 42
1.7000
 43
1.0000
 50
90.0000
  0
INSERT
  8
16
  2
RECT
 10
37.1300
 20
15.2400
 30
0.0000
 41
0.6500
 42
1.7000
 43
1.0000
 50
90.0000
  0
INSERT
  8
16
  2
RECT
 10
37.1300
 20
16.5100
 30
0.0000
 41
0.6500
 42
1.7000
 43
1.0000
 50
90.0000
  0
INSERT
  8
16
  2
RECT
 10
37.1300
 20
17.7800
 30
0.0000
 41
0.6500
 42
1.7000
 43
1.0000
 50
90.0000
  0
INSERT
  8
16
  2
RECT
 10
37.1300
 20
19.0500
 30
0.0000
 41
0.6500
 42
1.7000
 43
1.0000
 50
90.0000
  0
INSERT
  8
16
  2
RECT
 10
37.1300
 20
20.3200
 30
0.0000
 41
0.6500
 42
1.7000
 43
1.0000
 50
90.0000
  0
INSERT
  8
16
  2
RECT
 10
37.1300
 20
21.5900
 30
0.0000
 41
0.6500
 42
1.7000
 43
1.0000
 50
90.0000
  0
INSERT
  8
16
  2
RECT
 10
37.1300
 20
22.8600
 30
0.0000
 41
0.6500
 42
1.7000
 43
1.0000
 50
90.0000
  0
INSERT
  8
16
  2
RECT
 10
46.6900
 20
22.8600
 30
0.0000
 41
0.6500
 42
1.7000
 43
1.0000
 50
90.0000
  0
INSERT
  8
16
  2
RECT
 10
46.6900
 20
21.5900
 30
0.0000
 41
0.6500
 42
1.7000
 43
1.0000
 50
90.0000
  0
INSERT
  8
16
  2
RECT
 10
46.6900
 20
20.3200
 30
0.0000
 41
0.6500
 42
1.7000
 43
1.0000
 50
90.0000
  0
INSERT
  8
16
  2
RECT
 10
46.6900
 20
19.0500
 30
0.0000
 41
0.6500
 42
1.7000
 43
1.0000
 50
90.0000
  0
INSERT
  8
16
  2
RECT
 10
46.6900
 20
17.7800
 30
0.0000
 41
0.6500
 42
1.7000
 43
1.0000
 50
90.0000
  0
INSERT
  8
16
  2
RECT
 10
46.6900
 20
16.5100
 30
0.0000
 41
0.6500
 42
1.7000
 43
1.0000
 50
90.0000
  0
INSERT
  8
16
  2
RECT
 10
46.6900
 20
15.2400
 30
0.0000
 41
0.6500
 42
1.7000
 43
1.0000
 50
90.0000
  0
INSERT
  8
16
  2
RECT
 10
46.6900
 20
13.9700
 30
0.0000
 41
0.6500
 42
1.7000
 43
1.0000
 50
90.0000
  0
INSERT
  8
16
  2
RECT
 10
46.6900
 20
12.7000
 30
0.0000
 41
0.6500
 42
1.7000
 43
1.0000
 50
90.0000
  0
INSERT
  8
16
  2
RECT
 10
46.6900
 20
11.4300
 30
0.0000
 41
0.6500
 42
1.7000
 43
1.0000
 50
90.0000
  0
INSERT
  8
16
  2
RECT
 10
46.6900
 20
10.1600
 30
0.0000
 41
0.6500
 42
1.7000
 43
1.0000
 50
90.0000
  0
INSERT
  8
16
  2
RECT
 10
46.6900
 20
8.8900
 30
0.0000
 41
0.6500
 42
1.7000
 43
1.0000
 50
90.0000
  0
INSERT
  8
16
  2
RECT
 10
46.6900
 20
7.6200
 30
0.0000
 41
0.6500
 42
1.7000
 43
1.0000
 50
90.0000
  0
INSERT
  8
16
  2
RECT
 10
46.6900
 20
6.3500
 30
0.0000
 41
0.6500
 42
1.7000
 43
1.0000
 50
90.0000
  0
INSERT
  8
16
  2
RECT
 10
76.5200
 20
27.9400
 30
0.0000
 41
1.3000
 42
1.5000
 43
1.0000
 50
0.0000
  0
INSERT
  8
16
  2
RECT
 10
78.4200
 20
27.9400
 30
0.0000
 41
1.3000
 42
1.5000
 43
1.0000
 50
0.0000
  0
INSERT
  8
16
  2
RECT
 10
76.5200
 20
22.8600
 30
0.0000
 41
1.3000
 42
1.5000
 43
1.0000
 50
0.0000
  0
INSERT
  8
16
  2
RECT
 10
78.4200
 20
22.8600
 30
0.0000
 41
1.3000
 42
1.5000
 43
1.0000
 50
0.0000
  0
INSERT
  8
16
  2
RECT
 10
76.5200
 20
17.7800
 30
0.0000
 41
1.3000
 42
1.5000
 43
1.0000
 50
0.0000
  0
INSERT
  8
16
  2
RECT
 10
78.4200
 20
17.7800
 30
0.0000
 41
1.3000
 42
1.5000
 43
1.0000
 50
0.0000
  0
INSERT
  8
16
  2
RECT
 10
75.2500
 20
8.8900
 30
0.0000
 41
1.3000
 42
1.5000
 43
1.0000
 50
0.0000
  0
INSERT
  8
16
  2
RECT
 10
77.1500
 20
8.8900
 30
0.0000
 41
1.3000
 42
1.5000
 43
1.0000
 50
0.0000
  0
INSERT
  8
16
  2
RECT
 10
9.8400
 20
2.5400
 30
0.0000
 41
1.3000
 42
1.5000
 43
1.0000
 50
180.0000
  0
INSERT
  8
16
  2
RECT
 10
7.9400
 20
2.5400
 30
0.0000
 41
1.3000
 42
1.5000
 43
1.0000
 50
180.0000
  0
INSERT
  8
16
  2
RECT
 10
9.8400
 20
7.6200
 30
0.0000
 41
1.3000
 42
1.5000
 43
1.0000
 50
180.0000
  0
INSERT
  8
16
  2
RECT
 10
7.9400
 20
7.6200
 30
0.0000
 41
1.3000
 42
1.5000
 43
1.0000
 50
180.0000
  0
INSERT
  8
16
  2
RECT
 10
9.8400
 20
17.7800
 30
0.0000
 41
1.3000
 42
1.5000
 43
1.0000
 50
180.0000
  0
INSERT
  8
16
  2
RECT
 10
7.9400
 20
17.7800
 30
0.0000
 41
1.3000
 42
1.5000
 43
1.0000
 50
180.0000
  0
INSERT
  8
16
  2
RECT
 10
9.8400
 20
12.7000
 30
0.0000
 41
1.3000
 42
1.5000
 43
1.0000
 50
180.0000
  0
INSERT
  8
16
  2
RECT
 10
7.9400
 20
12.7000
 30
0.0000
 41
1.3000
 42
1.5000
 43
1.0000
 50
180.0000
  0
INSERT
  8
16
  2
RECT
 10
9.8400
 20
22.8600
 30
0.0000
 41
1.3000
 42
1.5000
 43
1.0000
 50
180.0000
  0
INSERT
  8
16
  2
RECT
 10
7.9400
 20
22.8600
 30
0.0000
 41
1.3000
 42
1.5000
 43
1.0000
 50
180.0000
  0
INSERT
  8
16
  2
RECT
 10
64.7700
 20
25.7200
 30
0.0000
 41
1.3000
 42
1.5000
 43
1.0000
 50
90.0000
  0
INSERT
  8
16
  2
RECT
 10
64.7700
 20
27.6200
 30
0.0000
 41
1.3000
 42
1.5000
 43
1.0000
 50
90.0000
  0
INSERT
  8
17
  2
ROUNDP
 10
34.3900
 20
22.3600
 30
0.0000
 41
1.3080
 42
1.3080
 43
1.0000
 50
180.0000
  0
INSERT
  8
17
  2
ROUNDP
 10
31.7500
 20
22.4600
 30
0.0000
 41
1.3080
 42
1.3080
 43
1.0000
 50
180.0000
  0
INSERT
  8
17
  2
ROUNDP
 10
33.0200
 20
10.1600
 30
0.0000
 41
1.3080
 42
1.3080
 43
1.0000
 50
90.0000
  0
INSERT
  8
17
  2
ROUNDP
 10
50.8000
 20
10.1600
 30
0.0000
 41
1.3080
 42
1.3080
 43
1.0000
 50
90.0000
  0
INSERT
  8
17
  2
ROUNDP
 10
50.8000
 20
25.4000
 30
0.0000
 41
1.3080
 42
1.3080
 43
1.0000
 50
90.0000
  0
INSERT
  8
17
  2
ROUNDP
 10
48.2600
 20
25.4000
 30
0.0000
 41
1.3080
 42
1.3080
 43
1.0000
 50
90.0000
  0
INSERT
  8
17
  2
ROUNDP
 10
25.4000
 20
25.4000
 30
0.0000
 41
1.3080
 42
1.3080
 43
1.0000
 50
90.0000
  0
INSERT
  8
17
  2
ROUNDP
 10
30.4800
 20
25.4000
 30
0.0000
 41
1.3080
 42
1.3080
 43
1.0000
 50
90.0000
  0
INSERT
  8
16
  2
RECT
 10
72.1550
 20
21.5900
 30
0.0000
 41
2.1844
 42
1.0668
 43
1.0000
 50
180.0000
  0
INSERT
  8
16
  2
RECT
 10
72.1550
 20
19.0500
 30
0.0000
 41
2.1844
 42
1.0668
 43
1.0000
 50
180.0000
  0
INSERT
  8
16
  2
RECT
 10
62.2950
 20
19.0500
 30
0.0000
 41
2.1844
 42
1.0668
 43
1.0000
 50
180.0000
  0
INSERT
  8
16
  2
RECT
 10
62.2950
 20
21.5900
 30
0.0000
 41
2.1844
 42
1.0668
 43
1.0000
 50
180.0000
  0
INSERT
  8
16
  2
RECT
 10
72.1550
 20
16.5100
 30
0.0000
 41
2.1844
 42
1.0668
 43
1.0000
 50
180.0000
  0
INSERT
  8
16
  2
RECT
 10
72.1550
 20
13.9700
 30
0.0000
 41
2.1844
 42
1.0668
 43
1.0000
 50
180.0000
  0
INSERT
  8
16
  2
RECT
 10
62.2950
 20
13.9700
 30
0.0000
 41
2.1844
 42
1.0668
 43
1.0000
 50
180.0000
  0
INSERT
  8
16
  2
RECT
 10
62.2950
 20
16.5100
 30
0.0000
 41
2.1844
 42
1.0668
 43
1.0000
 50
180.0000
  0
INSERT
  8
17
  2
SQUAREP
 10
75.3300
 20
2.0500
 30
0.0000
 41
1.3080
 42
1.3080
 43
1.0000
 50
0.0000
  0
INSERT
  8
17
  2
SQUAREP
 10
59.0100
 20
2.1500
 30
0.0000
 41
1.3080
 42
1.3080
 43
1.0000
 50
0.0000
  0
INSERT
  8
17
  2
SQUAREP
 10
75.3300
 20
12.0500
 30
0.0000
 41
1.3080
 42
1.3080
 43
1.0000
 50
0.0000
  0
INSERT
  8
17
  2
SQUAREP
 10
59.1100
 20
12.0500
 30
0.0000
 41
1.3080
 42
1.3080
 43
1.0000
 50
0.0000
  0
INSERT
  8
16
  2
RECT
 10
72.1550
 20
11.4300
 30
0.0000
 41
2.1844
 42
1.0668
 43
1.0000
 50
180.0000
  0
INSERT
  8
16
  2
RECT
 10
72.1550
 20
8.8900
 30
0.0000
 41
2.1844
 42
1.0668
 43
1.0000
 50
180.0000
  0
INSERT
  8
16
  2
RECT
 10
62.2950
 20
8.8900
 30
0.0000
 41
2.1844
 42
1.0668
 43
1.0000
 50
180.0000
  0
INSERT
  8
16
  2
RECT
 10
62.2950
 20
11.4300
 30
0.0000
 41
2.1844
 42
1.0668
 43
1.0000
 50
180.0000
  0
INSERT
  8
16
  2
RECT
 10
72.1550
 20
6.3500
 30
0.0000
 41
2.1844
 42
1.0668
 43
1.0000
 50
180.0000
  0
INSERT
  8
16
  2
RECT
 10
72.1550
 20
3.8100
 30
0.0000
 41
2.1844
 42
1.0668
 43
1.0000
 50
180.0000
  0
INSERT
  8
16
  2
RECT
 10
62.2950
 20
3.8100
 30
0.0000
 41
2.1844
 42
1.0668
 43
1.0000
 50
180.0000
  0
INSERT
  8
16
  2
RECT
 10
62.2950
 20
6.3500
 30
0.0000
 41
2.1844
 42
1.0668
 43
1.0000
 50
180.0000
  0
INSERT
  8
16
  2
RECT
 10
11.6650
 20
2.5400
 30
0.0000
 41
2.1844
 42
1.0668
 43
1.0000
 50
0.0000
  0
INSERT
  8
16
  2
RECT
 10
11.6650
 20
5.0800
 30
0.0000
 41
2.1844
 42
1.0668
 43
1.0000
 50
0.0000
  0
INSERT
  8
16
  2
RECT
 10
21.5250
 20
5.0800
 30
0.0000
 41
2.1844
 42
1.0668
 43
1.0000
 50
0.0000
  0
INSERT
  8
16
  2
RECT
 10
21.5250
 20
2.5400
 30
0.0000
 41
2.1844
 42
1.0668
 43
1.0000
 50
0.0000
  0
INSERT
  8
16
  2
RECT
 10
11.6650
 20
7.6200
 30
0.0000
 41
2.1844
 42
1.0668
 43
1.0000
 50
0.0000
  0
INSERT
  8
16
  2
RECT
 10
11.6650
 20
10.1600
 30
0.0000
 41
2.1844
 42
1.0668
 43
1.0000
 50
0.0000
  0
INSERT
  8
16
  2
RECT
 10
21.5250
 20
10.1600
 30
0.0000
 41
2.1844
 42
1.0668
 43
1.0000
 50
0.0000
  0
INSERT
  8
16
  2
RECT
 10
21.5250
 20
7.6200
 30
0.0000
 41
2.1844
 42
1.0668
 43
1.0000
 50
0.0000
  0
INSERT
  8
16
  2
RECT
 10
11.6650
 20
17.7800
 30
0.0000
 41
2.1844
 42
1.0668
 43
1.0000
 50
0.0000
  0
INSERT
  8
16
  2
RECT
 10
11.6650
 20
20.3200
 30
0.0000
 41
2.1844
 42
1.0668
 43
1.0000
 50
0.0000
  0
INSERT
  8
16
  2
RECT
 10
21.5250
 20
20.3200
 30
0.0000
 41
2.1844
 42
1.0668
 43
1.0000
 50
0.0000
  0
INSERT
  8
16
  2
RECT
 10
21.5250
 20
17.7800
 30
0.0000
 41
2.1844
 42
1.0668
 43
1.0000
 50
0.0000
  0
INSERT
  8
16
  2
RECT
 10
11.6650
 20
12.7000
 30
0.0000
 41
2.1844
 42
1.0668
 43
1.0000
 50
0.0000
  0
INSERT
  8
16
  2
RECT
 10
11.6650
 20
15.2400
 30
0.0000
 41
2.1844
 42
1.0668
 43
1.0000
 50
0.0000
  0
INSERT
  8
16
  2
RECT
 10
21.5250
 20
15.2400
 30
0.0000
 41
2.1844
 42
1.0668
 43
1.0000
 50
0.0000
  0
INSERT
  8
16
  2
RECT
 10
21.5250
 20
12.7000
 30
0.0000
 41
2.1844
 42
1.0668
 43
1.0000
 50
0.0000
  0
INSERT
  8
16
  2
RECT
 10
11.6650
 20
22.8600
 30
0.0000
 41
2.1844
 42
1.0668
 43
1.0000
 50
0.0000
  0
INSERT
  8
16
  2
RECT
 10
11.6650
 20
25.4000
 30
0.0000
 41
2.1844
 42
1.0668
 43
1.0000
 50
0.0000
  0
INSERT
  8
16
  2
RECT
 10
21.5250
 20
25.4000
 30
0.0000
 41
2.1844
 42
1.0668
 43
1.0000
 50
0.0000
  0
INSERT
  8
16
  2
RECT
 10
21.5250
 20
22.8600
 30
0.0000
 41
2.1844
 42
1.0668
 43
1.0000
 50
0.0000
  0
INSERT
  8
16
  2
RECT
 10
61.9950
 20
26.6700
 30
0.0000
 41
2.1844
 42
1.0668
 43
1.0000
 50
180.0000
  0
INSERT
  8
16
  2
RECT
 10
61.9950
 20
24.1300
 30
0.0000
 41
2.1844
 42
1.0668
 43
1.0000
 50
180.0000
  0
INSERT
  8
16
  2
RECT
 10
52.1350
 20
24.1300
 30
0.0000
 41
2.1844
 42
1.0668
 43
1.0000
 50
180.0000
  0
INSERT
  8
16
  2
RECT
 10
52.1350
 20
26.6700
 30
0.0000
 41
2.1844
 42
1.0668
 43
1.0000
 50
180.0000
  0
INSERT
  8
17
  2
ROUNDP
 10
3.8350
 20
27.9400
 30
0.0000
 41
2.0000
 42
2.0000
 43
1.0000
 50
270.0000
  0
INSERT
  8
17
  2
ROUNDP
 10
3.8350
 20
22.8600
 30
0.0000
 41
2.0000
 42
2.0000
 43
1.0000
 50
270.0000
  0
INSERT
  8
17
  2
ROUNDP
 10
3.8350
 20
17.7800
 30
0.0000
 41
2.0000
 42
2.0000
 43
1.0000
 50
270.0000
  0
INSERT
  8
17
  2
ROUNDP
 10
3.8350
 20
12.7000
 30
0.0000
 41
2.0000
 42
2.0000
 43
1.0000
 50
270.0000
  0
INSERT
  8
17
  2
ROUNDP
 10
3.8350
 20
7.6200
 30
0.0000
 41
2.0000
 42
2.0000
 43
1.0000
 50
270.0000
  0
INSERT
  8
17
  2
ROUNDP
 10
3.8350
 20
2.5400
 30
0.0000
 41
2.0000
 42
2.0000
 43
1.0000
 50
270.0000
  0
INSERT
  8
17
  2
ROUNDP
 10
81.3050
 20
27.9400
 30
0.0000
 41
2.0000
 42
2.0000
 43
1.0000
 50
270.0000
  0
INSERT
  8
17
  2
ROUNDP
 10
81.3050
 20
22.8600
 30
0.0000
 41
2.0000
 42
2.0000
 43
1.0000
 50
270.0000
  0
INSERT
  8
17
  2
ROUNDP
 10
81.3050
 20
17.7800
 30
0.0000
 41
2.0000
 42
2.0000
 43
1.0000
 50
270.0000
  0
INSERT
  8
17
  2
ROUNDP
 10
81.3050
 20
12.7000
 30
0.0000
 41
2.0000
 42
2.0000
 43
1.0000
 50
270.0000
  0
INSERT
  8
17
  2
ROUNDP
 10
81.3050
 20
7.6200
 30
0.0000
 41
2.0000
 42
2.0000
 43
1.0000
 50
270.0000
  0
INSERT
  8
17
  2
ROUNDP
 10
81.3050
 20
2.5400
 30
0.0000
 41
2.0000
 42
2.0000
 43
1.0000
 50
270.0000
  0
POLYLINE
  8
16
 66
1
 10
0.0000
 20
0.0000
 30
0.0000
 40
0.2540
 41
0.2540
 70
0
  0
VERTEX
  8
16
 10
61.9950
 20
26.6700
 30
0.0000
  0
VERTEX
  8
16
 10
62.2300
 20
26.6700
 30
0.0000
  0
SEQEND
  8
0
  0
POLYLINE
  8
16
 66
1
 10
0.0000
 20
0.0000
 30
0.0000
 40
0.1270
 41
0.1270
 70
0
  0
VERTEX
  8
16
 10
62.2300
 20
26.6065
 30
0.0000
 42
1.0000
  0
VERTEX
  8
16
 10
62.2300
 20
26.7335
 30
0.0000
  0
SEQEND
  8
0
  0
POLYLINE
  8
16
 66
1
 10
0.0000
 20
0.0000
 30
0.0000
 40
0.1270
 41
0.1270
 70
0
  0
VERTEX
  8
16
 10
61.9950
 20
26.7335
 30
0.0000
 42
1.0000
  0
VERTEX
  8
16
 10
61.9950
 20
26.6065
 30
0.0000
  0
SEQEND
  8
0
  0
POLYLINE
  8
16
 66
1
 10
0.0000
 20
0.0000
 30
0.0000
 40
0.2540
 41
0.2540
 70
0
  0
VERTEX
  8
16
 10
62.2300
 20
26.6700
 30
0.0000
  0
VERTEX
  8
16
 10
63.5000
 20
25.4000
 30
0.0000
  0
SEQEND
  8
0
  0
POLYLINE
  8
16
 66
1
 10
0.0000
 20
0.0000
 30
0.0000
 40
0.1270
 41
0.1270
 70
0
  0
VERTEX
  8
16
 10
63.4551
 20
25.3551
 30
0.0000
 42
1.0000
  0
VERTEX
  8
16
 10
63.5449
 20
25.4449
 30
0.0000
  0
SEQEND
  8
0
  0
POLYLINE
  8
16
 66
1
 10
0.0000
 20
0.0000
 30
0.0000
 40
0.1270
 41
0.1270
 70
0
  0
VERTEX
  8
16
 10
62.2749
 20
26.7149
 30
0.0000
 42
1.0000
  0
VERTEX
  8
16
 10
62.1851
 20
26.6251
 30
0.0000
  0
SEQEND
  8
0
  0
POLYLINE
  8
16
 66
1
 10
0.0000
 20
0.0000
 30
0.0000
 40
0.2540
 41
0.2540
 70
0
  0
VERTEX
  8
16
 10
63.5000
 20
25.4000
 30
0.0000
  0
VERTEX
  8
16
 10
64.4500
 20
25.4000
 30
0.0000
  0
SEQEND
  8
0
  0
POLYLINE
  8
16
 66
1
 10
0.0000
 20
0.0000
 30
0.0000
 40
0.1270
 41
0.1270
 70
0
  0
VERTEX
  8
16
 10
64.4500
 20
25.3365
 30
0.0000
 42
1.0000
  0
VERTEX
  8
16
 10
64.4500
 20
25.4635
 30
0.0000
  0
SEQEND
  8
0
  0
POLYLINE
  8
16
 66
1
 10
0.0000
 20
0.0000
 30
0.0000
 40
0.1270
 41
0.1270
 70
0
  0
VERTEX
  8
16
 10
63.5000
 20
25.4635
 30
0.0000
 42
1.0000
  0
VERTEX
  8
16
 10
63.5000
 20
25.3365
 30
0.0000
  0
SEQEND
  8
0
  0
POLYLINE
  8
16
 66
1
 10
0.0000
 20
0.0000
 30
0.0000
 40
0.2540
 41
0.2540
 70
0
  0
VERTEX
  8
16
 10
64.4500
 20
25.4000
 30
0.0000
  0
VERTEX
  8
16
 10
64.7700
 20
25.7200
 30
0.0000
  0
SEQEND
  8
0
  0
POLYLINE
  8
16
 66
1
 10
0.0000
 20
0.0000
 30
0.0000
 40
0.1270
 41
0.1270
 70
0
  0
VERTEX
  8
16
 10
64.8149
 20
25.6751
 30
0.0000
 42
1.0000
  0
VERTEX
  8
16
 10
64.7251
 20
25.7649
 30
0.0000
  0
SEQEND
  8
0
  0
POLYLINE
  8
16
 66
1
 10
0.0000
 20
0.0000
 30
0.0000
 40
0.1270
 41
0.1270
 70
0
  0
VERTEX
  8
16
 10
64.4051
 20
25.4449
 30
0.0000
 42
1.0000
  0
VERTEX
  8
16
 10
64.4949
 20
25.3551
 30
0.0000
  0
SEQEND
  8
0
  0
POLYLINE
  8
16
 66
1
 10
0.0000
 20
0.0000
 30
0.0000
 40
0.2540
 41
0.2540
 70
0
  0
VERTEX
  8
16
 10
11.6650
 20
2.5400
 30
0.0000
  0
VERTEX
  8
16
 10
9.8400
 20
2.5400
 30
0.0000
  0
SEQEND
  8
0
  0
POLYLINE
  8
16
 66
1
 10
0.0000
 20
0.0000
 30
0.0000
 40
0.1270
 41
0.1270
 70
0
  0
VERTEX
  8
16
 10
9.8400
 20
2.6035
 30
0.0000
 42
1.0000
  0
VERTEX
  8
16
 10
9.8400
 20
2.4765
 30
0.0000
  0
SEQEND
  8
0
  0
POLYLINE
  8
16
 66
1
 10
0.0000
 20
0.0000
 30
0.0000
 40
0.1270
 41
0.1270
 70
0
  0
VERTEX
  8
16
 10
11.6650
 20
2.4765
 30
0.0000
 42
1.0000
  0
VERTEX
  8
16
 10
11.6650
 20
2.6035
 30
0.0000
  0
SEQEND
  8
0
  0
POLYLINE
  8
16
 66
1
 10
0.0000
 20
0.0000
 30
0.0000
 40
0.2540
 41
0.2540
 70
0
  0
VERTEX
  8
16
 10
9.8400
 20
7.6200
 30
0.0000
  0
VERTEX
  8
16
 10
11.6650
 20
7.6200
 30
0.0000
  0
SEQEND
  8
0
  0
POLYLINE
  8
16
 66
1
 10
0.0000
 20
0.0000
 30
0.0000
 40
0.1270
 41
0.1270
 70
0
  0
VERTEX
  8
16
 10
11.6650
 20
7.5565
 30
0.0000
 42
1.0000
  0
VERTEX
  8
16
 10
11.6650
 20
7.6835
 30
0.0000
  0
SEQEND
  8
0
  0
POLYLINE
  8
16
 66
1
 10
0.0000
 20
0.0000
 30
0.0000
 40
0.1270
 41
0.1270
 70
0
  0
VERTEX
  8
16
 10
9.8400
 20
7.6835
 30
0.0000
 42
1.0000
  0
VERTEX
  8
16
 10
9.8400
 20
7.5565
 30
0.0000
  0
SEQEND
  8
0
  0
POLYLINE
  8
16
 66
1
 10
0.0000
 20
0.0000
 30
0.0000
 40
0.2540
 41
0.2540
 70
0
  0
VERTEX
  8
16
 10
9.8400
 20
17.7800
 30
0.0000
  0
VERTEX
  8
16
 10
11.6650
 20
17.7800
 30
0.0000
  0
SEQEND
  8
0
  0
POLYLINE
  8
16
 66
1
 10
0.0000
 20
0.0000
 30
0.0000
 40
0.1270
 41
0.1270
 70
0
  0
VERTEX
  8
16
 10
11.6650
 20
17.7165
 30
0.0000
 42
1.0000
  0
VERTEX
  8
16
 10
11.6650
 20
17.8435
 30
0.0000
  0
SEQEND
  8
0
  0
POLYLINE
  8
16
 66
1
 10
0.0000
 20
0.0000
 30
0.0000
 40
0.1270
 41
0.1270
 70
0
  0
VERTEX
  8
16
 10
9.8400
 20
17.8435
 30
0.0000
 42
1.0000
  0
VERTEX
  8
16
 10
9.8400
 20
17.7165
 30
0.0000
  0
SEQEND
  8
0
  0
POLYLINE
  8
16
 66
1
 10
0.0000
 20
0.0000
 30
0.0000
 40
0.2540
 41
0.2540
 70
0
  0
VERTEX
  8
16
 10
9.8400
 20
12.7000
 30
0.0000
  0
VERTEX
  8
16
 10
11.6650
 20
12.7000
 30
0.0000
  0
SEQEND
  8
0
  0
POLYLINE
  8
16
 66
1
 10
0.0000
 20
0.0000
 30
0.0000
 40
0.1270
 41
0.1270
 70
0
  0
VERTEX
  8
16
 10
11.6650
 20
12.6365
 30
0.0000
 42
1.0000
  0
VERTEX
  8
16
 10
11.6650
 20
12.7635
 30
0.0000
  0
SEQEND
  8
0
  0
POLYLINE
  8
16
 66
1
 10
0.0000
 20
0.0000
 30
0.0000
 40
0.1270
 41
0.1270
 70
0
  0
VERTEX
  8
16
 10
9.8400
 20
12.7635
 30
0.0000
 42
1.0000
  0
VERTEX
  8
16
 10
9.8400
 20
12.6365
 30
0.0000
  0
SEQEND
  8
0
  0
POLYLINE
  8
16
 66
1
 10
0.0000
 20
0.0000
 30
0.0000
 40
0.2540
 41
0.2540
 70
0
  0
VERTEX
  8
16
 10
9.8400
 20
22.8600
 30
0.0000
  0
VERTEX
  8
16
 10
11.6650
 20
22.8600
 30
0.0000
  0
SEQEND
  8
0
  0
POLYLINE
  8
16
 66
1
 10
0.0000
 20
0.0000
 30
0.0000
 40
0.1270
 41
0.1270
 70
0
  0
VERTEX
  8
16
 10
11.6650
 20
22.7965
 30
0.0000
 42
1.0000
  0
VERTEX
  8
16
 10
11.6650
 20
22.9235
 30
0.0000
  0
SEQEND
  8
0
  0
POLYLINE
  8
16
 66
1
 10
0.0000
 20
0.0000
 30
0.0000
 40
0.1270
 41
0.1270
 70
0
  0
VERTEX
  8
16
 10
9.8400
 20
22.9235
 30
0.0000
 42
1.0000
  0
VERTEX
  8
16
 10
9.8400
 20
22.7965
 30
0.0000
  0
SEQEND
  8
0
  0
POLYLINE
  8
16
 66
1
 10
0.0000
 20
0.0000
 30
0.0000
 40
0.2540
 41
0.2540
 70
0
  0
VERTEX
  8
16
 10
72.1550
 20
6.3500
 30
0.0000
  0
VERTEX
  8
16
 10
72.3900
 20
6.3500
 30
0.0000
  0
SEQEND
  8
0
  0
POLYLINE
  8
16
 66
1
 10
0.0000
 20
0.0000
 30
0.0000
 40
0.1270
 41
0.1270
 70
0
  0
VERTEX
  8
16
 10
72.3900
 20
6.2865
 30
0.0000
 42
1.0000
  0
VERTEX
  8
16
 10
72.3900
 20
6.4135
 30
0.0000
  0
SEQEND
  8
0
  0
POLYLINE
  8
16
 66
1
 10
0.0000
 20
0.0000
 30
0.0000
 40
0.1270
 41
0.1270
 70
0
  0
VERTEX
  8
16
 10
72.1550
 20
6.4135
 30
0.0000
 42
1.0000
  0
VERTEX
  8
16
 10
72.1550
 20
6.2865
 30
0.0000
  0
SEQEND
  8
0
  0
POLYLINE
  8
16
 66
1
 10
0.0000
 20
0.0000
 30
0.0000
 40
0.2540
 41
0.2540
 70
0
  0
VERTEX
  8
16
 10
72.3900
 20
6.3500
 30
0.0000
  0
VERTEX
  8
16
 10
74.9300
 20
8.8900
 30
0.0000
  0
SEQEND
  8
0
  0
POLYLINE
  8
16
 66
1
 10
0.0000
 20
0.0000
 30
0.0000
 40
0.1270
 41
0.1270
 70
0
  0
VERTEX
  8
16
 10
74.9749
 20
8.8451
 30
0.0000
 42
1.0000
  0
VERTEX
  8
16
 10
74.8851
 20
8.9349
 30
0.0000
  0
SEQEND
  8
0
  0
POLYLINE
  8
16
 66
1
 10
0.0000
 20
0.0000
 30
0.0000
 40
0.1270
 41
0.1270
 70
0
  0
VERTEX
  8
16
 10
72.3451
 20
6.3949
 30
0.0000
 42
1.0000
  0
VERTEX
  8
16
 10
72.4349
 20
6.3051
 30
0.0000
  0
SEQEND
  8
0
  0
POLYLINE
  8
16
 66
1
 10
0.0000
 20
0.0000
 30
0.0000
 40
0.2540
 41
0.2540
 70
0
  0
VERTEX
  8
16
 10
74.9300
 20
8.8900
 30
0.0000
  0
VERTEX
  8
16
 10
74.9300
 20
8.5700
 30
0.0000
  0
SEQEND
  8
0
  0
POLYLINE
  8
16
 66
1
 10
0.0000
 20
0.0000
 30
0.0000
 40
0.1270
 41
0.1270
 70
0
  0
VERTEX
  8
16
 10
74.8665
 20
8.5700
 30
0.0000
 42
1.0000
  0
VERTEX
  8
16
 10
74.9935
 20
8.5700
 30
0.0000
  0
SEQEND
  8
0
  0
POLYLINE
  8
16
 66
1
 10
0.0000
 20
0.0000
 30
0.0000
 40
0.1270
 41
0.1270
 70
0
  0
VERTEX
  8
16
 10
74.9935
 20
8.8900
 30
0.0000
 42
1.0000
  0
VERTEX
  8
16
 10
74.8665
 20
8.8900
 30
0.0000
  0
SEQEND
  8
0
  0
POLYLINE
  8
16
 66
1
 10
0.0000
 20
0.0000
 30
0.0000
 40
0.2540
 41
0.2540
 70
0
  0
VERTEX
  8
16
 10
74.9300
 20
8.5700
 30
0.0000
  0
VERTEX
  8
16
 10
75.2500
 20
8.8900
 30
0.0000
  0
SEQEND
  8
0
  0
POLYLINE
  8
16
 66
1
 10
0.0000
 20
0.0000
 30
0.0000
 40
0.1270
 41
0.1270
 70
0
  0
VERTEX
  8
16
 10
75.2949
 20
8.8451
 30
0.0000
 42
1.0000
  0
VERTEX
  8
16
 10
75.2051
 20
8.9349
 30
0.0000
  0
SEQEND
  8
0
  0
POLYLINE
  8
16
 66
1
 10
0.0000
 20
0.0000
 30
0.0000
 40
0.1270
 41
0.1270
 70
0
  0
VERTEX
  8
16
 10
74.8851
 20
8.6149
 30
0.0000
 42
1.0000
  0
VERTEX
  8
16
 10
74.9749
 20
8.5251
 30
0.0000
  0
SEQEND
  8
0
  0
POLYLINE
  8
16
 66
1
 10
0.0000
 20
0.0000
 30
0.0000
 40
0.2540
 41
0.2540
 70
0
  0
VERTEX
  8
16
 10
72.1550
 20
11.4300
 30
0.0000
  0
VERTEX
  8
16
 10
73.6600
 20
11.4300
 30
0.0000
  0
SEQEND
  8
0
  0
POLYLINE
  8
16
 66
1
 10
0.0000
 20
0.0000
 30
0.0000
 40
0.1270
 41
0.1270
 70
0
  0
VERTEX
  8
16
 10
73.6600
 20
11.3665
 30
0.0000
 42
1.0000
  0
VERTEX
  8
16
 10
73.6600
 20
11.4935
 30
0.0000
  0
SEQEND
  8
0
  0
POLYLINE
  8
16
 66
1
 10
0.0000
 20
0.0000
 30
0.0000
 40
0.1270
 41
0.1270
 70
0
  0
VERTEX
  8
16
 10
72.1550
 20
11.4935
 30
0.0000
 42
1.0000
  0
VERTEX
  8
16
 10
72.1550
 20
11.3665
 30
0.0000
  0
SEQEND
  8
0
  0
POLYLINE
  8
16
 66
1
 10
0.0000
 20
0.0000
 30
0.0000
 40
0.2540
 41
0.2540
 70
0
  0
VERTEX
  8
16
 10
73.6600
 20
11.4300
 30
0.0000
  0
VERTEX
  8
16
 10
73.6600
 20
12.7000
 30
0.0000
  0
SEQEND
  8
0
  0
POLYLINE
  8
16
 66
1
 10
0.0000
 20
0.0000
 30
0.0000
 40
0.1270
 41
0.1270
 70
0
  0
VERTEX
  8
16
 10
73.7235
 20
12.7000
 30
0.0000
 42
1.0000
  0
VERTEX
  8
16
 10
73.5965
 20
12.7000
 30
0.0000
  0
SEQEND
  8
0
  0
POLYLINE
  8
16
 66
1
 10
0.0000
 20
0.0000
 30
0.0000
 40
0.1270
 41
0.1270
 70
0
  0
VERTEX
  8
16
 10
73.5965
 20
11.4300
 30
0.0000
 42
1.0000
  0
VERTEX
  8
16
 10
73.7235
 20
11.4300
 30
0.0000
  0
SEQEND
  8
0
  0
POLYLINE
  8
16
 66
1
 10
0.0000
 20
0.0000
 30
0.0000
 40
0.2540
 41
0.2540
 70
0
  0
VERTEX
  8
16
 10
73.6600
 20
12.7000
 30
0.0000
  0
VERTEX
  8
16
 10
76.2000
 20
15.2400
 30
0.0000
  0
SEQEND
  8
0
  0
POLYLINE
  8
16
 66
1
 10
0.0000
 20
0.0000
 30
0.0000
 40
0.1270
 41
0.1270
 70
0
  0
VERTEX
  8
16
 10
76.2449
 20
15.1951
 30
0.0000
 42
1.0000
  0
VERTEX
  8
16
 10
76.1551
 20
15.2849
 30
0.0000
  0
SEQEND
  8
0
  0
POLYLINE
  8
16
 66
1
 10
0.0000
 20
0.0000
 30
0.0000
 40
0.1270
 41
0.1270
 70
0
  0
VERTEX
  8
16
 10
73.6151
 20
12.7449
 30
0.0000
 42
1.0000
  0
VERTEX
  8
16
 10
73.7049
 20
12.6551
 30
0.0000
  0
SEQEND
  8
0
  0
POLYLINE
  8
16
 66
1
 10
0.0000
 20
0.0000
 30
0.0000
 40
0.2540
 41
0.2540
 70
0
  0
VERTEX
  8
16
 10
76.2000
 20
15.2400
 30
0.0000
  0
VERTEX
  8
16
 10
76.2000
 20
17.4600
 30
0.0000
  0
SEQEND
  8
0
  0
POLYLINE
  8
16
 66
1
 10
0.0000
 20
0.0000
 30
0.0000
 40
0.1270
 41
0.1270
 70
0
  0
VERTEX
  8
16
 10
76.2635
 20
17.4600
 30
0.0000
 42
1.0000
  0
VERTEX
  8
16
 10
76.1365
 20
17.4600
 30
0.0000
  0
SEQEND
  8
0
  0
POLYLINE
  8
16
 66
1
 10
0.0000
 20
0.0000
 30
0.0000
 40
0.1270
 41
0.1270
 70
0
  0
VERTEX
  8
16
 10
76.1365
 20
15.2400
 30
0.0000
 42
1.0000
  0
VERTEX
  8
16
 10
76.2635
 20
15.2400
 30
0.0000
  0
SEQEND
  8
0
  0
POLYLINE
  8
16
 66
1
 10
0.0000
 20
0.0000
 30
0.0000
 40
0.2540
 41
0.2540
 70
0
  0
VERTEX
  8
16
 10
76.2000
 20
17.4600
 30
0.0000
  0
VERTEX
  8
16
 10
76.5200
 20
17.7800
 30
0.0000
  0
SEQEND
  8
0
  0
POLYLINE
  8
16
 66
1
 10
0.0000
 20
0.0000
 30
0.0000
 40
0.1270
 41
0.1270
 70
0
  0
VERTEX
  8
16
 10
76.5649
 20
17.7351
 30
0.0000
 42
1.0000
  0
VERTEX
  8
16
 10
76.4751
 20
17.8249
 30
0.0000
  0
SEQEND
  8
0
  0
POLYLINE
  8
16
 66
1
 10
0.0000
 20
0.0000
 30
0.0000
 40
0.1270
 41
0.1270
 70
0
  0
VERTEX
  8
16
 10
76.1551
 20
17.5049
 30
0.0000
 42
1.0000
  0
VERTEX
  8
16
 10
76.2449
 20
17.4151
 30
0.0000
  0
SEQEND
  8
0
  0
POLYLINE
  8
16
 66
1
 10
0.0000
 20
0.0000
 30
0.0000
 40
0.2540
 41
0.2540
 70
0
  0
VERTEX
  8
16
 10
72.1550
 20
16.5100
 30
0.0000
  0
VERTEX
  8
16
 10
73.6600
 20
16.5100
 30
0.0000
  0
SEQEND
  8
0
  0
POLYLINE
  8
16
 66
1
 10
0.0000
 20
0.0000
 30
0.0000
 40
0.1270
 41
0.1270
 70
0
  0
VERTEX
  8
16
 10
73.6600
 20
16.4465
 30
0.0000
 42
1.0000
  0
VERTEX
  8
16
 10
73.6600
 20
16.5735
 30
0.0000
  0
SEQEND
  8
0
  0
POLYLINE
  8
16
 66
1
 10
0.0000
 20
0.0000
 30
0.0000
 40
0.1270
 41
0.1270
 70
0
  0
VERTEX
  8
16
 10
72.1550
 20
16.5735
 30
0.0000
 42
1.0000
  0
VERTEX
  8
16
 10
72.1550
 20
16.4465
 30
0.0000
  0
SEQEND
  8
0
  0
POLYLINE
  8
16
 66
1
 10
0.0000
 20
0.0000
 30
0.0000
 40
0.2540
 41
0.2540
 70
0
  0
VERTEX
  8
16
 10
73.6600
 20
16.5100
 30
0.0000
  0
VERTEX
  8
16
 10
74.9300
 20
17.7800
 30
0.0000
  0
SEQEND
  8
0
  0
POLYLINE
  8
16
 66
1
 10
0.0000
 20
0.0000
 30
0.0000
 40
0.1270
 41
0.1270
 70
0
  0
VERTEX
  8
16
 10
74.9749
 20
17.7351
 30
0.0000
 42
1.0000
  0
VERTEX
  8
16
 10
74.8851
 20
17.8249
 30
0.0000
  0
SEQEND
  8
0
  0
POLYLINE
  8
16
 66
1
 10
0.0000
 20
0.0000
 30
0.0000
 40
0.1270
 41
0.1270
 70
0
  0
VERTEX
  8
16
 10
73.6151
 20
16.5549
 30
0.0000
 42
1.0000
  0
VERTEX
  8
16
 10
73.7049
 20
16.4651
 30
0.0000
  0
SEQEND
  8
0
  0
POLYLINE
  8
16
 66
1
 10
0.0000
 20
0.0000
 30
0.0000
 40
0.2540
 41
0.2540
 70
0
  0
VERTEX
  8
16
 10
74.9300
 20
17.7800
 30
0.0000
  0
VERTEX
  8
16
 10
74.9300
 20
20.3200
 30
0.0000
  0
SEQEND
  8
0
  0
POLYLINE
  8
16
 66
1
 10
0.0000
 20
0.0000
 30
0.0000
 40
0.1270
 41
0.1270
 70
0
  0
VERTEX
  8
16
 10
74.9935
 20
20.3200
 30
0.0000
 42
1.0000
  0
VERTEX
  8
16
 10
74.8665
 20
20.3200
 30
0.0000
  0
SEQEND
  8
0
  0
POLYLINE
  8
16
 66
1
 10
0.0000
 20
0.0000
 30
0.0000
 40
0.1270
 41
0.1270
 70
0
  0
VERTEX
  8
16
 10
74.8665
 20
17.7800
 30
0.0000
 42
1.0000
  0
VERTEX
  8
16
 10
74.9935
 20
17.7800
 30
0.0000
  0
SEQEND
  8
0
  0
POLYLINE
  8
16
 66
1
 10
0.0000
 20
0.0000
 30
0.0000
 40
0.2540
 41
0.2540
 70
0
  0
VERTEX
  8
16
 10
74.9300
 20
20.3200
 30
0.0000
  0
VERTEX
  8
16
 10
76.5200
 20
20.3200
 30
0.0000
  0
SEQEND
  8
0
  0
POLYLINE
  8
16
 66
1
 10
0.0000
 20
0.0000
 30
0.0000
 40
0.1270
 41
0.1270
 70
0
  0
VERTEX
  8
16
 10
76.5200
 20
20.2565
 30
0.0000
 42
1.0000
  0
VERTEX
  8
16
 10
76.5200
 20
20.3835
 30
0.0000
  0
SEQEND
  8
0
  0
POLYLINE
  8
16
 66
1
 10
0.0000
 20
0.0000
 30
0.0000
 40
0.1270
 41
0.1270
 70
0
  0
VERTEX
  8
16
 10
74.9300
 20
20.3835
 30
0.0000
 42
1.0000
  0
VERTEX
  8
16
 10
74.9300
 20
20.2565
 30
0.0000
  0
SEQEND
  8
0
  0
POLYLINE
  8
16
 66
1
 10
0.0000
 20
0.0000
 30
0.0000
 40
0.2540
 41
0.2540
 70
0
  0
VERTEX
  8
16
 10
76.5200
 20
20.3200
 30
0.0000
  0
VERTEX
  8
16
 10
76.5200
 20
22.8600
 30
0.0000
  0
SEQEND
  8
0
  0
POLYLINE
  8
16
 66
1
 10
0.0000
 20
0.0000
 30
0.0000
 40
0.1270
 41
0.1270
 70
0
  0
VERTEX
  8
16
 10
76.5835
 20
22.8600
 30
0.0000
 42
1.0000
  0
VERTEX
  8
16
 10
76.4565
 20
22.8600
 30
0.0000
  0
SEQEND
  8
0
  0
POLYLINE
  8
16
 66
1
 10
0.0000
 20
0.0000
 30
0.0000
 40
0.1270
 41
0.1270
 70
0
  0
VERTEX
  8
16
 10
76.4565
 20
20.3200
 30
0.0000
 42
1.0000
  0
VERTEX
  8
16
 10
76.5835
 20
20.3200
 30
0.0000
  0
SEQEND
  8
0
  0
POLYLINE
  8
16
 66
1
 10
0.0000
 20
0.0000
 30
0.0000
 40
0.2540
 41
0.2540
 70
0
  0
VERTEX
  8
16
 10
72.1550
 20
21.5900
 30
0.0000
  0
VERTEX
  8
16
 10
72.1550
 20
21.3550
 30
0.0000
  0
SEQEND
  8
0
  0
POLYLINE
  8
16
 66
1
 10
0.0000
 20
0.0000
 30
0.0000
 40
0.1270
 41
0.1270
 70
0
  0
VERTEX
  8
16
 10
72.0915
 20
21.3550
 30
0.0000
 42
1.0000
  0
VERTEX
  8
16
 10
72.2185
 20
21.3550
 30
0.0000
  0
SEQEND
  8
0
  0
POLYLINE
  8
16
 66
1
 10
0.0000
 20
0.0000
 30
0.0000
 40
0.1270
 41
0.1270
 70
0
  0
VERTEX
  8
16
 10
72.2185
 20
21.5900
 30
0.0000
 42
1.0000
  0
VERTEX
  8
16
 10
72.0915
 20
21.5900
 30
0.0000
  0
SEQEND
  8
0
  0
POLYLINE
  8
16
 66
1
 10
0.0000
 20
0.0000
 30
0.0000
 40
0.2540
 41
0.2540
 70
0
  0
VERTEX
  8
16
 10
72.1550
 20
21.3550
 30
0.0000
  0
VERTEX
  8
16
 10
76.2000
 20
26.6700
 30
0.0000
  0
SEQEND
  8
0
  0
POLYLINE
  8
16
 66
1
 10
0.0000
 20
0.0000
 30
0.0000
 40
0.1270
 41
0.1270
 70
0
  0
VERTEX
  8
16
 10
76.2505
 20
26.6315
 30
0.0000
 42
1.0000
  0
VERTEX
  8
16
 10
76.1495
 20
26.7085
 30
0.0000
  0
SEQEND
  8
0
  0
POLYLINE
  8
16
 66
1
 10
0.0000
 20
0.0000
 30
0.0000
 40
0.1270
 41
0.1270
 70
0
  0
VERTEX
  8
16
 10
72.1045
 20
21.3935
 30
0.0000
 42
1.0000
  0
VERTEX
  8
16
 10
72.2055
 20
21.3165
 30
0.0000
  0
SEQEND
  8
0
  0
POLYLINE
  8
16
 66
1
 10
0.0000
 20
0.0000
 30
0.0000
 40
0.2540
 41
0.2540
 70
0
  0
VERTEX
  8
16
 10
76.2000
 20
26.6700
 30
0.0000
  0
VERTEX
  8
16
 10
76.2000
 20
27.6200
 30
0.0000
  0
SEQEND
  8
0
  0
POLYLINE
  8
16
 66
1
 10
0.0000
 20
0.0000
 30
0.0000
 40
0.1270
 41
0.1270
 70
0
  0
VERTEX
  8
16
 10
76.2635
 20
27.6200
 30
0.0000
 42
1.0000
  0
VERTEX
  8
16
 10
76.1365
 20
27.6200
 30
0.0000
  0
SEQEND
  8
0
  0
POLYLINE
  8
16
 66
1
 10
0.0000
 20
0.0000
 30
0.0000
 40
0.1270
 41
0.1270
 70
0
  0
VERTEX
  8
16
 10
76.1365
 20
26.6700
 30
0.0000
 42
1.0000
  0
VERTEX
  8
16
 10
76.2635
 20
26.6700
 30
0.0000
  0
SEQEND
  8
0
  0
POLYLINE
  8
16
 66
1
 10
0.0000
 20
0.0000
 30
0.0000
 40
0.2540
 41
0.2540
 70
0
  0
VERTEX
  8
16
 10
76.2000
 20
27.6200
 30
0.0000
  0
VERTEX
  8
16
 10
76.5200
 20
27.9400
 30
0.0000
  0
SEQEND
  8
0
  0
POLYLINE
  8
16
 66
1
 10
0.0000
 20
0.0000
 30
0.0000
 40
0.1270
 41
0.1270
 70
0
  0
VERTEX
  8
16
 10
76.5649
 20
27.8951
 30
0.0000
 42
1.0000
  0
VERTEX
  8
16
 10
76.4751
 20
27.9849
 30
0.0000
  0
SEQEND
  8
0
  0
POLYLINE
  8
16
 66
1
 10
0.0000
 20
0.0000
 30
0.0000
 40
0.1270
 41
0.1270
 70
0
  0
VERTEX
  8
16
 10
76.1551
 20
27.6649
 30
0.0000
 42
1.0000
  0
VERTEX
  8
16
 10
76.2449
 20
27.5751
 30
0.0000
  0
SEQEND
  8
0
  0
POLYLINE
  8
16
 66
1
 10
0.0000
 20
0.0000
 30
0.0000
 40
0.4064
 41
0.4064
 70
0
  0
VERTEX
  8
16
 10
34.3900
 20
22.3600
 30
0.0000
  0
VERTEX
  8
16
 10
37.1300
 20
21.5900
 30
0.0000
  0
SEQEND
  8
0
  0
POLYLINE
  8
16
 66
1
 10
0.0000
 20
0.0000
 30
0.0000
 40
0.2032
 41
0.2032
 70
0
  0
VERTEX
  8
16
 10
37.1025
 20
21.4922
 30
0.0000
 42
1.0000
  0
VERTEX
  8
16
 10
37.1575
 20
21.6878
 30
0.0000
  0
SEQEND
  8
0
  0
POLYLINE
  8
16
 66
1
 10
0.0000
 20
0.0000
 30
0.0000
 40
0.2032
 41
0.2032
 70
0
  0
VERTEX
  8
16
 10
34.4175
 20
22.4578
 30
0.0000
 42
1.0000
  0
VERTEX
  8
16
 10
34.3625
 20
22.2622
 30
0.0000
  0
SEQEND
  8
0
  0
POLYLINE
  8
16
 66
1
 10
0.0000
 20
0.0000
 30
0.0000
 40
0.4064
 41
0.4064
 70
0
  0
VERTEX
  8
16
 10
34.2900
 20
16.5100
 30
0.0000
  0
VERTEX
  8
16
 10
31.7500
 20
16.5100
 30
0.0000
  0
SEQEND
  8
0
  0
POLYLINE
  8
16
 66
1
 10
0.0000
 20
0.0000
 30
0.0000
 40
0.2032
 41
0.2032
 70
0
  0
VERTEX
  8
16
 10
31.7500
 20
16.6116
 30
0.0000
 42
1.0000
  0
VERTEX
  8
16
 10
31.7500
 20
16.4084
 30
0.0000
  0
SEQEND
  8
0
  0
POLYLINE
  8
16
 66
1
 10
0.0000
 20
0.0000
 30
0.0000
 40
0.2032
 41
0.2032
 70
0
  0
VERTEX
  8
16
 10
34.2900
 20
16.4084
 30
0.0000
 42
1.0000
  0
VERTEX
  8
16
 10
34.2900
 20
16.6116
 30
0.0000
  0
SEQEND
  8
0
  0
POLYLINE
  8
16
 66
1
 10
0.0000
 20
0.0000
 30
0.0000
 40
0.4064
 41
0.4064
 70
0
  0
VERTEX
  8
16
 10
31.7500
 20
16.5100
 30
0.0000
  0
VERTEX
  8
16
 10
30.4800
 20
17.7800
 30
0.0000
  0
SEQEND
  8
0
  0
POLYLINE
  8
16
 66
1
 10
0.0000
 20
0.0000
 30
0.0000
 40
0.2032
 41
0.2032
 70
0
  0
VERTEX
  8
16
 10
30.5518
 20
17.8518
 30
0.0000
 42
1.0000
  0
VERTEX
  8
16
 10
30.4082
 20
17.7082
 30
0.0000
  0
SEQEND
  8
0
  0
POLYLINE
  8
16
 66
1
 10
0.0000
 20
0.0000
 30
0.0000
 40
0.2032
 41
0.2032
 70
0
  0
VERTEX
  8
16
 10
31.6782
 20
16.4382
 30
0.0000
 42
1.0000
  0
VERTEX
  8
16
 10
31.8218
 20
16.5818
 30
0.0000
  0
SEQEND
  8
0
  0
POLYLINE
  8
16
 66
1
 10
0.0000
 20
0.0000
 30
0.0000
 40
0.4064
 41
0.4064
 70
0
  0
VERTEX
  8
16
 10
30.4800
 20
17.7800
 30
0.0000
  0
VERTEX
  8
16
 10
30.4800
 20
25.4000
 30
0.0000
  0
SEQEND
  8
0
  0
POLYLINE
  8
16
 66
1
 10
0.0000
 20
0.0000
 30
0.0000
 40
0.2032
 41
0.2032
 70
0
  0
VERTEX
  8
16
 10
30.5816
 20
25.4000
 30
0.0000
 42
1.0000
  0
VERTEX
  8
16
 10
30.3784
 20
25.4000
 30
0.0000
  0
SEQEND
  8
0
  0
POLYLINE
  8
16
 66
1
 10
0.0000
 20
0.0000
 30
0.0000
 40
0.2032
 41
0.2032
 70
0
  0
VERTEX
  8
16
 10
30.3784
 20
17.7800
 30
0.0000
 42
1.0000
  0
VERTEX
  8
16
 10
30.5816
 20
17.7800
 30
0.0000
  0
SEQEND
  8
0
  0
POLYLINE
  8
16
 66
1
 10
0.0000
 20
0.0000
 30
0.0000
 40
0.4064
 41
0.4064
 70
0
  0
VERTEX
  8
16
 10
41.9100
 20
16.5100
 30
0.0000
  0
VERTEX
  8
16
 10
44.4500
 20
19.0500
 30
0.0000
  0
SEQEND
  8
0
  0
POLYLINE
  8
16
 66
1
 10
0.0000
 20
0.0000
 30
0.0000
 40
0.2032
 41
0.2032
 70
0
  0
VERTEX
  8
16
 10
44.5218
 20
18.9782
 30
0.0000
 42
1.0000
  0
VERTEX
  8
16
 10
44.3782
 20
19.1218
 30
0.0000
  0
SEQEND
  8
0
  0
POLYLINE
  8
16
 66
1
 10
0.0000
 20
0.0000
 30
0.0000
 40
0.2032
 41
0.2032
 70
0
  0
VERTEX
  8
16
 10
41.8382
 20
16.5818
 30
0.0000
 42
1.0000
  0
VERTEX
  8
16
 10
41.9818
 20
16.4382
 30
0.0000
  0
SEQEND
  8
0
  0
POLYLINE
  8
16
 66
1
 10
0.0000
 20
0.0000
 30
0.0000
 40
0.4064
 41
0.4064
 70
0
  0
VERTEX
  8
16
 10
44.4500
 20
19.0500
 30
0.0000
  0
VERTEX
  8
16
 10
46.6900
 20
19.0500
 30
0.0000
  0
SEQEND
  8
0
  0
POLYLINE
  8
16
 66
1
 10
0.0000
 20
0.0000
 30
0.0000
 40
0.2032
 41
0.2032
 70
0
  0
VERTEX
  8
16
 10
46.6900
 20
18.9484
 30
0.0000
 42
1.0000
  0
VERTEX
  8
16
 10
46.6900
 20
19.1516
 30
0.0000
  0
SEQEND
  8
0
  0
POLYLINE
  8
16
 66
1
 10
0.0000
 20
0.0000
 30
0.0000
 40
0.2032
 41
0.2032
 70
0
  0
VERTEX
  8
16
 10
44.4500
 20
19.1516
 30
0.0000
 42
1.0000
  0
VERTEX
  8
16
 10
44.4500
 20
18.9484
 30
0.0000
  0
SEQEND
  8
0
  0
POLYLINE
  8
16
 66
1
 10
0.0000
 20
0.0000
 30
0.0000
 40
0.4064
 41
0.4064
 70
0
  0
VERTEX
  8
16
 10
37.1300
 20
16.5100
 30
0.0000
  0
VERTEX
  8
16
 10
41.9100
 20
16.5100
 30
0.0000
  0
SEQEND
  8
0
  0
POLYLINE
  8
16
 66
1
 10
0.0000
 20
0.0000
 30
0.0000
 40
0.2032
 41
0.2032
 70
0
  0
VERTEX
  8
16
 10
41.9100
 20
16.4084
 30
0.0000
 42
1.0000
  0
VERTEX
  8
16
 10
41.9100
 20
16.6116
 30
0.0000
  0
SEQEND
  8
0
  0
POLYLINE
  8
16
 66
1
 10
0.0000
 20
0.0000
 30
0.0000
 40
0.2032
 41
0.2032
 70
0
  0
VERTEX
  8
16
 10
37.1300
 20
16.6116
 30
0.0000
 42
1.0000
  0
VERTEX
  8
16
 10
37.1300
 20
16.4084
 30
0.0000
  0
SEQEND
  8
0
  0
POLYLINE
  8
16
 66
1
 10
0.0000
 20
0.0000
 30
0.0000
 40
0.4064
 41
0.4064
 70
0
  0
VERTEX
  8
16
 10
59.1100
 20
12.0500
 30
0.0000
  0
VERTEX
  8
16
 10
58.4200
 20
11.4300
 30
0.0000
  0
SEQEND
  8
0
  0
POLYLINE
  8
16
 66
1
 10
0.0000
 20
0.0000
 30
0.0000
 40
0.2032
 41
0.2032
 70
0
  0
VERTEX
  8
16
 10
58.3521
 20
11.5056
 30
0.0000
 42
1.0000
  0
VERTEX
  8
16
 10
58.4879
 20
11.3544
 30
0.0000
  0
SEQEND
  8
0
  0
POLYLINE
  8
16
 66
1
 10
0.0000
 20
0.0000
 30
0.0000
 40
0.2032
 41
0.2032
 70
0
  0
VERTEX
  8
16
 10
59.1779
 20
11.9744
 30
0.0000
 42
1.0000
  0
VERTEX
  8
16
 10
59.0421
 20
12.1256
 30
0.0000
  0
SEQEND
  8
0
  0
POLYLINE
  8
16
 66
1
 10
0.0000
 20
0.0000
 30
0.0000
 40
0.4064
 41
0.4064
 70
0
  0
VERTEX
  8
16
 10
58.4200
 20
11.4300
 30
0.0000
  0
VERTEX
  8
16
 10
58.4200
 20
10.1600
 30
0.0000
  0
SEQEND
  8
0
  0
POLYLINE
  8
16
 66
1
 10
0.0000
 20
0.0000
 30
0.0000
 40
0.2032
 41
0.2032
 70
0
  0
VERTEX
  8
16
 10
58.3184
 20
10.1600
 30
0.0000
 42
1.0000
  0
VERTEX
  8
16
 10
58.5216
 20
10.1600
 30
0.0000
  0
SEQEND
  8
0
  0
POLYLINE
  8
16
 66
1
 10
0.0000
 20
0.0000
 30
0.0000
 40
0.2032
 41
0.2032
 70
0
  0
VERTEX
  8
16
 10
58.5216
 20
11.4300
 30
0.0000
 42
1.0000
  0
VERTEX
  8
16
 10
58.3184
 20
11.4300
 30
0.0000
  0
SEQEND
  8
0
  0
POLYLINE
  8
16
 66
1
 10
0.0000
 20
0.0000
 30
0.0000
 40
0.4064
 41
0.4064
 70
0
  0
VERTEX
  8
16
 10
58.4200
 20
10.1600
 30
0.0000
  0
VERTEX
  8
16
 10
54.6100
 20
6.3500
 30
0.0000
  0
SEQEND
  8
0
  0
POLYLINE
  8
16
 66
1
 10
0.0000
 20
0.0000
 30
0.0000
 40
0.2032
 41
0.2032
 70
0
  0
VERTEX
  8
16
 10
54.5382
 20
6.4218
 30
0.0000
 42
1.0000
  0
VERTEX
  8
16
 10
54.6818
 20
6.2782
 30
0.0000
  0
SEQEND
  8
0
  0
POLYLINE
  8
16
 66
1
 10
0.0000
 20
0.0000
 30
0.0000
 40
0.2032
 41
0.2032
 70
0
  0
VERTEX
  8
16
 10
58.4918
 20
10.0882
 30
0.0000
 42
1.0000
  0
VERTEX
  8
16
 10
58.3482
 20
10.2318
 30
0.0000
  0
SEQEND
  8
0
  0
POLYLINE
  8
16
 66
1
 10
0.0000
 20
0.0000
 30
0.0000
 40
0.4064
 41
0.4064
 70
0
  0
VERTEX
  8
16
 10
41.9100
 20
5.0800
 30
0.0000
  0
VERTEX
  8
16
 10
41.9100
 20
16.5100
 30
0.0000
  0
SEQEND
  8
0
  0
POLYLINE
  8
16
 66
1
 10
0.0000
 20
0.0000
 30
0.0000
 40
0.2032
 41
0.2032
 70
0
  0
VERTEX
  8
16
 10
42.0116
 20
16.5100
 30
0.0000
 42
1.0000
  0
VERTEX
  8
16
 10
41.8084
 20
16.5100
 30
0.0000
  0
SEQEND
  8
0
  0
POLYLINE
  8
16
 66
1
 10
0.0000
 20
0.0000
 30
0.0000
 40
0.2032
 41
0.2032
 70
0
  0
VERTEX
  8
16
 10
41.8084
 20
5.0800
 30
0.0000
 42
1.0000
  0
VERTEX
  8
16
 10
42.0116
 20
5.0800
 30
0.0000
  0
SEQEND
  8
0
  0
POLYLINE
  8
16
 66
1
 10
0.0000
 20
0.0000
 30
0.0000
 40
0.4064
 41
0.4064
 70
0
  0
VERTEX
  8
16
 10
54.6100
 20
6.3500
 30
0.0000
  0
VERTEX
  8
16
 10
54.6100
 20
5.0800
 30
0.0000
  0
SEQEND
  8
0
  0
POLYLINE
  8
16
 66
1
 10
0.0000
 20
0.0000
 30
0.0000
 40
0.2032
 41
0.2032
 70
0
  0
VERTEX
  8
16
 10
54.5084
 20
5.0800
 30
0.0000
 42
1.0000
  0
VERTEX
  8
16
 10
54.7116
 20
5.0800
 30
0.0000
  0
SEQEND
  8
0
  0
POLYLINE
  8
16
 66
1
 10
0.0000
 20
0.0000
 30
0.0000
 40
0.2032
 41
0.2032
 70
0
  0
VERTEX
  8
16
 10
54.7116
 20
6.3500
 30
0.0000
 42
1.0000
  0
VERTEX
  8
16
 10
54.5084
 20
6.3500
 30
0.0000
  0
SEQEND
  8
0
  0
POLYLINE
  8
16
 66
1
 10
0.0000
 20
0.0000
 30
0.0000
 40
0.4064
 41
0.4064
 70
0
  0
VERTEX
  8
16
 10
54.6100
 20
5.0800
 30
0.0000
  0
VERTEX
  8
16
 10
53.3400
 20
3.8100
 30
0.0000
  0
SEQEND
  8
0
  0
POLYLINE
  8
16
 66
1
 10
0.0000
 20
0.0000
 30
0.0000
 40
0.2032
 41
0.2032
 70
0
  0
VERTEX
  8
16
 10
53.2682
 20
3.8818
 30
0.0000
 42
1.0000
  0
VERTEX
  8
16
 10
53.4118
 20
3.7382
 30
0.0000
  0
SEQEND
  8
0
  0
POLYLINE
  8
16
 66
1
 10
0.0000
 20
0.0000
 30
0.0000
 40
0.2032
 41
0.2032
 70
0
  0
VERTEX
  8
16
 10
54.6818
 20
5.0082
 30
0.0000
 42
1.0000
  0
VERTEX
  8
16
 10
54.5382
 20
5.1518
 30
0.0000
  0
SEQEND
  8
0
  0
POLYLINE
  8
16
 66
1
 10
0.0000
 20
0.0000
 30
0.0000
 40
0.4064
 41
0.4064
 70
0
  0
VERTEX
  8
16
 10
53.3400
 20
3.8100
 30
0.0000
  0
VERTEX
  8
16
 10
43.1800
 20
3.8100
 30
0.0000
  0
SEQEND
  8
0
  0
POLYLINE
  8
16
 66
1
 10
0.0000
 20
0.0000
 30
0.0000
 40
0.2032
 41
0.2032
 70
0
  0
VERTEX
  8
16
 10
43.1800
 20
3.9116
 30
0.0000
 42
1.0000
  0
VERTEX
  8
16
 10
43.1800
 20
3.7084
 30
0.0000
  0
SEQEND
  8
0
  0
POLYLINE
  8
16
 66
1
 10
0.0000
 20
0.0000
 30
0.0000
 40
0.2032
 41
0.2032
 70
0
  0
VERTEX
  8
16
 10
53.3400
 20
3.7084
 30
0.0000
 42
1.0000
  0
VERTEX
  8
16
 10
53.3400
 20
3.9116
 30
0.0000
  0
SEQEND
  8
0
  0
POLYLINE
  8
16
 66
1
 10
0.0000
 20
0.0000
 30
0.0000
 40
0.4064
 41
0.4064
 70
0
  0
VERTEX
  8
16
 10
43.1800
 20
3.8100
 30
0.0000
  0
VERTEX
  8
16
 10
41.9100
 20
5.0800
 30
0.0000
  0
SEQEND
  8
0
  0
POLYLINE
  8
16
 66
1
 10
0.0000
 20
0.0000
 30
0.0000
 40
0.2032
 41
0.2032
 70
0
  0
VERTEX
  8
16
 10
41.9818
 20
5.1518
 30
0.0000
 42
1.0000
  0
VERTEX
  8
16
 10
41.8382
 20
5.0082
 30
0.0000
  0
SEQEND
  8
0
  0
POLYLINE
  8
16
 66
1
 10
0.0000
 20
0.0000
 30
0.0000
 40
0.2032
 41
0.2032
 70
0
  0
VERTEX
  8
16
 10
43.1082
 20
3.7382
 30
0.0000
 42
1.0000
  0
VERTEX
  8
16
 10
43.2518
 20
3.8818
 30
0.0000
  0
SEQEND
  8
0
  0
POLYLINE
  8
16
 66
1
 10
0.0000
 20
0.0000
 30
0.0000
 40
0.4064
 41
0.4064
 70
0
  0
VERTEX
  8
16
 10
37.1300
 20
16.5100
 30
0.0000
  0
VERTEX
  8
16
 10
34.2900
 20
16.5100
 30
0.0000
  0
SEQEND
  8
0
  0
POLYLINE
  8
16
 66
1
 10
0.0000
 20
0.0000
 30
0.0000
 40
0.2032
 41
0.2032
 70
0
  0
VERTEX
  8
16
 10
34.2900
 20
16.6116
 30
0.0000
 42
1.0000
  0
VERTEX
  8
16
 10
34.2900
 20
16.4084
 30
0.0000
  0
SEQEND
  8
0
  0
POLYLINE
  8
16
 66
1
 10
0.0000
 20
0.0000
 30
0.0000
 40
0.2032
 41
0.2032
 70
0
  0
VERTEX
  8
16
 10
37.1300
 20
16.4084
 30
0.0000
 42
1.0000
  0
VERTEX
  8
16
 10
37.1300
 20
16.6116
 30
0.0000
  0
SEQEND
  8
0
  0
INSERT
  8
18
  2
SQUAREV
 10
34.2900
 20
16.5100
 30
0.0000
 41
1.0064
 42
1.0064
 43
1.0000
 50
0.0000
  0
POLYLINE
  8
16
 66
1
 10
0.0000
 20
0.0000
 30
0.0000
 40
0.4064
 41
0.4064
 70
0
  0
VERTEX
  8
16
 10
48.2600
 20
25.4000
 30
0.0000
  0
VERTEX
  8
16
 10
48.2600
 20
27.9400
 30
0.0000
  0
SEQEND
  8
0
  0
POLYLINE
  8
16
 66
1
 10
0.0000
 20
0.0000
 30
0.0000
 40
0.2032
 41
0.2032
 70
0
  0
VERTEX
  8
16
 10
48.3616
 20
27.9400
 30
0.0000
 42
1.0000
  0
VERTEX
  8
16
 10
48.1584
 20
27.9400
 30
0.0000
  0
SEQEND
  8
0
  0
POLYLINE
  8
16
 66
1
 10
0.0000
 20
0.0000
 30
0.0000
 40
0.2032
 41
0.2032
 70
0
  0
VERTEX
  8
16
 10
48.1584
 20
25.4000
 30
0.0000
 42
1.0000
  0
VERTEX
  8
16
 10
48.3616
 20
25.4000
 30
0.0000
  0
SEQEND
  8
0
  0
INSERT
  8
18
  2
SQUAREV
 10
48.2600
 20
27.9400
 30
0.0000
 41
1.0064
 42
1.0064
 43
1.0000
 50
0.0000
  0
POLYLINE
  8
16
 66
1
 10
0.0000
 20
0.0000
 30
0.0000
 40
0.2540
 41
0.2540
 70
0
  0
VERTEX
  8
16
 10
46.6900
 20
16.5100
 30
0.0000
  0
VERTEX
  8
16
 10
48.2600
 20
16.5100
 30
0.0000
  0
SEQEND
  8
0
  0
POLYLINE
  8
16
 66
1
 10
0.0000
 20
0.0000
 30
0.0000
 40
0.1270
 41
0.1270
 70
0
  0
VERTEX
  8
16
 10
48.2600
 20
16.4465
 30
0.0000
 42
1.0000
  0
VERTEX
  8
16
 10
48.2600
 20
16.5735
 30
0.0000
  0
SEQEND
  8
0
  0
POLYLINE
  8
16
 66
1
 10
0.0000
 20
0.0000
 30
0.0000
 40
0.1270
 41
0.1270
 70
0
  0
VERTEX
  8
16
 10
46.6900
 20
16.5735
 30
0.0000
 42
1.0000
  0
VERTEX
  8
16
 10
46.6900
 20
16.4465
 30
0.0000
  0
SEQEND
  8
0
  0
POLYLINE
  8
16
 66
1
 10
0.0000
 20
0.0000
 30
0.0000
 40
0.2540
 41
0.2540
 70
0
  0
VERTEX
  8
16
 10
48.2600
 20
16.5100
 30
0.0000
  0
VERTEX
  8
16
 10
48.2600
 20
24.1300
 30
0.0000
  0
SEQEND
  8
0
  0
POLYLINE
  8
16
 66
1
 10
0.0000
 20
0.0000
 30
0.0000
 40
0.1270
 41
0.1270
 70
0
  0
VERTEX
  8
16
 10
48.3235
 20
24.1300
 30
0.0000
 42
1.0000
  0
VERTEX
  8
16
 10
48.1965
 20
24.1300
 30
0.0000
  0
SEQEND
  8
0
  0
POLYLINE
  8
16
 66
1
 10
0.0000
 20
0.0000
 30
0.0000
 40
0.1270
 41
0.1270
 70
0
  0
VERTEX
  8
16
 10
48.1965
 20
16.5100
 30
0.0000
 42
1.0000
  0
VERTEX
  8
16
 10
48.3235
 20
16.5100
 30
0.0000
  0
SEQEND
  8
0
  0
POLYLINE
  8
16
 66
1
 10
0.0000
 20
0.0000
 30
0.0000
 40
0.2540
 41
0.2540
 70
0
  0
VERTEX
  8
16
 10
48.2600
 20
24.1300
 30
0.0000
  0
VERTEX
  8
16
 10
46.9900
 20
24.1300
 30
0.0000
  0
SEQEND
  8
0
  0
POLYLINE
  8
16
 66
1
 10
0.0000
 20
0.0000
 30
0.0000
 40
0.1270
 41
0.1270
 70
0
  0
VERTEX
  8
16
 10
46.9900
 20
24.1935
 30
0.0000
 42
1.0000
  0
VERTEX
  8
16
 10
46.9900
 20
24.0665
 30
0.0000
  0
SEQEND
  8
0
  0
POLYLINE
  8
16
 66
1
 10
0.0000
 20
0.0000
 30
0.0000
 40
0.1270
 41
0.1270
 70
0
  0
VERTEX
  8
16
 10
48.2600
 20
24.0665
 30
0.0000
 42
1.0000
  0
VERTEX
  8
16
 10
48.2600
 20
24.1935
 30
0.0000
  0
SEQEND
  8
0
  0
POLYLINE
  8
16
 66
1
 10
0.0000
 20
0.0000
 30
0.0000
 40
0.2540
 41
0.2540
 70
0
  0
VERTEX
  8
16
 10
46.9900
 20
24.1300
 30
0.0000
  0
VERTEX
  8
16
 10
44.4500
 20
26.6700
 30
0.0000
  0
SEQEND
  8
0
  0
POLYLINE
  8
16
 66
1
 10
0.0000
 20
0.0000
 30
0.0000
 40
0.1270
 41
0.1270
 70
0
  0
VERTEX
  8
16
 10
44.4949
 20
26.7149
 30
0.0000
 42
1.0000
  0
VERTEX
  8
16
 10
44.4051
 20
26.6251
 30
0.0000
  0
SEQEND
  8
0
  0
POLYLINE
  8
16
 66
1
 10
0.0000
 20
0.0000
 30
0.0000
 40
0.1270
 41
0.1270
 70
0
  0
VERTEX
  8
16
 10
46.9451
 20
24.0851
 30
0.0000
 42
1.0000
  0
VERTEX
  8
16
 10
47.0349
 20
24.1749
 30
0.0000
  0
SEQEND
  8
0
  0
POLYLINE
  8
16
 66
1
 10
0.0000
 20
0.0000
 30
0.0000
 40
0.2540
 41
0.2540
 70
0
  0
VERTEX
  8
16
 10
44.4500
 20
26.6700
 30
0.0000
  0
VERTEX
  8
16
 10
40.6400
 20
26.6700
 30
0.0000
  0
SEQEND
  8
0
  0
POLYLINE
  8
16
 66
1
 10
0.0000
 20
0.0000
 30
0.0000
 40
0.1270
 41
0.1270
 70
0
  0
VERTEX
  8
16
 10
40.6400
 20
26.7335
 30
0.0000
 42
1.0000
  0
VERTEX
  8
16
 10
40.6400
 20
26.6065
 30
0.0000
  0
SEQEND
  8
0
  0
POLYLINE
  8
16
 66
1
 10
0.0000
 20
0.0000
 30
0.0000
 40
0.1270
 41
0.1270
 70
0
  0
VERTEX
  8
16
 10
44.4500
 20
26.6065
 30
0.0000
 42
1.0000
  0
VERTEX
  8
16
 10
44.4500
 20
26.7335
 30
0.0000
  0
SEQEND
  8
0
  0
POLYLINE
  8
16
 66
1
 10
0.0000
 20
0.0000
 30
0.0000
 40
0.2540
 41
0.2540
 70
0
  0
VERTEX
  8
16
 10
40.6400
 20
26.6700
 30
0.0000
  0
VERTEX
  8
16
 10
39.3700
 20
27.9400
 30
0.0000
  0
SEQEND
  8
0
  0
POLYLINE
  8
16
 66
1
 10
0.0000
 20
0.0000
 30
0.0000
 40
0.1270
 41
0.1270
 70
0
  0
VERTEX
  8
16
 10
39.4149
 20
27.9849
 30
0.0000
 42
1.0000
  0
VERTEX
  8
16
 10
39.3251
 20
27.8951
 30
0.0000
  0
SEQEND
  8
0
  0
POLYLINE
  8
16
 66
1
 10
0.0000
 20
0.0000
 30
0.0000
 40
0.1270
 41
0.1270
 70
0
  0
VERTEX
  8
16
 10
40.5951
 20
26.6251
 30
0.0000
 42
1.0000
  0
VERTEX
  8
16
 10
40.6849
 20
26.7149
 30
0.0000
  0
SEQEND
  8
0
  0
INSERT
  8
18
  2
SQUAREV
 10
39.3700
 20
27.9400
 30
0.0000
 41
1.0064
 42
1.0064
 43
1.0000
 50
0.0000
  0
POLYLINE
  8
16
 66
1
 10
0.0000
 20
0.0000
 30
0.0000
 40
0.4064
 41
0.4064
 70
0
  0
VERTEX
  8
16
 10
7.9400
 20
2.5400
 30
0.0000
  0
VERTEX
  8
16
 10
3.8350
 20
2.5400
 30
0.0000
  0
SEQEND
  8
0
  0
POLYLINE
  8
16
 66
1
 10
0.0000
 20
0.0000
 30
0.0000
 40
0.2032
 41
0.2032
 70
0
  0
VERTEX
  8
16
 10
3.8350
 20
2.6416
 30
0.0000
 42
1.0000
  0
VERTEX
  8
16
 10
3.8350
 20
2.4384
 30
0.0000
  0
SEQEND
  8
0
  0
POLYLINE
  8
16
 66
1
 10
0.0000
 20
0.0000
 30
0.0000
 40
0.2032
 41
0.2032
 70
0
  0
VERTEX
  8
16
 10
7.9400
 20
2.4384
 30
0.0000
 42
1.0000
  0
VERTEX
  8
16
 10
7.9400
 20
2.6416
 30
0.0000
  0
SEQEND
  8
0
  0
POLYLINE
  8
16
 66
1
 10
0.0000
 20
0.0000
 30
0.0000
 40
0.4064
 41
0.4064
 70
0
  0
VERTEX
  8
16
 10
7.9400
 20
12.7000
 30
0.0000
  0
VERTEX
  8
16
 10
4.1550
 20
12.3800
 30
0.0000
  0
SEQEND
  8
0
  0
POLYLINE
  8
16
 66
1
 10
0.0000
 20
0.0000
 30
0.0000
 40
0.2032
 41
0.2032
 70
0
  0
VERTEX
  8
16
 10
4.1464
 20
12.4812
 30
0.0000
 42
1.0000
  0
VERTEX
  8
16
 10
4.1636
 20
12.2788
 30
0.0000
  0
SEQEND
  8
0
  0
POLYLINE
  8
16
 66
1
 10
0.0000
 20
0.0000
 30
0.0000
 40
0.2032
 41
0.2032
 70
0
  0
VERTEX
  8
16
 10
7.9486
 20
12.5988
 30
0.0000
 42
1.0000
  0
VERTEX
  8
16
 10
7.9314
 20
12.8012
 30
0.0000
  0
SEQEND
  8
0
  0
POLYLINE
  8
16
 66
1
 10
0.0000
 20
0.0000
 30
0.0000
 40
0.4064
 41
0.4064
 70
0
  0
VERTEX
  8
16
 10
4.1550
 20
12.3800
 30
0.0000
  0
VERTEX
  8
16
 10
3.8350
 20
12.7000
 30
0.0000
  0
SEQEND
  8
0
  0
POLYLINE
  8
16
 66
1
 10
0.0000
 20
0.0000
 30
0.0000
 40
0.2032
 41
0.2032
 70
0
  0
VERTEX
  8
16
 10
3.9068
 20
12.7718
 30
0.0000
 42
1.0000
  0
VERTEX
  8
16
 10
3.7632
 20
12.6282
 30
0.0000
  0
SEQEND
  8
0
  0
POLYLINE
  8
16
 66
1
 10
0.0000
 20
0.0000
 30
0.0000
 40
0.2032
 41
0.2032
 70
0
  0
VERTEX
  8
16
 10
4.0832
 20
12.3082
 30
0.0000
 42
1.0000
  0
VERTEX
  8
16
 10
4.2268
 20
12.4518
 30
0.0000
  0
SEQEND
  8
0
  0
POLYLINE
  8
16
 66
1
 10
0.0000
 20
0.0000
 30
0.0000
 40
0.4064
 41
0.4064
 70
0
  0
VERTEX
  8
16
 10
3.8350
 20
17.7800
 30
0.0000
  0
VERTEX
  8
16
 10
7.9400
 20
17.7800
 30
0.0000
  0
SEQEND
  8
0
  0
POLYLINE
  8
16
 66
1
 10
0.0000
 20
0.0000
 30
0.0000
 40
0.2032
 41
0.2032
 70
0
  0
VERTEX
  8
16
 10
7.9400
 20
17.6784
 30
0.0000
 42
1.0000
  0
VERTEX
  8
16
 10
7.9400
 20
17.8816
 30
0.0000
  0
SEQEND
  8
0
  0
POLYLINE
  8
16
 66
1
 10
0.0000
 20
0.0000
 30
0.0000
 40
0.2032
 41
0.2032
 70
0
  0
VERTEX
  8
16
 10
3.8350
 20
17.8816
 30
0.0000
 42
1.0000
  0
VERTEX
  8
16
 10
3.8350
 20
17.6784
 30
0.0000
  0
SEQEND
  8
0
  0
POLYLINE
  8
16
 66
1
 10
0.0000
 20
0.0000
 30
0.0000
 40
0.4064
 41
0.4064
 70
0
  0
VERTEX
  8
16
 10
37.1300
 20
20.3200
 30
0.0000
  0
VERTEX
  8
16
 10
33.8900
 20
20.3200
 30
0.0000
  0
SEQEND
  8
0
  0
POLYLINE
  8
16
 66
1
 10
0.0000
 20
0.0000
 30
0.0000
 40
0.2032
 41
0.2032
 70
0
  0
VERTEX
  8
16
 10
33.8900
 20
20.4216
 30
0.0000
 42
1.0000
  0
VERTEX
  8
16
 10
33.8900
 20
20.2184
 30
0.0000
  0
SEQEND
  8
0
  0
POLYLINE
  8
16
 66
1
 10
0.0000
 20
0.0000
 30
0.0000
 40
0.2032
 41
0.2032
 70
0
  0
VERTEX
  8
16
 10
37.1300
 20
20.2184
 30
0.0000
 42
1.0000
  0
VERTEX
  8
16
 10
37.1300
 20
20.4216
 30
0.0000
  0
SEQEND
  8
0
  0
POLYLINE
  8
16
 66
1
 10
0.0000
 20
0.0000
 30
0.0000
 40
0.4064
 41
0.4064
 70
0
  0
VERTEX
  8
16
 10
33.8900
 20
20.3200
 30
0.0000
  0
VERTEX
  8
16
 10
31.7500
 20
22.4600
 30
0.0000
  0
SEQEND
  8
0
  0
POLYLINE
  8
16
 66
1
 10
0.0000
 20
0.0000
 30
0.0000
 40
0.2032
 41
0.2032
 70
0
  0
VERTEX
  8
16
 10
31.8218
 20
22.5318
 30
0.0000
 42
1.0000
  0
VERTEX
  8
16
 10
31.6782
 20
22.3882
 30
0.0000
  0
SEQEND
  8
0
  0
POLYLINE
  8
16
 66
1
 10
0.0000
 20
0.0000
 30
0.0000
 40
0.2032
 41
0.2032
 70
0
  0
VERTEX
  8
16
 10
33.8182
 20
20.2482
 30
0.0000
 42
1.0000
  0
VERTEX
  8
16
 10
33.9618
 20
20.3918
 30
0.0000
  0
SEQEND
  8
0
  0
POLYLINE
  8
16
 66
1
 10
0.0000
 20
0.0000
 30
0.0000
 40
0.4064
 41
0.4064
 70
0
  0
VERTEX
  8
16
 10
78.4200
 20
22.8600
 30
0.0000
  0
VERTEX
  8
16
 10
81.3050
 20
22.8600
 30
0.0000
  0
SEQEND
  8
0
  0
POLYLINE
  8
16
 66
1
 10
0.0000
 20
0.0000
 30
0.0000
 40
0.2032
 41
0.2032
 70
0
  0
VERTEX
  8
16
 10
81.3050
 20
22.7584
 30
0.0000
 42
1.0000
  0
VERTEX
  8
16
 10
81.3050
 20
22.9616
 30
0.0000
  0
SEQEND
  8
0
  0
POLYLINE
  8
16
 66
1
 10
0.0000
 20
0.0000
 30
0.0000
 40
0.2032
 41
0.2032
 70
0
  0
VERTEX
  8
16
 10
78.4200
 20
22.9616
 30
0.0000
 42
1.0000
  0
VERTEX
  8
16
 10
78.4200
 20
22.7584
 30
0.0000
  0
SEQEND
  8
0
  0
POLYLINE
  8
16
 66
1
 10
0.0000
 20
0.0000
 30
0.0000
 40
0.4064
 41
0.4064
 70
0
  0
VERTEX
  8
16
 10
78.4200
 20
17.7800
 30
0.0000
  0
VERTEX
  8
16
 10
81.3050
 20
17.7800
 30
0.0000
  0
SEQEND
  8
0
  0
POLYLINE
  8
16
 66
1
 10
0.0000
 20
0.0000
 30
0.0000
 40
0.2032
 41
0.2032
 70
0
  0
VERTEX
  8
16
 10
81.3050
 20
17.6784
 30
0.0000
 42
1.0000
  0
VERTEX
  8
16
 10
81.3050
 20
17.8816
 30
0.0000
  0
SEQEND
  8
0
  0
POLYLINE
  8
16
 66
1
 10
0.0000
 20
0.0000
 30
0.0000
 40
0.2032
 41
0.2032
 70
0
  0
VERTEX
  8
16
 10
78.4200
 20
17.8816
 30
0.0000
 42
1.0000
  0
VERTEX
  8
16
 10
78.4200
 20
17.6784
 30
0.0000
  0
SEQEND
  8
0
  0
POLYLINE
  8
16
 66
1
 10
0.0000
 20
0.0000
 30
0.0000
 40
0.4064
 41
0.4064
 70
0
  0
VERTEX
  8
16
 10
77.1500
 20
8.8900
 30
0.0000
  0
VERTEX
  8
16
 10
79.0850
 20
11.1100
 30
0.0000
  0
SEQEND
  8
0
  0
POLYLINE
  8
16
 66
1
 10
0.0000
 20
0.0000
 30
0.0000
 40
0.2032
 41
0.2032
 70
0
  0
VERTEX
  8
16
 10
79.1616
 20
11.0432
 30
0.0000
 42
1.0000
  0
VERTEX
  8
16
 10
79.0084
 20
11.1768
 30
0.0000
  0
SEQEND
  8
0
  0
POLYLINE
  8
16
 66
1
 10
0.0000
 20
0.0000
 30
0.0000
 40
0.2032
 41
0.2032
 70
0
  0
VERTEX
  8
16
 10
77.0734
 20
8.9568
 30
0.0000
 42
1.0000
  0
VERTEX
  8
16
 10
77.2266
 20
8.8232
 30
0.0000
  0
SEQEND
  8
0
  0
POLYLINE
  8
16
 66
1
 10
0.0000
 20
0.0000
 30
0.0000
 40
0.4064
 41
0.4064
 70
0
  0
VERTEX
  8
16
 10
79.0850
 20
11.1100
 30
0.0000
  0
VERTEX
  8
16
 10
81.3050
 20
12.7000
 30
0.0000
  0
SEQEND
  8
0
  0
POLYLINE
  8
16
 66
1
 10
0.0000
 20
0.0000
 30
0.0000
 40
0.2032
 41
0.2032
 70
0
  0
VERTEX
  8
16
 10
81.3642
 20
12.6174
 30
0.0000
 42
1.0000
  0
VERTEX
  8
16
 10
81.2458
 20
12.7826
 30
0.0000
  0
SEQEND
  8
0
  0
POLYLINE
  8
16
 66
1
 10
0.0000
 20
0.0000
 30
0.0000
 40
0.2032
 41
0.2032
 70
0
  0
VERTEX
  8
16
 10
79.0258
 20
11.1926
 30
0.0000
 42
1.0000
  0
VERTEX
  8
16
 10
79.1442
 20
11.0274
 30
0.0000
  0
SEQEND
  8
0
  0
POLYLINE
  8
16
 66
1
 10
0.0000
 20
0.0000
 30
0.0000
 40
0.4064
 41
0.4064
 70
0
  0
VERTEX
  8
16
 10
7.9400
 20
7.6200
 30
0.0000
  0
VERTEX
  8
16
 10
5.0800
 20
7.6200
 30
0.0000
  0
SEQEND
  8
0
  0
POLYLINE
  8
16
 66
1
 10
0.0000
 20
0.0000
 30
0.0000
 40
0.2032
 41
0.2032
 70
0
  0
VERTEX
  8
16
 10
5.0800
 20
7.7216
 30
0.0000
 42
1.0000
  0
VERTEX
  8
16
 10
5.0800
 20
7.5184
 30
0.0000
  0
SEQEND
  8
0
  0
POLYLINE
  8
16
 66
1
 10
0.0000
 20
0.0000
 30
0.0000
 40
0.2032
 41
0.2032
 70
0
  0
VERTEX
  8
16
 10
7.9400
 20
7.5184
 30
0.0000
 42
1.0000
  0
VERTEX
  8
16
 10
7.9400
 20
7.7216
 30
0.0000
  0
SEQEND
  8
0
  0
POLYLINE
  8
16
 66
1
 10
0.0000
 20
0.0000
 30
0.0000
 40
0.4064
 41
0.4064
 70
0
  0
VERTEX
  8
16
 10
5.0800
 20
7.6200
 30
0.0000
  0
VERTEX
  8
16
 10
5.1050
 20
7.5950
 30
0.0000
  0
SEQEND
  8
0
  0
POLYLINE
  8
16
 66
1
 10
0.0000
 20
0.0000
 30
0.0000
 40
0.2032
 41
0.2032
 70
0
  0
VERTEX
  8
16
 10
5.0332
 20
7.5232
 30
0.0000
 42
1.0000
  0
VERTEX
  8
16
 10
5.1768
 20
7.6668
 30
0.0000
  0
SEQEND
  8
0
  0
POLYLINE
  8
16
 66
1
 10
0.0000
 20
0.0000
 30
0.0000
 40
0.2032
 41
0.2032
 70
0
  0
VERTEX
  8
16
 10
5.1518
 20
7.6918
 30
0.0000
 42
1.0000
  0
VERTEX
  8
16
 10
5.0082
 20
7.5482
 30
0.0000
  0
SEQEND
  8
0
  0
POLYLINE
  8
16
 66
1
 10
0.0000
 20
0.0000
 30
0.0000
 40
0.4064
 41
0.4064
 70
0
  0
VERTEX
  8
16
 10
5.1050
 20
7.5950
 30
0.0000
  0
VERTEX
  8
16
 10
3.8350
 20
7.6200
 30
0.0000
  0
SEQEND
  8
0
  0
POLYLINE
  8
16
 66
1
 10
0.0000
 20
0.0000
 30
0.0000
 40
0.2032
 41
0.2032
 70
0
  0
VERTEX
  8
16
 10
3.8370
 20
7.7216
 30
0.0000
 42
1.0000
  0
VERTEX
  8
16
 10
3.8330
 20
7.5184
 30
0.0000
  0
SEQEND
  8
0
  0
POLYLINE
  8
16
 66
1
 10
0.0000
 20
0.0000
 30
0.0000
 40
0.2032
 41
0.2032
 70
0
  0
VERTEX
  8
16
 10
5.1030
 20
7.4934
 30
0.0000
 42
1.0000
  0
VERTEX
  8
16
 10
5.1070
 20
7.6966
 30
0.0000
  0
SEQEND
  8
0
  0
POLYLINE
  8
16
 66
1
 10
0.0000
 20
0.0000
 30
0.0000
 40
0.4064
 41
0.4064
 70
0
  0
VERTEX
  8
16
 10
78.4200
 20
27.9400
 30
0.0000
  0
VERTEX
  8
16
 10
81.3050
 20
27.9400
 30
0.0000
  0
SEQEND
  8
0
  0
POLYLINE
  8
16
 66
1
 10
0.0000
 20
0.0000
 30
0.0000
 40
0.2032
 41
0.2032
 70
0
  0
VERTEX
  8
16
 10
81.3050
 20
27.8384
 30
0.0000
 42
1.0000
  0
VERTEX
  8
16
 10
81.3050
 20
28.0416
 30
0.0000
  0
SEQEND
  8
0
  0
POLYLINE
  8
16
 66
1
 10
0.0000
 20
0.0000
 30
0.0000
 40
0.2032
 41
0.2032
 70
0
  0
VERTEX
  8
16
 10
78.4200
 20
28.0416
 30
0.0000
 42
1.0000
  0
VERTEX
  8
16
 10
78.4200
 20
27.8384
 30
0.0000
  0
SEQEND
  8
0
  0
POLYLINE
  8
16
 66
1
 10
0.0000
 20
0.0000
 30
0.0000
 40
0.4064
 41
0.4064
 70
0
  0
VERTEX
  8
16
 10
3.8350
 20
22.8600
 30
0.0000
  0
VERTEX
  8
16
 10
7.9400
 20
22.8600
 30
0.0000
  0
SEQEND
  8
0
  0
POLYLINE
  8
16
 66
1
 10
0.0000
 20
0.0000
 30
0.0000
 40
0.2032
 41
0.2032
 70
0
  0
VERTEX
  8
16
 10
7.9400
 20
22.7584
 30
0.0000
 42
1.0000
  0
VERTEX
  8
16
 10
7.9400
 20
22.9616
 30
0.0000
  0
SEQEND
  8
0
  0
POLYLINE
  8
16
 66
1
 10
0.0000
 20
0.0000
 30
0.0000
 40
0.2032
 41
0.2032
 70
0
  0
VERTEX
  8
16
 10
3.8350
 20
22.9616
 30
0.0000
 42
1.0000
  0
VERTEX
  8
16
 10
3.8350
 20
22.7584
 30
0.0000
  0
SEQEND
  8
0
  0
POLYLINE
  8
16
 66
1
 10
0.0000
 20
0.0000
 30
0.0000
 40
0.4064
 41
0.4064
 70
0
  0
VERTEX
  8
16
 10
64.7700
 20
27.6200
 30
0.0000
  0
VERTEX
  8
16
 10
63.5000
 20
29.2100
 30
0.0000
  0
SEQEND
  8
0
  0
POLYLINE
  8
16
 66
1
 10
0.0000
 20
0.0000
 30
0.0000
 40
0.2032
 41
0.2032
 70
0
  0
VERTEX
  8
16
 10
63.5794
 20
29.2734
 30
0.0000
 42
1.0000
  0
VERTEX
  8
16
 10
63.4206
 20
29.1466
 30
0.0000
  0
SEQEND
  8
0
  0
POLYLINE
  8
16
 66
1
 10
0.0000
 20
0.0000
 30
0.0000
 40
0.2032
 41
0.2032
 70
0
  0
VERTEX
  8
16
 10
64.6906
 20
27.5566
 30
0.0000
 42
1.0000
  0
VERTEX
  8
16
 10
64.8494
 20
27.6834
 30
0.0000
  0
SEQEND
  8
0
  0
POLYLINE
  8
16
 66
1
 10
0.0000
 20
0.0000
 30
0.0000
 40
0.4064
 41
0.4064
 70
0
  0
VERTEX
  8
16
 10
63.5000
 20
29.2100
 30
0.0000
  0
VERTEX
  8
16
 10
3.8100
 20
29.2100
 30
0.0000
  0
SEQEND
  8
0
  0
POLYLINE
  8
16
 66
1
 10
0.0000
 20
0.0000
 30
0.0000
 40
0.2032
 41
0.2032
 70
0
  0
VERTEX
  8
16
 10
3.8100
 20
29.3116
 30
0.0000
 42
1.0000
  0
VERTEX
  8
16
 10
3.8100
 20
29.1084
 30
0.0000
  0
SEQEND
  8
0
  0
POLYLINE
  8
16
 66
1
 10
0.0000
 20
0.0000
 30
0.0000
 40
0.2032
 41
0.2032
 70
0
  0
VERTEX
  8
16
 10
63.5000
 20
29.1084
 30
0.0000
 42
1.0000
  0
VERTEX
  8
16
 10
63.5000
 20
29.3116
 30
0.0000
  0
SEQEND
  8
0
  0
POLYLINE
  8
16
 66
1
 10
0.0000
 20
0.0000
 30
0.0000
 40
0.4064
 41
0.4064
 70
0
  0
VERTEX
  8
16
 10
3.8100
 20
29.2100
 30
0.0000
  0
VERTEX
  8
16
 10
3.8350
 20
27.9400
 30
0.0000
  0
SEQEND
  8
0
  0
POLYLINE
  8
16
 66
1
 10
0.0000
 20
0.0000
 30
0.0000
 40
0.2032
 41
0.2032
 70
0
  0
VERTEX
  8
16
 10
3.7334
 20
27.9380
 30
0.0000
 42
1.0000
  0
VERTEX
  8
16
 10
3.9366
 20
27.9420
 30
0.0000
  0
SEQEND
  8
0
  0
POLYLINE
  8
16
 66
1
 10
0.0000
 20
0.0000
 30
0.0000
 40
0.2032
 41
0.2032
 70
0
  0
VERTEX
  8
16
 10
3.9116
 20
29.2120
 30
0.0000
 42
1.0000
  0
VERTEX
  8
16
 10
3.7084
 20
29.2080
 30
0.0000
  0
SEQEND
  8
0
  0
POLYLINE
  8
16
 66
1
 10
0.0000
 20
0.0000
 30
0.0000
 40
0.2540
 41
0.2540
 70
0
  0
VERTEX
  8
16
 10
62.2950
 20
21.5900
 30
0.0000
  0
VERTEX
  8
16
 10
52.0700
 20
21.5900
 30
0.0000
  0
SEQEND
  8
0
  0
POLYLINE
  8
16
 66
1
 10
0.0000
 20
0.0000
 30
0.0000
 40
0.1270
 41
0.1270
 70
0
  0
VERTEX
  8
16
 10
52.0700
 20
21.6535
 30
0.0000
 42
1.0000
  0
VERTEX
  8
16
 10
52.0700
 20
21.5265
 30
0.0000
  0
SEQEND
  8
0
  0
POLYLINE
  8
16
 66
1
 10
0.0000
 20
0.0000
 30
0.0000
 40
0.1270
 41
0.1270
 70
0
  0
VERTEX
  8
16
 10
62.2950
 20
21.5265
 30
0.0000
 42
1.0000
  0
VERTEX
  8
16
 10
62.2950
 20
21.6535
 30
0.0000
  0
SEQEND
  8
0
  0
POLYLINE
  8
16
 66
1
 10
0.0000
 20
0.0000
 30
0.0000
 40
0.2540
 41
0.2540
 70
0
  0
VERTEX
  8
16
 10
52.0700
 20
21.5900
 30
0.0000
  0
VERTEX
  8
16
 10
50.8000
 20
20.3200
 30
0.0000
  0
SEQEND
  8
0
  0
POLYLINE
  8
16
 66
1
 10
0.0000
 20
0.0000
 30
0.0000
 40
0.1270
 41
0.1270
 70
0
  0
VERTEX
  8
16
 10
50.7551
 20
20.3649
 30
0.0000
 42
1.0000
  0
VERTEX
  8
16
 10
50.8449
 20
20.2751
 30
0.0000
  0
SEQEND
  8
0
  0
POLYLINE
  8
16
 66
1
 10
0.0000
 20
0.0000
 30
0.0000
 40
0.1270
 41
0.1270
 70
0
  0
VERTEX
  8
16
 10
52.1149
 20
21.5451
 30
0.0000
 42
1.0000
  0
VERTEX
  8
16
 10
52.0251
 20
21.6349
 30
0.0000
  0
SEQEND
  8
0
  0
POLYLINE
  8
16
 66
1
 10
0.0000
 20
0.0000
 30
0.0000
 40
0.2540
 41
0.2540
 70
0
  0
VERTEX
  8
16
 10
50.8000
 20
20.3200
 30
0.0000
  0
VERTEX
  8
16
 10
50.8000
 20
13.9700
 30
0.0000
  0
SEQEND
  8
0
  0
POLYLINE
  8
16
 66
1
 10
0.0000
 20
0.0000
 30
0.0000
 40
0.1270
 41
0.1270
 70
0
  0
VERTEX
  8
16
 10
50.7365
 20
13.9700
 30
0.0000
 42
1.0000
  0
VERTEX
  8
16
 10
50.8635
 20
13.9700
 30
0.0000
  0
SEQEND
  8
0
  0
POLYLINE
  8
16
 66
1
 10
0.0000
 20
0.0000
 30
0.0000
 40
0.1270
 41
0.1270
 70
0
  0
VERTEX
  8
16
 10
50.8635
 20
20.3200
 30
0.0000
 42
1.0000
  0
VERTEX
  8
16
 10
50.7365
 20
20.3200
 30
0.0000
  0
SEQEND
  8
0
  0
POLYLINE
  8
16
 66
1
 10
0.0000
 20
0.0000
 30
0.0000
 40
0.2540
 41
0.2540
 70
0
  0
VERTEX
  8
16
 10
50.8000
 20
13.9700
 30
0.0000
  0
VERTEX
  8
16
 10
46.6900
 20
13.9700
 30
0.0000
  0
SEQEND
  8
0
  0
POLYLINE
  8
16
 66
1
 10
0.0000
 20
0.0000
 30
0.0000
 40
0.1270
 41
0.1270
 70
0
  0
VERTEX
  8
16
 10
46.6900
 20
14.0335
 30
0.0000
 42
1.0000
  0
VERTEX
  8
16
 10
46.6900
 20
13.9065
 30
0.0000
  0
SEQEND
  8
0
  0
POLYLINE
  8
16
 66
1
 10
0.0000
 20
0.0000
 30
0.0000
 40
0.1270
 41
0.1270
 70
0
  0
VERTEX
  8
16
 10
50.8000
 20
13.9065
 30
0.0000
 42
1.0000
  0
VERTEX
  8
16
 10
50.8000
 20
14.0335
 30
0.0000
  0
SEQEND
  8
0
  0
POLYLINE
  8
16
 66
1
 10
0.0000
 20
0.0000
 30
0.0000
 40
0.2540
 41
0.2540
 70
0
  0
VERTEX
  8
16
 10
46.6900
 20
12.7000
 30
0.0000
  0
VERTEX
  8
16
 10
52.0700
 20
12.7000
 30
0.0000
  0
SEQEND
  8
0
  0
POLYLINE
  8
16
 66
1
 10
0.0000
 20
0.0000
 30
0.0000
 40
0.1270
 41
0.1270
 70
0
  0
VERTEX
  8
16
 10
52.0700
 20
12.6365
 30
0.0000
 42
1.0000
  0
VERTEX
  8
16
 10
52.0700
 20
12.7635
 30
0.0000
  0
SEQEND
  8
0
  0
POLYLINE
  8
16
 66
1
 10
0.0000
 20
0.0000
 30
0.0000
 40
0.1270
 41
0.1270
 70
0
  0
VERTEX
  8
16
 10
46.6900
 20
12.7635
 30
0.0000
 42
1.0000
  0
VERTEX
  8
16
 10
46.6900
 20
12.6365
 30
0.0000
  0
SEQEND
  8
0
  0
POLYLINE
  8
16
 66
1
 10
0.0000
 20
0.0000
 30
0.0000
 40
0.2540
 41
0.2540
 70
0
  0
VERTEX
  8
16
 10
52.0700
 20
12.7000
 30
0.0000
  0
VERTEX
  8
16
 10
55.8800
 20
16.5100
 30
0.0000
  0
SEQEND
  8
0
  0
POLYLINE
  8
16
 66
1
 10
0.0000
 20
0.0000
 30
0.0000
 40
0.1270
 41
0.1270
 70
0
  0
VERTEX
  8
16
 10
55.9249
 20
16.4651
 30
0.0000
 42
1.0000
  0
VERTEX
  8
16
 10
55.8351
 20
16.5549
 30
0.0000
  0
SEQEND
  8
0
  0
POLYLINE
  8
16
 66
1
 10
0.0000
 20
0.0000
 30
0.0000
 40
0.1270
 41
0.1270
 70
0
  0
VERTEX
  8
16
 10
52.0251
 20
12.7449
 30
0.0000
 42
1.0000
  0
VERTEX
  8
16
 10
52.1149
 20
12.6551
 30
0.0000
  0
SEQEND
  8
0
  0
POLYLINE
  8
16
 66
1
 10
0.0000
 20
0.0000
 30
0.0000
 40
0.2540
 41
0.2540
 70
0
  0
VERTEX
  8
16
 10
55.8800
 20
16.5100
 30
0.0000
  0
VERTEX
  8
16
 10
62.2950
 20
16.5100
 30
0.0000
  0
SEQEND
  8
0
  0
POLYLINE
  8
16
 66
1
 10
0.0000
 20
0.0000
 30
0.0000
 40
0.1270
 41
0.1270
 70
0
  0
VERTEX
  8
16
 10
62.2950
 20
16.4465
 30
0.0000
 42
1.0000
  0
VERTEX
  8
16
 10
62.2950
 20
16.5735
 30
0.0000
  0
SEQEND
  8
0
  0
POLYLINE
  8
16
 66
1
 10
0.0000
 20
0.0000
 30
0.0000
 40
0.1270
 41
0.1270
 70
0
  0
VERTEX
  8
16
 10
55.8800
 20
16.5735
 30
0.0000
 42
1.0000
  0
VERTEX
  8
16
 10
55.8800
 20
16.4465
 30
0.0000
  0
SEQEND
  8
0
  0
POLYLINE
  8
16
 66
1
 10
0.0000
 20
0.0000
 30
0.0000
 40
0.2540
 41
0.2540
 70
0
  0
VERTEX
  8
16
 10
62.2950
 20
11.4300
 30
0.0000
  0
VERTEX
  8
16
 10
60.9600
 20
11.4300
 30
0.0000
  0
SEQEND
  8
0
  0
POLYLINE
  8
16
 66
1
 10
0.0000
 20
0.0000
 30
0.0000
 40
0.1270
 41
0.1270
 70
0
  0
VERTEX
  8
16
 10
60.9600
 20
11.4935
 30
0.0000
 42
1.0000
  0
VERTEX
  8
16
 10
60.9600
 20
11.3665
 30
0.0000
  0
SEQEND
  8
0
  0
POLYLINE
  8
16
 66
1
 10
0.0000
 20
0.0000
 30
0.0000
 40
0.1270
 41
0.1270
 70
0
  0
VERTEX
  8
16
 10
62.2950
 20
11.3665
 30
0.0000
 42
1.0000
  0
VERTEX
  8
16
 10
62.2950
 20
11.4935
 30
0.0000
  0
SEQEND
  8
0
  0
POLYLINE
  8
16
 66
1
 10
0.0000
 20
0.0000
 30
0.0000
 40
0.2540
 41
0.2540
 70
0
  0
VERTEX
  8
16
 10
60.9600
 20
11.4300
 30
0.0000
  0
VERTEX
  8
16
 10
60.9600
 20
12.7000
 30
0.0000
  0
SEQEND
  8
0
  0
POLYLINE
  8
16
 66
1
 10
0.0000
 20
0.0000
 30
0.0000
 40
0.1270
 41
0.1270
 70
0
  0
VERTEX
  8
16
 10
61.0235
 20
12.7000
 30
0.0000
 42
1.0000
  0
VERTEX
  8
16
 10
60.8965
 20
12.7000
 30
0.0000
  0
SEQEND
  8
0
  0
POLYLINE
  8
16
 66
1
 10
0.0000
 20
0.0000
 30
0.0000
 40
0.1270
 41
0.1270
 70
0
  0
VERTEX
  8
16
 10
60.8965
 20
11.4300
 30
0.0000
 42
1.0000
  0
VERTEX
  8
16
 10
61.0235
 20
11.4300
 30
0.0000
  0
SEQEND
  8
0
  0
POLYLINE
  8
16
 66
1
 10
0.0000
 20
0.0000
 30
0.0000
 40
0.2540
 41
0.2540
 70
0
  0
VERTEX
  8
16
 10
60.9600
 20
12.7000
 30
0.0000
  0
VERTEX
  8
16
 10
59.6900
 20
13.9700
 30
0.0000
  0
SEQEND
  8
0
  0
POLYLINE
  8
16
 66
1
 10
0.0000
 20
0.0000
 30
0.0000
 40
0.1270
 41
0.1270
 70
0
  0
VERTEX
  8
16
 10
59.7349
 20
14.0149
 30
0.0000
 42
1.0000
  0
VERTEX
  8
16
 10
59.6451
 20
13.9251
 30
0.0000
  0
SEQEND
  8
0
  0
POLYLINE
  8
16
 66
1
 10
0.0000
 20
0.0000
 30
0.0000
 40
0.1270
 41
0.1270
 70
0
  0
VERTEX
  8
16
 10
60.9151
 20
12.6551
 30
0.0000
 42
1.0000
  0
VERTEX
  8
16
 10
61.0049
 20
12.7449
 30
0.0000
  0
SEQEND
  8
0
  0
POLYLINE
  8
16
 66
1
 10
0.0000
 20
0.0000
 30
0.0000
 40
0.2540
 41
0.2540
 70
0
  0
VERTEX
  8
16
 10
59.6900
 20
13.9700
 30
0.0000
  0
VERTEX
  8
16
 10
55.8800
 20
13.9700
 30
0.0000
  0
SEQEND
  8
0
  0
POLYLINE
  8
16
 66
1
 10
0.0000
 20
0.0000
 30
0.0000
 40
0.1270
 41
0.1270
 70
0
  0
VERTEX
  8
16
 10
55.8800
 20
14.0335
 30
0.0000
 42
1.0000
  0
VERTEX
  8
16
 10
55.8800
 20
13.9065
 30
0.0000
  0
SEQEND
  8
0
  0
POLYLINE
  8
16
 66
1
 10
0.0000
 20
0.0000
 30
0.0000
 40
0.1270
 41
0.1270
 70
0
  0
VERTEX
  8
16
 10
59.6900
 20
13.9065
 30
0.0000
 42
1.0000
  0
VERTEX
  8
16
 10
59.6900
 20
14.0335
 30
0.0000
  0
SEQEND
  8
0
  0
POLYLINE
  8
16
 66
1
 10
0.0000
 20
0.0000
 30
0.0000
 40
0.2540
 41
0.2540
 70
0
  0
VERTEX
  8
16
 10
55.8800
 20
13.9700
 30
0.0000
  0
VERTEX
  8
16
 10
53.3400
 20
11.4300
 30
0.0000
  0
SEQEND
  8
0
  0
POLYLINE
  8
16
 66
1
 10
0.0000
 20
0.0000
 30
0.0000
 40
0.1270
 41
0.1270
 70
0
  0
VERTEX
  8
16
 10
53.2951
 20
11.4749
 30
0.0000
 42
1.0000
  0
VERTEX
  8
16
 10
53.3849
 20
11.3851
 30
0.0000
  0
SEQEND
  8
0
  0
POLYLINE
  8
16
 66
1
 10
0.0000
 20
0.0000
 30
0.0000
 40
0.1270
 41
0.1270
 70
0
  0
VERTEX
  8
16
 10
55.9249
 20
13.9251
 30
0.0000
 42
1.0000
  0
VERTEX
  8
16
 10
55.8351
 20
14.0149
 30
0.0000
  0
SEQEND
  8
0
  0
POLYLINE
  8
16
 66
1
 10
0.0000
 20
0.0000
 30
0.0000
 40
0.2540
 41
0.2540
 70
0
  0
VERTEX
  8
16
 10
53.3400
 20
11.4300
 30
0.0000
  0
VERTEX
  8
16
 10
46.6900
 20
11.4300
 30
0.0000
  0
SEQEND
  8
0
  0
POLYLINE
  8
16
 66
1
 10
0.0000
 20
0.0000
 30
0.0000
 40
0.1270
 41
0.1270
 70
0
  0
VERTEX
  8
16
 10
46.6900
 20
11.4935
 30
0.0000
 42
1.0000
  0
VERTEX
  8
16
 10
46.6900
 20
11.3665
 30
0.0000
  0
SEQEND
  8
0
  0
POLYLINE
  8
16
 66
1
 10
0.0000
 20
0.0000
 30
0.0000
 40
0.1270
 41
0.1270
 70
0
  0
VERTEX
  8
16
 10
53.3400
 20
11.3665
 30
0.0000
 42
1.0000
  0
VERTEX
  8
16
 10
53.3400
 20
11.4935
 30
0.0000
  0
SEQEND
  8
0
  0
POLYLINE
  8
16
 66
1
 10
0.0000
 20
0.0000
 30
0.0000
 40
0.2540
 41
0.2540
 70
0
  0
VERTEX
  8
16
 10
62.2950
 20
6.3500
 30
0.0000
  0
VERTEX
  8
16
 10
59.6900
 20
6.3500
 30
0.0000
  0
SEQEND
  8
0
  0
POLYLINE
  8
16
 66
1
 10
0.0000
 20
0.0000
 30
0.0000
 40
0.1270
 41
0.1270
 70
0
  0
VERTEX
  8
16
 10
59.6900
 20
6.4135
 30
0.0000
 42
1.0000
  0
VERTEX
  8
16
 10
59.6900
 20
6.2865
 30
0.0000
  0
SEQEND
  8
0
  0
POLYLINE
  8
16
 66
1
 10
0.0000
 20
0.0000
 30
0.0000
 40
0.1270
 41
0.1270
 70
0
  0
VERTEX
  8
16
 10
62.2950
 20
6.2865
 30
0.0000
 42
1.0000
  0
VERTEX
  8
16
 10
62.2950
 20
6.4135
 30
0.0000
  0
SEQEND
  8
0
  0
POLYLINE
  8
16
 66
1
 10
0.0000
 20
0.0000
 30
0.0000
 40
0.2540
 41
0.2540
 70
0
  0
VERTEX
  8
16
 10
59.6900
 20
6.3500
 30
0.0000
  0
VERTEX
  8
16
 10
55.8800
 20
2.5400
 30
0.0000
  0
SEQEND
  8
0
  0
POLYLINE
  8
16
 66
1
 10
0.0000
 20
0.0000
 30
0.0000
 40
0.1270
 41
0.1270
 70
0
  0
VERTEX
  8
16
 10
55.8351
 20
2.5849
 30
0.0000
 42
1.0000
  0
VERTEX
  8
16
 10
55.9249
 20
2.4951
 30
0.0000
  0
SEQEND
  8
0
  0
POLYLINE
  8
16
 66
1
 10
0.0000
 20
0.0000
 30
0.0000
 40
0.1270
 41
0.1270
 70
0
  0
VERTEX
  8
16
 10
59.7349
 20
6.3051
 30
0.0000
 42
1.0000
  0
VERTEX
  8
16
 10
59.6451
 20
6.3949
 30
0.0000
  0
SEQEND
  8
0
  0
POLYLINE
  8
16
 66
1
 10
0.0000
 20
0.0000
 30
0.0000
 40
0.2540
 41
0.2540
 70
0
  0
VERTEX
  8
16
 10
55.8800
 20
2.5400
 30
0.0000
  0
VERTEX
  8
16
 10
34.2900
 20
2.5400
 30
0.0000
  0
SEQEND
  8
0
  0
POLYLINE
  8
16
 66
1
 10
0.0000
 20
0.0000
 30
0.0000
 40
0.1270
 41
0.1270
 70
0
  0
VERTEX
  8
16
 10
34.2900
 20
2.6035
 30
0.0000
 42
1.0000
  0
VERTEX
  8
16
 10
34.2900
 20
2.4765
 30
0.0000
  0
SEQEND
  8
0
  0
POLYLINE
  8
16
 66
1
 10
0.0000
 20
0.0000
 30
0.0000
 40
0.1270
 41
0.1270
 70
0
  0
VERTEX
  8
16
 10
55.8800
 20
2.4765
 30
0.0000
 42
1.0000
  0
VERTEX
  8
16
 10
55.8800
 20
2.6035
 30
0.0000
  0
SEQEND
  8
0
  0
POLYLINE
  8
16
 66
1
 10
0.0000
 20
0.0000
 30
0.0000
 40
0.2540
 41
0.2540
 70
0
  0
VERTEX
  8
16
 10
34.2900
 20
2.5400
 30
0.0000
  0
VERTEX
  8
16
 10
33.0200
 20
3.8100
 30
0.0000
  0
SEQEND
  8
0
  0
POLYLINE
  8
16
 66
1
 10
0.0000
 20
0.0000
 30
0.0000
 40
0.1270
 41
0.1270
 70
0
  0
VERTEX
  8
16
 10
33.0649
 20
3.8549
 30
0.0000
 42
1.0000
  0
VERTEX
  8
16
 10
32.9751
 20
3.7651
 30
0.0000
  0
SEQEND
  8
0
  0
POLYLINE
  8
16
 66
1
 10
0.0000
 20
0.0000
 30
0.0000
 40
0.1270
 41
0.1270
 70
0
  0
VERTEX
  8
16
 10
34.2451
 20
2.4951
 30
0.0000
 42
1.0000
  0
VERTEX
  8
16
 10
34.3349
 20
2.5849
 30
0.0000
  0
SEQEND
  8
0
  0
POLYLINE
  8
16
 66
1
 10
0.0000
 20
0.0000
 30
0.0000
 40
0.2540
 41
0.2540
 70
0
  0
VERTEX
  8
16
 10
33.0200
 20
3.8100
 30
0.0000
  0
VERTEX
  8
16
 10
33.0200
 20
5.0800
 30
0.0000
  0
SEQEND
  8
0
  0
POLYLINE
  8
16
 66
1
 10
0.0000
 20
0.0000
 30
0.0000
 40
0.1270
 41
0.1270
 70
0
  0
VERTEX
  8
16
 10
33.0835
 20
5.0800
 30
0.0000
 42
1.0000
  0
VERTEX
  8
16
 10
32.9565
 20
5.0800
 30
0.0000
  0
SEQEND
  8
0
  0
POLYLINE
  8
16
 66
1
 10
0.0000
 20
0.0000
 30
0.0000
 40
0.1270
 41
0.1270
 70
0
  0
VERTEX
  8
16
 10
32.9565
 20
3.8100
 30
0.0000
 42
1.0000
  0
VERTEX
  8
16
 10
33.0835
 20
3.8100
 30
0.0000
  0
SEQEND
  8
0
  0
POLYLINE
  8
16
 66
1
 10
0.0000
 20
0.0000
 30
0.0000
 40
0.2540
 41
0.2540
 70
0
  0
VERTEX
  8
16
 10
33.0200
 20
5.0800
 30
0.0000
  0
VERTEX
  8
16
 10
34.2900
 20
6.3500
 30
0.0000
  0
SEQEND
  8
0
  0
POLYLINE
  8
16
 66
1
 10
0.0000
 20
0.0000
 30
0.0000
 40
0.1270
 41
0.1270
 70
0
  0
VERTEX
  8
16
 10
34.3349
 20
6.3051
 30
0.0000
 42
1.0000
  0
VERTEX
  8
16
 10
34.2451
 20
6.3949
 30
0.0000
  0
SEQEND
  8
0
  0
POLYLINE
  8
16
 66
1
 10
0.0000
 20
0.0000
 30
0.0000
 40
0.1270
 41
0.1270
 70
0
  0
VERTEX
  8
16
 10
32.9751
 20
5.1249
 30
0.0000
 42
1.0000
  0
VERTEX
  8
16
 10
33.0649
 20
5.0351
 30
0.0000
  0
SEQEND
  8
0
  0
POLYLINE
  8
16
 66
1
 10
0.0000
 20
0.0000
 30
0.0000
 40
0.2540
 41
0.2540
 70
0
  0
VERTEX
  8
16
 10
34.2900
 20
6.3500
 30
0.0000
  0
VERTEX
  8
16
 10
37.1300
 20
6.3500
 30
0.0000
  0
SEQEND
  8
0
  0
POLYLINE
  8
16
 66
1
 10
0.0000
 20
0.0000
 30
0.0000
 40
0.1270
 41
0.1270
 70
0
  0
VERTEX
  8
16
 10
37.1300
 20
6.2865
 30
0.0000
 42
1.0000
  0
VERTEX
  8
16
 10
37.1300
 20
6.4135
 30
0.0000
  0
SEQEND
  8
0
  0
POLYLINE
  8
16
 66
1
 10
0.0000
 20
0.0000
 30
0.0000
 40
0.1270
 41
0.1270
 70
0
  0
VERTEX
  8
16
 10
34.2900
 20
6.4135
 30
0.0000
 42
1.0000
  0
VERTEX
  8
16
 10
34.2900
 20
6.2865
 30
0.0000
  0
SEQEND
  8
0
  0
POLYLINE
  8
16
 66
1
 10
0.0000
 20
0.0000
 30
0.0000
 40
0.2540
 41
0.2540
 70
0
  0
VERTEX
  8
16
 10
37.1300
 20
7.6200
 30
0.0000
  0
VERTEX
  8
16
 10
33.0200
 20
7.6200
 30
0.0000
  0
SEQEND
  8
0
  0
POLYLINE
  8
16
 66
1
 10
0.0000
 20
0.0000
 30
0.0000
 40
0.1270
 41
0.1270
 70
0
  0
VERTEX
  8
16
 10
33.0200
 20
7.6835
 30
0.0000
 42
1.0000
  0
VERTEX
  8
16
 10
33.0200
 20
7.5565
 30
0.0000
  0
SEQEND
  8
0
  0
POLYLINE
  8
16
 66
1
 10
0.0000
 20
0.0000
 30
0.0000
 40
0.1270
 41
0.1270
 70
0
  0
VERTEX
  8
16
 10
37.1300
 20
7.5565
 30
0.0000
 42
1.0000
  0
VERTEX
  8
16
 10
37.1300
 20
7.6835
 30
0.0000
  0
SEQEND
  8
0
  0
POLYLINE
  8
16
 66
1
 10
0.0000
 20
0.0000
 30
0.0000
 40
0.2540
 41
0.2540
 70
0
  0
VERTEX
  8
16
 10
33.0200
 20
7.6200
 30
0.0000
  0
VERTEX
  8
16
 10
27.9400
 20
2.5400
 30
0.0000
  0
SEQEND
  8
0
  0
POLYLINE
  8
16
 66
1
 10
0.0000
 20
0.0000
 30
0.0000
 40
0.1270
 41
0.1270
 70
0
  0
VERTEX
  8
16
 10
27.8951
 20
2.5849
 30
0.0000
 42
1.0000
  0
VERTEX
  8
16
 10
27.9849
 20
2.4951
 30
0.0000
  0
SEQEND
  8
0
  0
POLYLINE
  8
16
 66
1
 10
0.0000
 20
0.0000
 30
0.0000
 40
0.1270
 41
0.1270
 70
0
  0
VERTEX
  8
16
 10
33.0649
 20
7.5751
 30
0.0000
 42
1.0000
  0
VERTEX
  8
16
 10
32.9751
 20
7.6649
 30
0.0000
  0
SEQEND
  8
0
  0
POLYLINE
  8
16
 66
1
 10
0.0000
 20
0.0000
 30
0.0000
 40
0.2540
 41
0.2540
 70
0
  0
VERTEX
  8
16
 10
27.9400
 20
2.5400
 30
0.0000
  0
VERTEX
  8
16
 10
21.5250
 20
2.5400
 30
0.0000
  0
SEQEND
  8
0
  0
POLYLINE
  8
16
 66
1
 10
0.0000
 20
0.0000
 30
0.0000
 40
0.1270
 41
0.1270
 70
0
  0
VERTEX
  8
16
 10
21.5250
 20
2.6035
 30
0.0000
 42
1.0000
  0
VERTEX
  8
16
 10
21.5250
 20
2.4765
 30
0.0000
  0
SEQEND
  8
0
  0
POLYLINE
  8
16
 66
1
 10
0.0000
 20
0.0000
 30
0.0000
 40
0.1270
 41
0.1270
 70
0
  0
VERTEX
  8
16
 10
27.9400
 20
2.4765
 30
0.0000
 42
1.0000
  0
VERTEX
  8
16
 10
27.9400
 20
2.6035
 30
0.0000
  0
SEQEND
  8
0
  0
POLYLINE
  8
16
 66
1
 10
0.0000
 20
0.0000
 30
0.0000
 40
0.2540
 41
0.2540
 70
0
  0
VERTEX
  8
16
 10
37.1300
 20
8.8900
 30
0.0000
  0
VERTEX
  8
16
 10
30.4800
 20
8.8900
 30
0.0000
  0
SEQEND
  8
0
  0
POLYLINE
  8
16
 66
1
 10
0.0000
 20
0.0000
 30
0.0000
 40
0.1270
 41
0.1270
 70
0
  0
VERTEX
  8
16
 10
30.4800
 20
8.9535
 30
0.0000
 42
1.0000
  0
VERTEX
  8
16
 10
30.4800
 20
8.8265
 30
0.0000
  0
SEQEND
  8
0
  0
POLYLINE
  8
16
 66
1
 10
0.0000
 20
0.0000
 30
0.0000
 40
0.1270
 41
0.1270
 70
0
  0
VERTEX
  8
16
 10
37.1300
 20
8.8265
 30
0.0000
 42
1.0000
  0
VERTEX
  8
16
 10
37.1300
 20
8.9535
 30
0.0000
  0
SEQEND
  8
0
  0
POLYLINE
  8
16
 66
1
 10
0.0000
 20
0.0000
 30
0.0000
 40
0.2540
 41
0.2540
 70
0
  0
VERTEX
  8
16
 10
30.4800
 20
8.8900
 30
0.0000
  0
VERTEX
  8
16
 10
29.2100
 20
7.6200
 30
0.0000
  0
SEQEND
  8
0
  0
POLYLINE
  8
16
 66
1
 10
0.0000
 20
0.0000
 30
0.0000
 40
0.1270
 41
0.1270
 70
0
  0
VERTEX
  8
16
 10
29.1651
 20
7.6649
 30
0.0000
 42
1.0000
  0
VERTEX
  8
16
 10
29.2549
 20
7.5751
 30
0.0000
  0
SEQEND
  8
0
  0
POLYLINE
  8
16
 66
1
 10
0.0000
 20
0.0000
 30
0.0000
 40
0.1270
 41
0.1270
 70
0
  0
VERTEX
  8
16
 10
30.5249
 20
8.8451
 30
0.0000
 42
1.0000
  0
VERTEX
  8
16
 10
30.4351
 20
8.9349
 30
0.0000
  0
SEQEND
  8
0
  0
POLYLINE
  8
16
 66
1
 10
0.0000
 20
0.0000
 30
0.0000
 40
0.2540
 41
0.2540
 70
0
  0
VERTEX
  8
16
 10
29.2100
 20
7.6200
 30
0.0000
  0
VERTEX
  8
16
 10
21.5250
 20
7.6200
 30
0.0000
  0
SEQEND
  8
0
  0
POLYLINE
  8
16
 66
1
 10
0.0000
 20
0.0000
 30
0.0000
 40
0.1270
 41
0.1270
 70
0
  0
VERTEX
  8
16
 10
21.5250
 20
7.6835
 30
0.0000
 42
1.0000
  0
VERTEX
  8
16
 10
21.5250
 20
7.5565
 30
0.0000
  0
SEQEND
  8
0
  0
POLYLINE
  8
16
 66
1
 10
0.0000
 20
0.0000
 30
0.0000
 40
0.1270
 41
0.1270
 70
0
  0
VERTEX
  8
16
 10
29.2100
 20
7.5565
 30
0.0000
 42
1.0000
  0
VERTEX
  8
16
 10
29.2100
 20
7.6835
 30
0.0000
  0
SEQEND
  8
0
  0
POLYLINE
  8
16
 66
1
 10
0.0000
 20
0.0000
 30
0.0000
 40
0.4064
 41
0.4064
 70
0
  0
VERTEX
  8
16
 10
24.1300
 20
11.4300
 30
0.0000
  0
VERTEX
  8
16
 10
37.1300
 20
11.4300
 30
0.0000
  0
SEQEND
  8
0
  0
POLYLINE
  8
16
 66
1
 10
0.0000
 20
0.0000
 30
0.0000
 40
0.2032
 41
0.2032
 70
0
  0
VERTEX
  8
16
 10
37.1300
 20
11.3284
 30
0.0000
 42
1.0000
  0
VERTEX
  8
16
 10
37.1300
 20
11.5316
 30
0.0000
  0
SEQEND
  8
0
  0
POLYLINE
  8
16
 66
1
 10
0.0000
 20
0.0000
 30
0.0000
 40
0.2032
 41
0.2032
 70
0
  0
VERTEX
  8
16
 10
24.1300
 20
11.5316
 30
0.0000
 42
1.0000
  0
VERTEX
  8
16
 10
24.1300
 20
11.3284
 30
0.0000
  0
SEQEND
  8
0
  0
POLYLINE
  8
16
 66
1
 10
0.0000
 20
0.0000
 30
0.0000
 40
0.2540
 41
0.2540
 70
0
  0
VERTEX
  8
16
 10
24.1300
 20
11.4300
 30
0.0000
  0
VERTEX
  8
16
 10
22.8600
 20
12.7000
 30
0.0000
  0
SEQEND
  8
0
  0
POLYLINE
  8
16
 66
1
 10
0.0000
 20
0.0000
 30
0.0000
 40
0.1270
 41
0.1270
 70
0
  0
VERTEX
  8
16
 10
22.9049
 20
12.7449
 30
0.0000
 42
1.0000
  0
VERTEX
  8
16
 10
22.8151
 20
12.6551
 30
0.0000
  0
SEQEND
  8
0
  0
POLYLINE
  8
16
 66
1
 10
0.0000
 20
0.0000
 30
0.0000
 40
0.1270
 41
0.1270
 70
0
  0
VERTEX
  8
16
 10
24.0851
 20
11.3851
 30
0.0000
 42
1.0000
  0
VERTEX
  8
16
 10
24.1749
 20
11.4749
 30
0.0000
  0
SEQEND
  8
0
  0
POLYLINE
  8
16
 66
1
 10
0.0000
 20
0.0000
 30
0.0000
 40
0.2540
 41
0.2540
 70
0
  0
VERTEX
  8
16
 10
22.8600
 20
12.7000
 30
0.0000
  0
VERTEX
  8
16
 10
21.5250
 20
12.7000
 30
0.0000
  0
SEQEND
  8
0
  0
POLYLINE
  8
16
 66
1
 10
0.0000
 20
0.0000
 30
0.0000
 40
0.1270
 41
0.1270
 70
0
  0
VERTEX
  8
16
 10
21.5250
 20
12.7635
 30
0.0000
 42
1.0000
  0
VERTEX
  8
16
 10
21.5250
 20
12.6365
 30
0.0000
  0
SEQEND
  8
0
  0
POLYLINE
  8
16
 66
1
 10
0.0000
 20
0.0000
 30
0.0000
 40
0.1270
 41
0.1270
 70
0
  0
VERTEX
  8
16
 10
22.8600
 20
12.6365
 30
0.0000
 42
1.0000
  0
VERTEX
  8
16
 10
22.8600
 20
12.7635
 30
0.0000
  0
SEQEND
  8
0
  0
POLYLINE
  8
16
 66
1
 10
0.0000
 20
0.0000
 30
0.0000
 40
0.2540
 41
0.2540
 70
0
  0
VERTEX
  8
16
 10
37.1300
 20
12.7000
 30
0.0000
  0
VERTEX
  8
16
 10
30.4800
 20
12.7000
 30
0.0000
  0
SEQEND
  8
0
  0
POLYLINE
  8
16
 66
1
 10
0.0000
 20
0.0000
 30
0.0000
 40
0.1270
 41
0.1270
 70
0
  0
VERTEX
  8
16
 10
30.4800
 20
12.7635
 30
0.0000
 42
1.0000
  0
VERTEX
  8
16
 10
30.4800
 20
12.6365
 30
0.0000
  0
SEQEND
  8
0
  0
POLYLINE
  8
16
 66
1
 10
0.0000
 20
0.0000
 30
0.0000
 40
0.1270
 41
0.1270
 70
0
  0
VERTEX
  8
16
 10
37.1300
 20
12.6365
 30
0.0000
 42
1.0000
  0
VERTEX
  8
16
 10
37.1300
 20
12.7635
 30
0.0000
  0
SEQEND
  8
0
  0
POLYLINE
  8
16
 66
1
 10
0.0000
 20
0.0000
 30
0.0000
 40
0.2540
 41
0.2540
 70
0
  0
VERTEX
  8
16
 10
30.4800
 20
12.7000
 30
0.0000
  0
VERTEX
  8
16
 10
25.4000
 20
17.7800
 30
0.0000
  0
SEQEND
  8
0
  0
POLYLINE
  8
16
 66
1
 10
0.0000
 20
0.0000
 30
0.0000
 40
0.1270
 41
0.1270
 70
0
  0
VERTEX
  8
16
 10
25.4449
 20
17.8249
 30
0.0000
 42
1.0000
  0
VERTEX
  8
16
 10
25.3551
 20
17.7351
 30
0.0000
  0
SEQEND
  8
0
  0
POLYLINE
  8
16
 66
1
 10
0.0000
 20
0.0000
 30
0.0000
 40
0.1270
 41
0.1270
 70
0
  0
VERTEX
  8
16
 10
30.4351
 20
12.6551
 30
0.0000
 42
1.0000
  0
VERTEX
  8
16
 10
30.5249
 20
12.7449
 30
0.0000
  0
SEQEND
  8
0
  0
POLYLINE
  8
16
 66
1
 10
0.0000
 20
0.0000
 30
0.0000
 40
0.2540
 41
0.2540
 70
0
  0
VERTEX
  8
16
 10
25.4000
 20
17.7800
 30
0.0000
  0
VERTEX
  8
16
 10
21.5250
 20
17.7800
 30
0.0000
  0
SEQEND
  8
0
  0
POLYLINE
  8
16
 66
1
 10
0.0000
 20
0.0000
 30
0.0000
 40
0.1270
 41
0.1270
 70
0
  0
VERTEX
  8
16
 10
21.5250
 20
17.8435
 30
0.0000
 42
1.0000
  0
VERTEX
  8
16
 10
21.5250
 20
17.7165
 30
0.0000
  0
SEQEND
  8
0
  0
POLYLINE
  8
16
 66
1
 10
0.0000
 20
0.0000
 30
0.0000
 40
0.1270
 41
0.1270
 70
0
  0
VERTEX
  8
16
 10
25.4000
 20
17.7165
 30
0.0000
 42
1.0000
  0
VERTEX
  8
16
 10
25.4000
 20
17.8435
 30
0.0000
  0
SEQEND
  8
0
  0
POLYLINE
  8
16
 66
1
 10
0.0000
 20
0.0000
 30
0.0000
 40
0.2540
 41
0.2540
 70
0
  0
VERTEX
  8
16
 10
21.5250
 20
22.8600
 30
0.0000
  0
VERTEX
  8
16
 10
22.8600
 20
22.8600
 30
0.0000
  0
SEQEND
  8
0
  0
POLYLINE
  8
16
 66
1
 10
0.0000
 20
0.0000
 30
0.0000
 40
0.1270
 41
0.1270
 70
0
  0
VERTEX
  8
16
 10
22.8600
 20
22.7965
 30
0.0000
 42
1.0000
  0
VERTEX
  8
16
 10
22.8600
 20
22.9235
 30
0.0000
  0
SEQEND
  8
0
  0
POLYLINE
  8
16
 66
1
 10
0.0000
 20
0.0000
 30
0.0000
 40
0.1270
 41
0.1270
 70
0
  0
VERTEX
  8
16
 10
21.5250
 20
22.9235
 30
0.0000
 42
1.0000
  0
VERTEX
  8
16
 10
21.5250
 20
22.7965
 30
0.0000
  0
SEQEND
  8
0
  0
POLYLINE
  8
16
 66
1
 10
0.0000
 20
0.0000
 30
0.0000
 40
0.2540
 41
0.2540
 70
0
  0
VERTEX
  8
16
 10
22.8600
 20
22.8600
 30
0.0000
  0
VERTEX
  8
16
 10
31.7500
 20
13.9700
 30
0.0000
  0
SEQEND
  8
0
  0
POLYLINE
  8
16
 66
1
 10
0.0000
 20
0.0000
 30
0.0000
 40
0.1270
 41
0.1270
 70
0
  0
VERTEX
  8
16
 10
31.7051
 20
13.9251
 30
0.0000
 42
1.0000
  0
VERTEX
  8
16
 10
31.7949
 20
14.0149
 30
0.0000
  0
SEQEND
  8
0
  0
POLYLINE
  8
16
 66
1
 10
0.0000
 20
0.0000
 30
0.0000
 40
0.1270
 41
0.1270
 70
0
  0
VERTEX
  8
16
 10
22.9049
 20
22.9049
 30
0.0000
 42
1.0000
  0
VERTEX
  8
16
 10
22.8151
 20
22.8151
 30
0.0000
  0
SEQEND
  8
0
  0
POLYLINE
  8
16
 66
1
 10
0.0000
 20
0.0000
 30
0.0000
 40
0.2540
 41
0.2540
 70
0
  0
VERTEX
  8
16
 10
31.7500
 20
13.9700
 30
0.0000
  0
VERTEX
  8
16
 10
37.1300
 20
13.9700
 30
0.0000
  0
SEQEND
  8
0
  0
POLYLINE
  8
16
 66
1
 10
0.0000
 20
0.0000
 30
0.0000
 40
0.1270
 41
0.1270
 70
0
  0
VERTEX
  8
16
 10
37.1300
 20
13.9065
 30
0.0000
 42
1.0000
  0
VERTEX
  8
16
 10
37.1300
 20
14.0335
 30
0.0000
  0
SEQEND
  8
0
  0
POLYLINE
  8
16
 66
1
 10
0.0000
 20
0.0000
 30
0.0000
 40
0.1270
 41
0.1270
 70
0
  0
VERTEX
  8
16
 10
31.7500
 20
14.0335
 30
0.0000
 42
1.0000
  0
VERTEX
  8
16
 10
31.7500
 20
13.9065
 30
0.0000
  0
SEQEND
  8
0
  0
POLYLINE
  8
16
 66
1
 10
0.0000
 20
0.0000
 30
0.0000
 40
0.2540
 41
0.2540
 70
0
  0
VERTEX
  8
16
 10
46.6900
 20
15.2400
 30
0.0000
  0
VERTEX
  8
16
 10
49.5300
 20
15.2400
 30
0.0000
  0
SEQEND
  8
0
  0
POLYLINE
  8
16
 66
1
 10
0.0000
 20
0.0000
 30
0.0000
 40
0.1270
 41
0.1270
 70
0
  0
VERTEX
  8
16
 10
49.5300
 20
15.1765
 30
0.0000
 42
1.0000
  0
VERTEX
  8
16
 10
49.5300
 20
15.3035
 30
0.0000
  0
SEQEND
  8
0
  0
POLYLINE
  8
16
 66
1
 10
0.0000
 20
0.0000
 30
0.0000
 40
0.1270
 41
0.1270
 70
0
  0
VERTEX
  8
16
 10
46.6900
 20
15.3035
 30
0.0000
 42
1.0000
  0
VERTEX
  8
16
 10
46.6900
 20
15.1765
 30
0.0000
  0
SEQEND
  8
0
  0
POLYLINE
  8
16
 66
1
 10
0.0000
 20
0.0000
 30
0.0000
 40
0.2540
 41
0.2540
 70
0
  0
VERTEX
  8
16
 10
49.5300
 20
15.2400
 30
0.0000
  0
VERTEX
  8
16
 10
49.5300
 20
25.4000
 30
0.0000
  0
SEQEND
  8
0
  0
POLYLINE
  8
16
 66
1
 10
0.0000
 20
0.0000
 30
0.0000
 40
0.1270
 41
0.1270
 70
0
  0
VERTEX
  8
16
 10
49.5935
 20
25.4000
 30
0.0000
 42
1.0000
  0
VERTEX
  8
16
 10
49.4665
 20
25.4000
 30
0.0000
  0
SEQEND
  8
0
  0
POLYLINE
  8
16
 66
1
 10
0.0000
 20
0.0000
 30
0.0000
 40
0.1270
 41
0.1270
 70
0
  0
VERTEX
  8
16
 10
49.4665
 20
15.2400
 30
0.0000
 42
1.0000
  0
VERTEX
  8
16
 10
49.5935
 20
15.2400
 30
0.0000
  0
SEQEND
  8
0
  0
POLYLINE
  8
16
 66
1
 10
0.0000
 20
0.0000
 30
0.0000
 40
0.2540
 41
0.2540
 70
0
  0
VERTEX
  8
16
 10
49.5300
 20
25.4000
 30
0.0000
  0
VERTEX
  8
16
 10
49.5950
 20
25.4000
 30
0.0000
  0
SEQEND
  8
0
  0
POLYLINE
  8
16
 66
1
 10
0.0000
 20
0.0000
 30
0.0000
 40
0.1270
 41
0.1270
 70
0
  0
VERTEX
  8
16
 10
49.5950
 20
25.3365
 30
0.0000
 42
1.0000
  0
VERTEX
  8
16
 10
49.5950
 20
25.4635
 30
0.0000
  0
SEQEND
  8
0
  0
POLYLINE
  8
16
 66
1
 10
0.0000
 20
0.0000
 30
0.0000
 40
0.1270
 41
0.1270
 70
0
  0
VERTEX
  8
16
 10
49.5300
 20
25.4635
 30
0.0000
 42
1.0000
  0
VERTEX
  8
16
 10
49.5300
 20
25.3365
 30
0.0000
  0
SEQEND
  8
0
  0
POLYLINE
  8
16
 66
1
 10
0.0000
 20
0.0000
 30
0.0000
 40
0.2540
 41
0.2540
 70
0
  0
VERTEX
  8
16
 10
49.5950
 20
25.4000
 30
0.0000
  0
VERTEX
  8
16
 10
52.1350
 20
26.6700
 30
0.0000
  0
SEQEND
  8
0
  0
POLYLINE
  8
16
 66
1
 10
0.0000
 20
0.0000
 30
0.0000
 40
0.1270
 41
0.1270
 70
0
  0
VERTEX
  8
16
 10
52.1634
 20
26.6132
 30
0.0000
 42
1.0000
  0
VERTEX
  8
16
 10
52.1066
 20
26.7268
 30
0.0000
  0
SEQEND
  8
0
  0
POLYLINE
  8
16
 66
1
 10
0.0000
 20
0.0000
 30
0.0000
 40
0.1270
 41
0.1270
 70
0
  0
VERTEX
  8
16
 10
49.5666
 20
25.4568
 30
0.0000
 42
1.0000
  0
VERTEX
  8
16
 10
49.6234
 20
25.3432
 30
0.0000
  0
SEQEND
  8
0
  0
POLYLINE
  8
16
 66
1
 10
0.0000
 20
0.0000
 30
0.0000
 40
0.4064
 41
0.4064
 70
0
  0
VERTEX
  8
16
 10
50.8000
 20
10.1600
 30
0.0000
  0
VERTEX
  8
16
 10
53.3400
 20
7.6200
 30
0.0000
  0
SEQEND
  8
0
  0
POLYLINE
  8
16
 66
1
 10
0.0000
 20
0.0000
 30
0.0000
 40
0.2032
 41
0.2032
 70
0
  0
VERTEX
  8
16
 10
53.2682
 20
7.5482
 30
0.0000
 42
1.0000
  0
VERTEX
  8
16
 10
53.4118
 20
7.6918
 30
0.0000
  0
SEQEND
  8
0
  0
POLYLINE
  8
16
 66
1
 10
0.0000
 20
0.0000
 30
0.0000
 40
0.2032
 41
0.2032
 70
0
  0
VERTEX
  8
16
 10
50.8718
 20
10.2318
 30
0.0000
 42
1.0000
  0
VERTEX
  8
16
 10
50.7282
 20
10.0882
 30
0.0000
  0
SEQEND
  8
0
  0
INSERT
  8
18
  2
SQUAREV
 10
53.3400
 20
7.6200
 30
0.0000
 41
1.0064
 42
1.0064
 43
1.0000
 50
0.0000
  0
POLYLINE
  8
16
 66
1
 10
0.0000
 20
0.0000
 30
0.0000
 40
0.4064
 41
0.4064
 70
0
  0
VERTEX
  8
16
 10
75.3300
 20
12.0500
 30
0.0000
  0
VERTEX
  8
16
 10
78.5200
 20
15.2400
 30
0.0000
  0
SEQEND
  8
0
  0
POLYLINE
  8
16
 66
1
 10
0.0000
 20
0.0000
 30
0.0000
 40
0.2032
 41
0.2032
 70
0
  0
VERTEX
  8
16
 10
78.5918
 20
15.1682
 30
0.0000
 42
1.0000
  0
VERTEX
  8
16
 10
78.4482
 20
15.3118
 30
0.0000
  0
SEQEND
  8
0
  0
POLYLINE
  8
16
 66
1
 10
0.0000
 20
0.0000
 30
0.0000
 40
0.2032
 41
0.2032
 70
0
  0
VERTEX
  8
16
 10
75.2582
 20
12.1218
 30
0.0000
 42
1.0000
  0
VERTEX
  8
16
 10
75.4018
 20
11.9782
 30
0.0000
  0
SEQEND
  8
0
  0
POLYLINE
  8
16
 66
1
 10
0.0000
 20
0.0000
 30
0.0000
 40
0.4064
 41
0.4064
 70
0
  0
VERTEX
  8
16
 10
78.5200
 20
15.2400
 30
0.0000
  0
VERTEX
  8
16
 10
83.8200
 20
15.2400
 30
0.0000
  0
SEQEND
  8
0
  0
POLYLINE
  8
16
 66
1
 10
0.0000
 20
0.0000
 30
0.0000
 40
0.2032
 41
0.2032
 70
0
  0
VERTEX
  8
16
 10
83.8200
 20
15.1384
 30
0.0000
 42
1.0000
  0
VERTEX
  8
16
 10
83.8200
 20
15.3416
 30
0.0000
  0
SEQEND
  8
0
  0
POLYLINE
  8
16
 66
1
 10
0.0000
 20
0.0000
 30
0.0000
 40
0.2032
 41
0.2032
 70
0
  0
VERTEX
  8
16
 10
78.5200
 20
15.3416
 30
0.0000
 42
1.0000
  0
VERTEX
  8
16
 10
78.5200
 20
15.1384
 30
0.0000
  0
SEQEND
  8
0
  0
POLYLINE
  8
16
 66
1
 10
0.0000
 20
0.0000
 30
0.0000
 40
0.4064
 41
0.4064
 70
0
  0
VERTEX
  8
16
 10
83.8200
 20
15.2400
 30
0.0000
  0
VERTEX
  8
16
 10
83.8200
 20
3.8100
 30
0.0000
  0
SEQEND
  8
0
  0
POLYLINE
  8
16
 66
1
 10
0.0000
 20
0.0000
 30
0.0000
 40
0.2032
 41
0.2032
 70
0
  0
VERTEX
  8
16
 10
83.7184
 20
3.8100
 30
0.0000
 42
1.0000
  0
VERTEX
  8
16
 10
83.9216
 20
3.8100
 30
0.0000
  0
SEQEND
  8
0
  0
POLYLINE
  8
16
 66
1
 10
0.0000
 20
0.0000
 30
0.0000
 40
0.2032
 41
0.2032
 70
0
  0
VERTEX
  8
16
 10
83.9216
 20
15.2400
 30
0.0000
 42
1.0000
  0
VERTEX
  8
16
 10
83.7184
 20
15.2400
 30
0.0000
  0
SEQEND
  8
0
  0
POLYLINE
  8
16
 66
1
 10
0.0000
 20
0.0000
 30
0.0000
 40
0.4064
 41
0.4064
 70
0
  0
VERTEX
  8
16
 10
83.8200
 20
3.8100
 30
0.0000
  0
VERTEX
  8
16
 10
82.5500
 20
2.5400
 30
0.0000
  0
SEQEND
  8
0
  0
POLYLINE
  8
16
 66
1
 10
0.0000
 20
0.0000
 30
0.0000
 40
0.2032
 41
0.2032
 70
0
  0
VERTEX
  8
16
 10
82.4782
 20
2.6118
 30
0.0000
 42
1.0000
  0
VERTEX
  8
16
 10
82.6218
 20
2.4682
 30
0.0000
  0
SEQEND
  8
0
  0
POLYLINE
  8
16
 66
1
 10
0.0000
 20
0.0000
 30
0.0000
 40
0.2032
 41
0.2032
 70
0
  0
VERTEX
  8
16
 10
83.8918
 20
3.7382
 30
0.0000
 42
1.0000
  0
VERTEX
  8
16
 10
83.7482
 20
3.8818
 30
0.0000
  0
SEQEND
  8
0
  0
POLYLINE
  8
16
 66
1
 10
0.0000
 20
0.0000
 30
0.0000
 40
0.4064
 41
0.4064
 70
0
  0
VERTEX
  8
16
 10
82.5500
 20
2.5400
 30
0.0000
  0
VERTEX
  8
16
 10
81.3050
 20
2.5400
 30
0.0000
  0
SEQEND
  8
0
  0
POLYLINE
  8
16
 66
1
 10
0.0000
 20
0.0000
 30
0.0000
 40
0.2032
 41
0.2032
 70
0
  0
VERTEX
  8
16
 10
81.3050
 20
2.6416
 30
0.0000
 42
1.0000
  0
VERTEX
  8
16
 10
81.3050
 20
2.4384
 30
0.0000
  0
SEQEND
  8
0
  0
POLYLINE
  8
16
 66
1
 10
0.0000
 20
0.0000
 30
0.0000
 40
0.2032
 41
0.2032
 70
0
  0
VERTEX
  8
16
 10
82.5500
 20
2.4384
 30
0.0000
 42
1.0000
  0
VERTEX
  8
16
 10
82.5500
 20
2.6416
 30
0.0000
  0
SEQEND
  8
0
  0
POLYLINE
  8
16
 66
1
 10
0.0000
 20
0.0000
 30
0.0000
 40
0.4064
 41
0.4064
 70
0
  0
VERTEX
  8
16
 10
46.6900
 20
20.3200
 30
0.0000
  0
VERTEX
  8
16
 10
46.6900
 20
21.5900
 30
0.0000
  0
SEQEND
  8
0
  0
POLYLINE
  8
16
 66
1
 10
0.0000
 20
0.0000
 30
0.0000
 40
0.2032
 41
0.2032
 70
0
  0
VERTEX
  8
16
 10
46.7916
 20
21.5900
 30
0.0000
 42
1.0000
  0
VERTEX
  8
16
 10
46.5884
 20
21.5900
 30
0.0000
  0
SEQEND
  8
0
  0
POLYLINE
  8
16
 66
1
 10
0.0000
 20
0.0000
 30
0.0000
 40
0.2032
 41
0.2032
 70
0
  0
VERTEX
  8
16
 10
46.5884
 20
20.3200
 30
0.0000
 42
1.0000
  0
VERTEX
  8
16
 10
46.7916
 20
20.3200
 30
0.0000
  0
SEQEND
  8
0
  0
POLYLINE
  8
16
 66
1
 10
0.0000
 20
0.0000
 30
0.0000
 40
0.4064
 41
0.4064
 70
0
  0
VERTEX
  8
16
 10
46.6900
 20
21.5900
 30
0.0000
  0
VERTEX
  8
16
 10
46.6900
 20
22.8600
 30
0.0000
  0
SEQEND
  8
0
  0
POLYLINE
  8
16
 66
1
 10
0.0000
 20
0.0000
 30
0.0000
 40
0.2032
 41
0.2032
 70
0
  0
VERTEX
  8
16
 10
46.7916
 20
22.8600
 30
0.0000
 42
1.0000
  0
VERTEX
  8
16
 10
46.5884
 20
22.8600
 30
0.0000
  0
SEQEND
  8
0
  0
POLYLINE
  8
16
 66
1
 10
0.0000
 20
0.0000
 30
0.0000
 40
0.2032
 41
0.2032
 70
0
  0
VERTEX
  8
16
 10
46.5884
 20
21.5900
 30
0.0000
 42
1.0000
  0
VERTEX
  8
16
 10
46.7916
 20
21.5900
 30
0.0000
  0
SEQEND
  8
0
  0
POLYLINE
  8
16
 66
1
 10
0.0000
 20
0.0000
 30
0.0000
 40
0.4064
 41
0.4064
 70
0
  0
VERTEX
  8
16
 10
81.3050
 20
7.6200
 30
0.0000
  0
VERTEX
  8
16
 10
75.7350
 20
2.0500
 30
0.0000
  0
SEQEND
  8
0
  0
POLYLINE
  8
16
 66
1
 10
0.0000
 20
0.0000
 30
0.0000
 40
0.2032
 41
0.2032
 70
0
  0
VERTEX
  8
16
 10
75.6632
 20
2.1218
 30
0.0000
 42
1.0000
  0
VERTEX
  8
16
 10
75.8068
 20
1.9782
 30
0.0000
  0
SEQEND
  8
0
  0
POLYLINE
  8
16
 66
1
 10
0.0000
 20
0.0000
 30
0.0000
 40
0.2032
 41
0.2032
 70
0
  0
VERTEX
  8
16
 10
81.3768
 20
7.5482
 30
0.0000
 42
1.0000
  0
VERTEX
  8
16
 10
81.2332
 20
7.6918
 30
0.0000
  0
SEQEND
  8
0
  0
POLYLINE
  8
16
 66
1
 10
0.0000
 20
0.0000
 30
0.0000
 40
0.4064
 41
0.4064
 70
0
  0
VERTEX
  8
16
 10
75.7350
 20
2.0500
 30
0.0000
  0
VERTEX
  8
16
 10
75.3300
 20
2.0500
 30
0.0000
  0
SEQEND
  8
0
  0
POLYLINE
  8
16
 66
1
 10
0.0000
 20
0.0000
 30
0.0000
 40
0.2032
 41
0.2032
 70
0
  0
VERTEX
  8
16
 10
75.3300
 20
2.1516
 30
0.0000
 42
1.0000
  0
VERTEX
  8
16
 10
75.3300
 20
1.9484
 30
0.0000
  0
SEQEND
  8
0
  0
POLYLINE
  8
16
 66
1
 10
0.0000
 20
0.0000
 30
0.0000
 40
0.2032
 41
0.2032
 70
0
  0
VERTEX
  8
16
 10
75.7350
 20
1.9484
 30
0.0000
 42
1.0000
  0
VERTEX
  8
16
 10
75.7350
 20
2.1516
 30
0.0000
  0
SEQEND
  8
0
  0
POLYLINE
  8
16
 66
1
 10
0.0000
 20
0.0000
 30
0.0000
 40
0.2540
 41
0.2540
 70
0
  0
VERTEX
  8
16
 10
11.6650
 20
25.4000
 30
0.0000
  0
VERTEX
  8
16
 10
16.5100
 20
25.4000
 30
0.0000
  0
SEQEND
  8
0
  0
POLYLINE
  8
16
 66
1
 10
0.0000
 20
0.0000
 30
0.0000
 40
0.1270
 41
0.1270
 70
0
  0
VERTEX
  8
16
 10
16.5100
 20
25.3365
 30
0.0000
 42
1.0000
  0
VERTEX
  8
16
 10
16.5100
 20
25.4635
 30
0.0000
  0
SEQEND
  8
0
  0
POLYLINE
  8
16
 66
1
 10
0.0000
 20
0.0000
 30
0.0000
 40
0.1270
 41
0.1270
 70
0
  0
VERTEX
  8
16
 10
11.6650
 20
25.4635
 30
0.0000
 42
1.0000
  0
VERTEX
  8
16
 10
11.6650
 20
25.3365
 30
0.0000
  0
SEQEND
  8
0
  0
POLYLINE
  8
16
 66
1
 10
0.0000
 20
0.0000
 30
0.0000
 40
0.2540
 41
0.2540
 70
0
  0
VERTEX
  8
16
 10
16.5100
 20
25.4000
 30
0.0000
  0
VERTEX
  8
16
 10
16.5100
 20
20.3200
 30
0.0000
  0
SEQEND
  8
0
  0
POLYLINE
  8
16
 66
1
 10
0.0000
 20
0.0000
 30
0.0000
 40
0.1270
 41
0.1270
 70
0
  0
VERTEX
  8
16
 10
16.4465
 20
20.3200
 30
0.0000
 42
1.0000
  0
VERTEX
  8
16
 10
16.5735
 20
20.3200
 30
0.0000
  0
SEQEND
  8
0
  0
POLYLINE
  8
16
 66
1
 10
0.0000
 20
0.0000
 30
0.0000
 40
0.1270
 41
0.1270
 70
0
  0
VERTEX
  8
16
 10
16.5735
 20
25.4000
 30
0.0000
 42
1.0000
  0
VERTEX
  8
16
 10
16.4465
 20
25.4000
 30
0.0000
  0
SEQEND
  8
0
  0
POLYLINE
  8
16
 66
1
 10
0.0000
 20
0.0000
 30
0.0000
 40
0.2540
 41
0.2540
 70
0
  0
VERTEX
  8
16
 10
11.6650
 20
20.3200
 30
0.0000
  0
VERTEX
  8
16
 10
21.5250
 20
20.3200
 30
0.0000
  0
SEQEND
  8
0
  0
POLYLINE
  8
16
 66
1
 10
0.0000
 20
0.0000
 30
0.0000
 40
0.1270
 41
0.1270
 70
0
  0
VERTEX
  8
16
 10
21.5250
 20
20.2565
 30
0.0000
 42
1.0000
  0
VERTEX
  8
16
 10
21.5250
 20
20.3835
 30
0.0000
  0
SEQEND
  8
0
  0
POLYLINE
  8
16
 66
1
 10
0.0000
 20
0.0000
 30
0.0000
 40
0.1270
 41
0.1270
 70
0
  0
VERTEX
  8
16
 10
11.6650
 20
20.3835
 30
0.0000
 42
1.0000
  0
VERTEX
  8
16
 10
11.6650
 20
20.2565
 30
0.0000
  0
SEQEND
  8
0
  0
POLYLINE
  8
16
 66
1
 10
0.0000
 20
0.0000
 30
0.0000
 40
0.2540
 41
0.2540
 70
0
  0
VERTEX
  8
16
 10
16.5100
 20
25.4000
 30
0.0000
  0
VERTEX
  8
16
 10
21.5250
 20
25.4000
 30
0.0000
  0
SEQEND
  8
0
  0
POLYLINE
  8
16
 66
1
 10
0.0000
 20
0.0000
 30
0.0000
 40
0.1270
 41
0.1270
 70
0
  0
VERTEX
  8
16
 10
21.5250
 20
25.3365
 30
0.0000
 42
1.0000
  0
VERTEX
  8
16
 10
21.5250
 20
25.4635
 30
0.0000
  0
SEQEND
  8
0
  0
POLYLINE
  8
16
 66
1
 10
0.0000
 20
0.0000
 30
0.0000
 40
0.1270
 41
0.1270
 70
0
  0
VERTEX
  8
16
 10
16.5100
 20
25.4635
 30
0.0000
 42
1.0000
  0
VERTEX
  8
16
 10
16.5100
 20
25.3365
 30
0.0000
  0
SEQEND
  8
0
  0
POLYLINE
  8
16
 66
1
 10
0.0000
 20
0.0000
 30
0.0000
 40
0.2540
 41
0.2540
 70
0
  0
VERTEX
  8
16
 10
11.6650
 20
20.3200
 30
0.0000
  0
VERTEX
  8
16
 10
16.5100
 20
20.3200
 30
0.0000
  0
SEQEND
  8
0
  0
POLYLINE
  8
16
 66
1
 10
0.0000
 20
0.0000
 30
0.0000
 40
0.1270
 41
0.1270
 70
0
  0
VERTEX
  8
16
 10
16.5100
 20
20.2565
 30
0.0000
 42
1.0000
  0
VERTEX
  8
16
 10
16.5100
 20
20.3835
 30
0.0000
  0
SEQEND
  8
0
  0
POLYLINE
  8
16
 66
1
 10
0.0000
 20
0.0000
 30
0.0000
 40
0.1270
 41
0.1270
 70
0
  0
VERTEX
  8
16
 10
11.6650
 20
20.3835
 30
0.0000
 42
1.0000
  0
VERTEX
  8
16
 10
11.6650
 20
20.2565
 30
0.0000
  0
SEQEND
  8
0
  0
POLYLINE
  8
16
 66
1
 10
0.0000
 20
0.0000
 30
0.0000
 40
0.2540
 41
0.2540
 70
0
  0
VERTEX
  8
16
 10
16.5100
 20
20.3200
 30
0.0000
  0
VERTEX
  8
16
 10
16.5100
 20
15.2400
 30
0.0000
  0
SEQEND
  8
0
  0
POLYLINE
  8
16
 66
1
 10
0.0000
 20
0.0000
 30
0.0000
 40
0.1270
 41
0.1270
 70
0
  0
VERTEX
  8
16
 10
16.4465
 20
15.2400
 30
0.0000
 42
1.0000
  0
VERTEX
  8
16
 10
16.5735
 20
15.2400
 30
0.0000
  0
SEQEND
  8
0
  0
POLYLINE
  8
16
 66
1
 10
0.0000
 20
0.0000
 30
0.0000
 40
0.1270
 41
0.1270
 70
0
  0
VERTEX
  8
16
 10
16.5735
 20
20.3200
 30
0.0000
 42
1.0000
  0
VERTEX
  8
16
 10
16.4465
 20
20.3200
 30
0.0000
  0
SEQEND
  8
0
  0
POLYLINE
  8
16
 66
1
 10
0.0000
 20
0.0000
 30
0.0000
 40
0.2540
 41
0.2540
 70
0
  0
VERTEX
  8
16
 10
11.6650
 20
15.2400
 30
0.0000
  0
VERTEX
  8
16
 10
16.5100
 20
15.2400
 30
0.0000
  0
SEQEND
  8
0
  0
POLYLINE
  8
16
 66
1
 10
0.0000
 20
0.0000
 30
0.0000
 40
0.1270
 41
0.1270
 70
0
  0
VERTEX
  8
16
 10
16.5100
 20
15.1765
 30
0.0000
 42
1.0000
  0
VERTEX
  8
16
 10
16.5100
 20
15.3035
 30
0.0000
  0
SEQEND
  8
0
  0
POLYLINE
  8
16
 66
1
 10
0.0000
 20
0.0000
 30
0.0000
 40
0.1270
 41
0.1270
 70
0
  0
VERTEX
  8
16
 10
11.6650
 20
15.3035
 30
0.0000
 42
1.0000
  0
VERTEX
  8
16
 10
11.6650
 20
15.1765
 30
0.0000
  0
SEQEND
  8
0
  0
POLYLINE
  8
16
 66
1
 10
0.0000
 20
0.0000
 30
0.0000
 40
0.2540
 41
0.2540
 70
0
  0
VERTEX
  8
16
 10
16.5100
 20
15.2400
 30
0.0000
  0
VERTEX
  8
16
 10
16.5100
 20
10.1600
 30
0.0000
  0
SEQEND
  8
0
  0
POLYLINE
  8
16
 66
1
 10
0.0000
 20
0.0000
 30
0.0000
 40
0.1270
 41
0.1270
 70
0
  0
VERTEX
  8
16
 10
16.4465
 20
10.1600
 30
0.0000
 42
1.0000
  0
VERTEX
  8
16
 10
16.5735
 20
10.1600
 30
0.0000
  0
SEQEND
  8
0
  0
POLYLINE
  8
16
 66
1
 10
0.0000
 20
0.0000
 30
0.0000
 40
0.1270
 41
0.1270
 70
0
  0
VERTEX
  8
16
 10
16.5735
 20
15.2400
 30
0.0000
 42
1.0000
  0
VERTEX
  8
16
 10
16.4465
 20
15.2400
 30
0.0000
  0
SEQEND
  8
0
  0
POLYLINE
  8
16
 66
1
 10
0.0000
 20
0.0000
 30
0.0000
 40
0.2540
 41
0.2540
 70
0
  0
VERTEX
  8
16
 10
11.6650
 20
10.1600
 30
0.0000
  0
VERTEX
  8
16
 10
16.5100
 20
10.1600
 30
0.0000
  0
SEQEND
  8
0
  0
POLYLINE
  8
16
 66
1
 10
0.0000
 20
0.0000
 30
0.0000
 40
0.1270
 41
0.1270
 70
0
  0
VERTEX
  8
16
 10
16.5100
 20
10.0965
 30
0.0000
 42
1.0000
  0
VERTEX
  8
16
 10
16.5100
 20
10.2235
 30
0.0000
  0
SEQEND
  8
0
  0
POLYLINE
  8
16
 66
1
 10
0.0000
 20
0.0000
 30
0.0000
 40
0.1270
 41
0.1270
 70
0
  0
VERTEX
  8
16
 10
11.6650
 20
10.2235
 30
0.0000
 42
1.0000
  0
VERTEX
  8
16
 10
11.6650
 20
10.0965
 30
0.0000
  0
SEQEND
  8
0
  0
POLYLINE
  8
16
 66
1
 10
0.0000
 20
0.0000
 30
0.0000
 40
0.2540
 41
0.2540
 70
0
  0
VERTEX
  8
16
 10
16.5100
 20
10.1600
 30
0.0000
  0
VERTEX
  8
16
 10
16.5100
 20
5.0800
 30
0.0000
  0
SEQEND
  8
0
  0
POLYLINE
  8
16
 66
1
 10
0.0000
 20
0.0000
 30
0.0000
 40
0.1270
 41
0.1270
 70
0
  0
VERTEX
  8
16
 10
16.4465
 20
5.0800
 30
0.0000
 42
1.0000
  0
VERTEX
  8
16
 10
16.5735
 20
5.0800
 30
0.0000
  0
SEQEND
  8
0
  0
POLYLINE
  8
16
 66
1
 10
0.0000
 20
0.0000
 30
0.0000
 40
0.1270
 41
0.1270
 70
0
  0
VERTEX
  8
16
 10
16.5735
 20
10.1600
 30
0.0000
 42
1.0000
  0
VERTEX
  8
16
 10
16.4465
 20
10.1600
 30
0.0000
  0
SEQEND
  8
0
  0
POLYLINE
  8
16
 66
1
 10
0.0000
 20
0.0000
 30
0.0000
 40
0.2540
 41
0.2540
 70
0
  0
VERTEX
  8
16
 10
16.5100
 20
5.0800
 30
0.0000
  0
VERTEX
  8
16
 10
11.6650
 20
5.0800
 30
0.0000
  0
SEQEND
  8
0
  0
POLYLINE
  8
16
 66
1
 10
0.0000
 20
0.0000
 30
0.0000
 40
0.1270
 41
0.1270
 70
0
  0
VERTEX
  8
16
 10
11.6650
 20
5.1435
 30
0.0000
 42
1.0000
  0
VERTEX
  8
16
 10
11.6650
 20
5.0165
 30
0.0000
  0
SEQEND
  8
0
  0
POLYLINE
  8
16
 66
1
 10
0.0000
 20
0.0000
 30
0.0000
 40
0.1270
 41
0.1270
 70
0
  0
VERTEX
  8
16
 10
16.5100
 20
5.0165
 30
0.0000
 42
1.0000
  0
VERTEX
  8
16
 10
16.5100
 20
5.1435
 30
0.0000
  0
SEQEND
  8
0
  0
POLYLINE
  8
16
 66
1
 10
0.0000
 20
0.0000
 30
0.0000
 40
0.2540
 41
0.2540
 70
0
  0
VERTEX
  8
16
 10
25.4000
 20
25.4000
 30
0.0000
  0
VERTEX
  8
16
 10
21.5250
 20
25.4000
 30
0.0000
  0
SEQEND
  8
0
  0
POLYLINE
  8
16
 66
1
 10
0.0000
 20
0.0000
 30
0.0000
 40
0.1270
 41
0.1270
 70
0
  0
VERTEX
  8
16
 10
21.5250
 20
25.4635
 30
0.0000
 42
1.0000
  0
VERTEX
  8
16
 10
21.5250
 20
25.3365
 30
0.0000
  0
SEQEND
  8
0
  0
POLYLINE
  8
16
 66
1
 10
0.0000
 20
0.0000
 30
0.0000
 40
0.1270
 41
0.1270
 70
0
  0
VERTEX
  8
16
 10
25.4000
 20
25.3365
 30
0.0000
 42
1.0000
  0
VERTEX
  8
16
 10
25.4000
 20
25.4635
 30
0.0000
  0
SEQEND
  8
0
  0
POLYLINE
  8
16
 66
1
 10
0.0000
 20
0.0000
 30
0.0000
 40
0.2540
 41
0.2540
 70
0
  0
VERTEX
  8
16
 10
72.1550
 20
3.8100
 30
0.0000
  0
VERTEX
  8
16
 10
75.3300
 20
2.5400
 30
0.0000
  0
SEQEND
  8
0
  0
POLYLINE
  8
16
 66
1
 10
0.0000
 20
0.0000
 30
0.0000
 40
0.1270
 41
0.1270
 70
0
  0
VERTEX
  8
16
 10
75.3064
 20
2.4810
 30
0.0000
 42
1.0000
  0
VERTEX
  8
16
 10
75.3536
 20
2.5990
 30
0.0000
  0
SEQEND
  8
0
  0
POLYLINE
  8
16
 66
1
 10
0.0000
 20
0.0000
 30
0.0000
 40
0.1270
 41
0.1270
 70
0
  0
VERTEX
  8
16
 10
72.1786
 20
3.8690
 30
0.0000
 42
1.0000
  0
VERTEX
  8
16
 10
72.1314
 20
3.7510
 30
0.0000
  0
SEQEND
  8
0
  0
POLYLINE
  8
16
 66
1
 10
0.0000
 20
0.0000
 30
0.0000
 40
0.2540
 41
0.2540
 70
0
  0
VERTEX
  8
16
 10
75.3300
 20
2.5400
 30
0.0000
  0
VERTEX
  8
16
 10
75.3300
 20
2.0500
 30
0.0000
  0
SEQEND
  8
0
  0
POLYLINE
  8
16
 66
1
 10
0.0000
 20
0.0000
 30
0.0000
 40
0.1270
 41
0.1270
 70
0
  0
VERTEX
  8
16
 10
75.2665
 20
2.0500
 30
0.0000
 42
1.0000
  0
VERTEX
  8
16
 10
75.3935
 20
2.0500
 30
0.0000
  0
SEQEND
  8
0
  0
POLYLINE
  8
16
 66
1
 10
0.0000
 20
0.0000
 30
0.0000
 40
0.1270
 41
0.1270
 70
0
  0
VERTEX
  8
16
 10
75.3935
 20
2.5400
 30
0.0000
 42
1.0000
  0
VERTEX
  8
16
 10
75.2665
 20
2.5400
 30
0.0000
  0
SEQEND
  8
0
  0
POLYLINE
  8
16
 66
1
 10
0.0000
 20
0.0000
 30
0.0000
 40
0.2540
 41
0.2540
 70
0
  0
VERTEX
  8
16
 10
46.6900
 20
20.3200
 30
0.0000
  0
VERTEX
  8
16
 10
43.1800
 20
20.3200
 30
0.0000
  0
SEQEND
  8
0
  0
POLYLINE
  8
16
 66
1
 10
0.0000
 20
0.0000
 30
0.0000
 40
0.1270
 41
0.1270
 70
0
  0
VERTEX
  8
16
 10
43.1800
 20
20.3835
 30
0.0000
 42
1.0000
  0
VERTEX
  8
16
 10
43.1800
 20
20.2565
 30
0.0000
  0
SEQEND
  8
0
  0
POLYLINE
  8
16
 66
1
 10
0.0000
 20
0.0000
 30
0.0000
 40
0.1270
 41
0.1270
 70
0
  0
VERTEX
  8
16
 10
46.6900
 20
20.2565
 30
0.0000
 42
1.0000
  0
VERTEX
  8
16
 10
46.6900
 20
20.3835
 30
0.0000
  0
SEQEND
  8
0
  0
POLYLINE
  8
16
 66
1
 10
0.0000
 20
0.0000
 30
0.0000
 40
0.2540
 41
0.2540
 70
0
  0
VERTEX
  8
16
 10
43.1800
 20
20.3200
 30
0.0000
  0
VERTEX
  8
16
 10
40.6400
 20
17.7800
 30
0.0000
  0
SEQEND
  8
0
  0
POLYLINE
  8
16
 66
1
 10
0.0000
 20
0.0000
 30
0.0000
 40
0.1270
 41
0.1270
 70
0
  0
VERTEX
  8
16
 10
40.5951
 20
17.8249
 30
0.0000
 42
1.0000
  0
VERTEX
  8
16
 10
40.6849
 20
17.7351
 30
0.0000
  0
SEQEND
  8
0
  0
POLYLINE
  8
16
 66
1
 10
0.0000
 20
0.0000
 30
0.0000
 40
0.1270
 41
0.1270
 70
0
  0
VERTEX
  8
16
 10
43.2249
 20
20.2751
 30
0.0000
 42
1.0000
  0
VERTEX
  8
16
 10
43.1351
 20
20.3649
 30
0.0000
  0
SEQEND
  8
0
  0
POLYLINE
  8
16
 66
1
 10
0.0000
 20
0.0000
 30
0.0000
 40
0.2540
 41
0.2540
 70
0
  0
VERTEX
  8
16
 10
40.6400
 20
17.7800
 30
0.0000
  0
VERTEX
  8
16
 10
37.1300
 20
17.7800
 30
0.0000
  0
SEQEND
  8
0
  0
POLYLINE
  8
16
 66
1
 10
0.0000
 20
0.0000
 30
0.0000
 40
0.1270
 41
0.1270
 70
0
  0
VERTEX
  8
16
 10
37.1300
 20
17.8435
 30
0.0000
 42
1.0000
  0
VERTEX
  8
16
 10
37.1300
 20
17.7165
 30
0.0000
  0
SEQEND
  8
0
  0
POLYLINE
  8
16
 66
1
 10
0.0000
 20
0.0000
 30
0.0000
 40
0.1270
 41
0.1270
 70
0
  0
VERTEX
  8
16
 10
40.6400
 20
17.7165
 30
0.0000
 42
1.0000
  0
VERTEX
  8
16
 10
40.6400
 20
17.8435
 30
0.0000
  0
SEQEND
  8
0
  0
POLYLINE
  8
16
 66
1
 10
0.0000
 20
0.0000
 30
0.0000
 40
0.2540
 41
0.2540
 70
0
  0
VERTEX
  8
16
 10
21.5250
 20
15.2400
 30
0.0000
  0
VERTEX
  8
16
 10
16.5100
 20
15.2400
 30
0.0000
  0
SEQEND
  8
0
  0
POLYLINE
  8
16
 66
1
 10
0.0000
 20
0.0000
 30
0.0000
 40
0.1270
 41
0.1270
 70
0
  0
VERTEX
  8
16
 10
16.5100
 20
15.3035
 30
0.0000
 42
1.0000
  0
VERTEX
  8
16
 10
16.5100
 20
15.1765
 30
0.0000
  0
SEQEND
  8
0
  0
POLYLINE
  8
16
 66
1
 10
0.0000
 20
0.0000
 30
0.0000
 40
0.1270
 41
0.1270
 70
0
  0
VERTEX
  8
16
 10
21.5250
 20
15.1765
 30
0.0000
 42
1.0000
  0
VERTEX
  8
16
 10
21.5250
 20
15.3035
 30
0.0000
  0
SEQEND
  8
0
  0
POLYLINE
  8
16
 66
1
 10
0.0000
 20
0.0000
 30
0.0000
 40
0.2540
 41
0.2540
 70
0
  0
VERTEX
  8
16
 10
21.5250
 20
10.1600
 30
0.0000
  0
VERTEX
  8
16
 10
16.5100
 20
10.1600
 30
0.0000
  0
SEQEND
  8
0
  0
POLYLINE
  8
16
 66
1
 10
0.0000
 20
0.0000
 30
0.0000
 40
0.1270
 41
0.1270
 70
0
  0
VERTEX
  8
16
 10
16.5100
 20
10.2235
 30
0.0000
 42
1.0000
  0
VERTEX
  8
16
 10
16.5100
 20
10.0965
 30
0.0000
  0
SEQEND
  8
0
  0
POLYLINE
  8
16
 66
1
 10
0.0000
 20
0.0000
 30
0.0000
 40
0.1270
 41
0.1270
 70
0
  0
VERTEX
  8
16
 10
21.5250
 20
10.0965
 30
0.0000
 42
1.0000
  0
VERTEX
  8
16
 10
21.5250
 20
10.2235
 30
0.0000
  0
SEQEND
  8
0
  0
POLYLINE
  8
16
 66
1
 10
0.0000
 20
0.0000
 30
0.0000
 40
0.2540
 41
0.2540
 70
0
  0
VERTEX
  8
16
 10
21.5250
 20
5.0800
 30
0.0000
  0
VERTEX
  8
16
 10
16.5100
 20
5.0800
 30
0.0000
  0
SEQEND
  8
0
  0
POLYLINE
  8
16
 66
1
 10
0.0000
 20
0.0000
 30
0.0000
 40
0.1270
 41
0.1270
 70
0
  0
VERTEX
  8
16
 10
16.5100
 20
5.1435
 30
0.0000
 42
1.0000
  0
VERTEX
  8
16
 10
16.5100
 20
5.0165
 30
0.0000
  0
SEQEND
  8
0
  0
POLYLINE
  8
16
 66
1
 10
0.0000
 20
0.0000
 30
0.0000
 40
0.1270
 41
0.1270
 70
0
  0
VERTEX
  8
16
 10
21.5250
 20
5.0165
 30
0.0000
 42
1.0000
  0
VERTEX
  8
16
 10
21.5250
 20
5.1435
 30
0.0000
  0
SEQEND
  8
0
  0
POLYLINE
  8
16
 66
1
 10
0.0000
 20
0.0000
 30
0.0000
 40
0.2540
 41
0.2540
 70
0
  0
VERTEX
  8
16
 10
17.7800
 20
1.2700
 30
0.0000
  0
VERTEX
  8
16
 10
16.5100
 20
2.5400
 30
0.0000
  0
SEQEND
  8
0
  0
POLYLINE
  8
16
 66
1
 10
0.0000
 20
0.0000
 30
0.0000
 40
0.1270
 41
0.1270
 70
0
  0
VERTEX
  8
16
 10
16.5549
 20
2.5849
 30
0.0000
 42
1.0000
  0
VERTEX
  8
16
 10
16.4651
 20
2.4951
 30
0.0000
  0
SEQEND
  8
0
  0
POLYLINE
  8
16
 66
1
 10
0.0000
 20
0.0000
 30
0.0000
 40
0.1270
 41
0.1270
 70
0
  0
VERTEX
  8
16
 10
17.7351
 20
1.2251
 30
0.0000
 42
1.0000
  0
VERTEX
  8
16
 10
17.8249
 20
1.3149
 30
0.0000
  0
SEQEND
  8
0
  0
POLYLINE
  8
16
 66
1
 10
0.0000
 20
0.0000
 30
0.0000
 40
0.2540
 41
0.2540
 70
0
  0
VERTEX
  8
16
 10
16.5100
 20
2.5400
 30
0.0000
  0
VERTEX
  8
16
 10
16.5100
 20
5.0800
 30
0.0000
  0
SEQEND
  8
0
  0
POLYLINE
  8
16
 66
1
 10
0.0000
 20
0.0000
 30
0.0000
 40
0.1270
 41
0.1270
 70
0
  0
VERTEX
  8
16
 10
16.5735
 20
5.0800
 30
0.0000
 42
1.0000
  0
VERTEX
  8
16
 10
16.4465
 20
5.0800
 30
0.0000
  0
SEQEND
  8
0
  0
POLYLINE
  8
16
 66
1
 10
0.0000
 20
0.0000
 30
0.0000
 40
0.1270
 41
0.1270
 70
0
  0
VERTEX
  8
16
 10
16.4465
 20
2.5400
 30
0.0000
 42
1.0000
  0
VERTEX
  8
16
 10
16.5735
 20
2.5400
 30
0.0000
  0
SEQEND
  8
0
  0
POLYLINE
  8
16
 66
1
 10
0.0000
 20
0.0000
 30
0.0000
 40
0.2540
 41
0.2540
 70
0
  0
VERTEX
  8
16
 10
72.1550
 20
19.0500
 30
0.0000
  0
VERTEX
  8
16
 10
67.3100
 20
19.0500
 30
0.0000
  0
SEQEND
  8
0
  0
POLYLINE
  8
16
 66
1
 10
0.0000
 20
0.0000
 30
0.0000
 40
0.1270
 41
0.1270
 70
0
  0
VERTEX
  8
16
 10
67.3100
 20
19.1135
 30
0.0000
 42
1.0000
  0
VERTEX
  8
16
 10
67.3100
 20
18.9865
 30
0.0000
  0
SEQEND
  8
0
  0
POLYLINE
  8
16
 66
1
 10
0.0000
 20
0.0000
 30
0.0000
 40
0.1270
 41
0.1270
 70
0
  0
VERTEX
  8
16
 10
72.1550
 20
18.9865
 30
0.0000
 42
1.0000
  0
VERTEX
  8
16
 10
72.1550
 20
19.1135
 30
0.0000
  0
SEQEND
  8
0
  0
POLYLINE
  8
16
 66
1
 10
0.0000
 20
0.0000
 30
0.0000
 40
0.2540
 41
0.2540
 70
0
  0
VERTEX
  8
16
 10
72.1550
 20
13.9700
 30
0.0000
  0
VERTEX
  8
16
 10
67.3100
 20
13.9700
 30
0.0000
  0
SEQEND
  8
0
  0
POLYLINE
  8
16
 66
1
 10
0.0000
 20
0.0000
 30
0.0000
 40
0.1270
 41
0.1270
 70
0
  0
VERTEX
  8
16
 10
67.3100
 20
14.0335
 30
0.0000
 42
1.0000
  0
VERTEX
  8
16
 10
67.3100
 20
13.9065
 30
0.0000
  0
SEQEND
  8
0
  0
POLYLINE
  8
16
 66
1
 10
0.0000
 20
0.0000
 30
0.0000
 40
0.1270
 41
0.1270
 70
0
  0
VERTEX
  8
16
 10
72.1550
 20
13.9065
 30
0.0000
 42
1.0000
  0
VERTEX
  8
16
 10
72.1550
 20
14.0335
 30
0.0000
  0
SEQEND
  8
0
  0
POLYLINE
  8
16
 66
1
 10
0.0000
 20
0.0000
 30
0.0000
 40
0.2540
 41
0.2540
 70
0
  0
VERTEX
  8
16
 10
67.3100
 20
13.9700
 30
0.0000
  0
VERTEX
  8
16
 10
67.3100
 20
19.0500
 30
0.0000
  0
SEQEND
  8
0
  0
POLYLINE
  8
16
 66
1
 10
0.0000
 20
0.0000
 30
0.0000
 40
0.1270
 41
0.1270
 70
0
  0
VERTEX
  8
16
 10
67.3735
 20
19.0500
 30
0.0000
 42
1.0000
  0
VERTEX
  8
16
 10
67.2465
 20
19.0500
 30
0.0000
  0
SEQEND
  8
0
  0
POLYLINE
  8
16
 66
1
 10
0.0000
 20
0.0000
 30
0.0000
 40
0.1270
 41
0.1270
 70
0
  0
VERTEX
  8
16
 10
67.2465
 20
13.9700
 30
0.0000
 42
1.0000
  0
VERTEX
  8
16
 10
67.3735
 20
13.9700
 30
0.0000
  0
SEQEND
  8
0
  0
POLYLINE
  8
16
 66
1
 10
0.0000
 20
0.0000
 30
0.0000
 40
0.2540
 41
0.2540
 70
0
  0
VERTEX
  8
16
 10
62.2950
 20
13.9700
 30
0.0000
  0
VERTEX
  8
16
 10
67.3100
 20
13.9700
 30
0.0000
  0
SEQEND
  8
0
  0
POLYLINE
  8
16
 66
1
 10
0.0000
 20
0.0000
 30
0.0000
 40
0.1270
 41
0.1270
 70
0
  0
VERTEX
  8
16
 10
67.3100
 20
13.9065
 30
0.0000
 42
1.0000
  0
VERTEX
  8
16
 10
67.3100
 20
14.0335
 30
0.0000
  0
SEQEND
  8
0
  0
POLYLINE
  8
16
 66
1
 10
0.0000
 20
0.0000
 30
0.0000
 40
0.1270
 41
0.1270
 70
0
  0
VERTEX
  8
16
 10
62.2950
 20
14.0335
 30
0.0000
 42
1.0000
  0
VERTEX
  8
16
 10
62.2950
 20
13.9065
 30
0.0000
  0
SEQEND
  8
0
  0
POLYLINE
  8
16
 66
1
 10
0.0000
 20
0.0000
 30
0.0000
 40
0.2540
 41
0.2540
 70
0
  0
VERTEX
  8
16
 10
62.2950
 20
8.8900
 30
0.0000
  0
VERTEX
  8
16
 10
67.3100
 20
8.8900
 30
0.0000
  0
SEQEND
  8
0
  0
POLYLINE
  8
16
 66
1
 10
0.0000
 20
0.0000
 30
0.0000
 40
0.1270
 41
0.1270
 70
0
  0
VERTEX
  8
16
 10
67.3100
 20
8.8265
 30
0.0000
 42
1.0000
  0
VERTEX
  8
16
 10
67.3100
 20
8.9535
 30
0.0000
  0
SEQEND
  8
0
  0
POLYLINE
  8
16
 66
1
 10
0.0000
 20
0.0000
 30
0.0000
 40
0.1270
 41
0.1270
 70
0
  0
VERTEX
  8
16
 10
62.2950
 20
8.9535
 30
0.0000
 42
1.0000
  0
VERTEX
  8
16
 10
62.2950
 20
8.8265
 30
0.0000
  0
SEQEND
  8
0
  0
POLYLINE
  8
16
 66
1
 10
0.0000
 20
0.0000
 30
0.0000
 40
0.2540
 41
0.2540
 70
0
  0
VERTEX
  8
16
 10
67.3100
 20
8.8900
 30
0.0000
  0
VERTEX
  8
16
 10
67.3100
 20
13.9700
 30
0.0000
  0
SEQEND
  8
0
  0
POLYLINE
  8
16
 66
1
 10
0.0000
 20
0.0000
 30
0.0000
 40
0.1270
 41
0.1270
 70
0
  0
VERTEX
  8
16
 10
67.3735
 20
13.9700
 30
0.0000
 42
1.0000
  0
VERTEX
  8
16
 10
67.2465
 20
13.9700
 30
0.0000
  0
SEQEND
  8
0
  0
POLYLINE
  8
16
 66
1
 10
0.0000
 20
0.0000
 30
0.0000
 40
0.1270
 41
0.1270
 70
0
  0
VERTEX
  8
16
 10
67.2465
 20
8.8900
 30
0.0000
 42
1.0000
  0
VERTEX
  8
16
 10
67.3735
 20
8.8900
 30
0.0000
  0
SEQEND
  8
0
  0
POLYLINE
  8
16
 66
1
 10
0.0000
 20
0.0000
 30
0.0000
 40
0.2540
 41
0.2540
 70
0
  0
VERTEX
  8
16
 10
72.1550
 20
3.8100
 30
0.0000
  0
VERTEX
  8
16
 10
67.3100
 20
3.8100
 30
0.0000
  0
SEQEND
  8
0
  0
POLYLINE
  8
16
 66
1
 10
0.0000
 20
0.0000
 30
0.0000
 40
0.1270
 41
0.1270
 70
0
  0
VERTEX
  8
16
 10
67.3100
 20
3.8735
 30
0.0000
 42
1.0000
  0
VERTEX
  8
16
 10
67.3100
 20
3.7465
 30
0.0000
  0
SEQEND
  8
0
  0
POLYLINE
  8
16
 66
1
 10
0.0000
 20
0.0000
 30
0.0000
 40
0.1270
 41
0.1270
 70
0
  0
VERTEX
  8
16
 10
72.1550
 20
3.7465
 30
0.0000
 42
1.0000
  0
VERTEX
  8
16
 10
72.1550
 20
3.8735
 30
0.0000
  0
SEQEND
  8
0
  0
POLYLINE
  8
16
 66
1
 10
0.0000
 20
0.0000
 30
0.0000
 40
0.2540
 41
0.2540
 70
0
  0
VERTEX
  8
16
 10
67.3100
 20
3.8100
 30
0.0000
  0
VERTEX
  8
16
 10
67.3100
 20
8.8900
 30
0.0000
  0
SEQEND
  8
0
  0
POLYLINE
  8
16
 66
1
 10
0.0000
 20
0.0000
 30
0.0000
 40
0.1270
 41
0.1270
 70
0
  0
VERTEX
  8
16
 10
67.3735
 20
8.8900
 30
0.0000
 42
1.0000
  0
VERTEX
  8
16
 10
67.2465
 20
8.8900
 30
0.0000
  0
SEQEND
  8
0
  0
POLYLINE
  8
16
 66
1
 10
0.0000
 20
0.0000
 30
0.0000
 40
0.1270
 41
0.1270
 70
0
  0
VERTEX
  8
16
 10
67.2465
 20
3.8100
 30
0.0000
 42
1.0000
  0
VERTEX
  8
16
 10
67.3735
 20
3.8100
 30
0.0000
  0
SEQEND
  8
0
  0
POLYLINE
  8
16
 66
1
 10
0.0000
 20
0.0000
 30
0.0000
 40
0.2540
 41
0.2540
 70
0
  0
VERTEX
  8
16
 10
72.1550
 20
8.8900
 30
0.0000
  0
VERTEX
  8
16
 10
67.3100
 20
8.8900
 30
0.0000
  0
SEQEND
  8
0
  0
POLYLINE
  8
16
 66
1
 10
0.0000
 20
0.0000
 30
0.0000
 40
0.1270
 41
0.1270
 70
0
  0
VERTEX
  8
16
 10
67.3100
 20
8.9535
 30
0.0000
 42
1.0000
  0
VERTEX
  8
16
 10
67.3100
 20
8.8265
 30
0.0000
  0
SEQEND
  8
0
  0
POLYLINE
  8
16
 66
1
 10
0.0000
 20
0.0000
 30
0.0000
 40
0.1270
 41
0.1270
 70
0
  0
VERTEX
  8
16
 10
72.1550
 20
8.8265
 30
0.0000
 42
1.0000
  0
VERTEX
  8
16
 10
72.1550
 20
8.9535
 30
0.0000
  0
SEQEND
  8
0
  0
POLYLINE
  8
16
 66
1
 10
0.0000
 20
0.0000
 30
0.0000
 40
0.2540
 41
0.2540
 70
0
  0
VERTEX
  8
16
 10
62.2950
 20
3.8100
 30
0.0000
  0
VERTEX
  8
16
 10
67.3100
 20
3.8100
 30
0.0000
  0
SEQEND
  8
0
  0
POLYLINE
  8
16
 66
1
 10
0.0000
 20
0.0000
 30
0.0000
 40
0.1270
 41
0.1270
 70
0
  0
VERTEX
  8
16
 10
67.3100
 20
3.7465
 30
0.0000
 42
1.0000
  0
VERTEX
  8
16
 10
67.3100
 20
3.8735
 30
0.0000
  0
SEQEND
  8
0
  0
POLYLINE
  8
16
 66
1
 10
0.0000
 20
0.0000
 30
0.0000
 40
0.1270
 41
0.1270
 70
0
  0
VERTEX
  8
16
 10
62.2950
 20
3.8735
 30
0.0000
 42
1.0000
  0
VERTEX
  8
16
 10
62.2950
 20
3.7465
 30
0.0000
  0
SEQEND
  8
0
  0
POLYLINE
  8
16
 66
1
 10
0.0000
 20
0.0000
 30
0.0000
 40
0.2540
 41
0.2540
 70
0
  0
VERTEX
  8
16
 10
62.2950
 20
19.0500
 30
0.0000
  0
VERTEX
  8
16
 10
67.3100
 20
19.0500
 30
0.0000
  0
SEQEND
  8
0
  0
POLYLINE
  8
16
 66
1
 10
0.0000
 20
0.0000
 30
0.0000
 40
0.1270
 41
0.1270
 70
0
  0
VERTEX
  8
16
 10
67.3100
 20
18.9865
 30
0.0000
 42
1.0000
  0
VERTEX
  8
16
 10
67.3100
 20
19.1135
 30
0.0000
  0
SEQEND
  8
0
  0
POLYLINE
  8
16
 66
1
 10
0.0000
 20
0.0000
 30
0.0000
 40
0.1270
 41
0.1270
 70
0
  0
VERTEX
  8
16
 10
62.2950
 20
19.1135
 30
0.0000
 42
1.0000
  0
VERTEX
  8
16
 10
62.2950
 20
18.9865
 30
0.0000
  0
SEQEND
  8
0
  0
POLYLINE
  8
16
 66
1
 10
0.0000
 20
0.0000
 30
0.0000
 40
0.2540
 41
0.2540
 70
0
  0
VERTEX
  8
16
 10
67.3100
 20
19.0500
 30
0.0000
  0
VERTEX
  8
16
 10
67.3100
 20
22.8600
 30
0.0000
  0
SEQEND
  8
0
  0
POLYLINE
  8
16
 66
1
 10
0.0000
 20
0.0000
 30
0.0000
 40
0.1270
 41
0.1270
 70
0
  0
VERTEX
  8
16
 10
67.3735
 20
22.8600
 30
0.0000
 42
1.0000
  0
VERTEX
  8
16
 10
67.2465
 20
22.8600
 30
0.0000
  0
SEQEND
  8
0
  0
POLYLINE
  8
16
 66
1
 10
0.0000
 20
0.0000
 30
0.0000
 40
0.1270
 41
0.1270
 70
0
  0
VERTEX
  8
16
 10
67.2465
 20
19.0500
 30
0.0000
 42
1.0000
  0
VERTEX
  8
16
 10
67.3735
 20
19.0500
 30
0.0000
  0
SEQEND
  8
0
  0
POLYLINE
  8
16
 66
1
 10
0.0000
 20
0.0000
 30
0.0000
 40
0.2540
 41
0.2540
 70
0
  0
VERTEX
  8
16
 10
67.3100
 20
22.8600
 30
0.0000
  0
VERTEX
  8
16
 10
66.0400
 20
24.1300
 30
0.0000
  0
SEQEND
  8
0
  0
POLYLINE
  8
16
 66
1
 10
0.0000
 20
0.0000
 30
0.0000
 40
0.1270
 41
0.1270
 70
0
  0
VERTEX
  8
16
 10
66.0849
 20
24.1749
 30
0.0000
 42
1.0000
  0
VERTEX
  8
16
 10
65.9951
 20
24.0851
 30
0.0000
  0
SEQEND
  8
0
  0
POLYLINE
  8
16
 66
1
 10
0.0000
 20
0.0000
 30
0.0000
 40
0.1270
 41
0.1270
 70
0
  0
VERTEX
  8
16
 10
67.2651
 20
22.8151
 30
0.0000
 42
1.0000
  0
VERTEX
  8
16
 10
67.3549
 20
22.9049
 30
0.0000
  0
SEQEND
  8
0
  0
POLYLINE
  8
16
 66
1
 10
0.0000
 20
0.0000
 30
0.0000
 40
0.2540
 41
0.2540
 70
0
  0
VERTEX
  8
16
 10
66.0400
 20
24.1300
 30
0.0000
  0
VERTEX
  8
16
 10
61.9950
 20
24.1300
 30
0.0000
  0
SEQEND
  8
0
  0
POLYLINE
  8
16
 66
1
 10
0.0000
 20
0.0000
 30
0.0000
 40
0.1270
 41
0.1270
 70
0
  0
VERTEX
  8
16
 10
61.9950
 20
24.1935
 30
0.0000
 42
1.0000
  0
VERTEX
  8
16
 10
61.9950
 20
24.0665
 30
0.0000
  0
SEQEND
  8
0
  0
POLYLINE
  8
16
 66
1
 10
0.0000
 20
0.0000
 30
0.0000
 40
0.1270
 41
0.1270
 70
0
  0
VERTEX
  8
16
 10
66.0400
 20
24.0665
 30
0.0000
 42
1.0000
  0
VERTEX
  8
16
 10
66.0400
 20
24.1935
 30
0.0000
  0
SEQEND
  8
0
  0
POLYLINE
  8
16
 66
1
 10
0.0000
 20
0.0000
 30
0.0000
 40
0.2540
 41
0.2540
 70
0
  0
VERTEX
  8
16
 10
59.6900
 20
24.1300
 30
0.0000
  0
VERTEX
  8
16
 10
61.9950
 20
24.1300
 30
0.0000
  0
SEQEND
  8
0
  0
POLYLINE
  8
16
 66
1
 10
0.0000
 20
0.0000
 30
0.0000
 40
0.1270
 41
0.1270
 70
0
  0
VERTEX
  8
16
 10
61.9950
 20
24.0665
 30
0.0000
 42
1.0000
  0
VERTEX
  8
16
 10
61.9950
 20
24.1935
 30
0.0000
  0
SEQEND
  8
0
  0
POLYLINE
  8
16
 66
1
 10
0.0000
 20
0.0000
 30
0.0000
 40
0.1270
 41
0.1270
 70
0
  0
VERTEX
  8
16
 10
59.6900
 20
24.1935
 30
0.0000
 42
1.0000
  0
VERTEX
  8
16
 10
59.6900
 20
24.0665
 30
0.0000
  0
SEQEND
  8
0
  0
POLYLINE
  8
16
 66
1
 10
0.0000
 20
0.0000
 30
0.0000
 40
0.2540
 41
0.2540
 70
0
  0
VERTEX
  8
16
 10
61.9950
 20
24.1300
 30
0.0000
  0
VERTEX
  8
16
 10
52.1350
 20
24.1300
 30
0.0000
  0
SEQEND
  8
0
  0
POLYLINE
  8
16
 66
1
 10
0.0000
 20
0.0000
 30
0.0000
 40
0.1270
 41
0.1270
 70
0
  0
VERTEX
  8
16
 10
52.1350
 20
24.1935
 30
0.0000
 42
1.0000
  0
VERTEX
  8
16
 10
52.1350
 20
24.0665
 30
0.0000
  0
SEQEND
  8
0
  0
POLYLINE
  8
16
 66
1
 10
0.0000
 20
0.0000
 30
0.0000
 40
0.1270
 41
0.1270
 70
0
  0
VERTEX
  8
16
 10
61.9950
 20
24.0665
 30
0.0000
 42
1.0000
  0
VERTEX
  8
16
 10
61.9950
 20
24.1935
 30
0.0000
  0
SEQEND
  8
0
  0
POLYLINE
  8
16
 66
1
 10
0.0000
 20
0.0000
 30
0.0000
 40
0.2540
 41
0.2540
 70
0
  0
VERTEX
  8
16
 10
17.7800
 20
1.2700
 30
0.0000
  0
VERTEX
  8
16
 10
60.9600
 20
1.2700
 30
0.0000
  0
SEQEND
  8
0
  0
POLYLINE
  8
16
 66
1
 10
0.0000
 20
0.0000
 30
0.0000
 40
0.1270
 41
0.1270
 70
0
  0
VERTEX
  8
16
 10
60.9600
 20
1.2065
 30
0.0000
 42
1.0000
  0
VERTEX
  8
16
 10
60.9600
 20
1.3335
 30
0.0000
  0
SEQEND
  8
0
  0
POLYLINE
  8
16
 66
1
 10
0.0000
 20
0.0000
 30
0.0000
 40
0.1270
 41
0.1270
 70
0
  0
VERTEX
  8
16
 10
17.7800
 20
1.3335
 30
0.0000
 42
1.0000
  0
VERTEX
  8
16
 10
17.7800
 20
1.2065
 30
0.0000
  0
SEQEND
  8
0
  0
POLYLINE
  8
16
 66
1
 10
0.0000
 20
0.0000
 30
0.0000
 40
0.2540
 41
0.2540
 70
0
  0
VERTEX
  8
16
 10
60.9600
 20
1.2700
 30
0.0000
  0
VERTEX
  8
16
 10
62.2300
 20
2.5400
 30
0.0000
  0
SEQEND
  8
0
  0
POLYLINE
  8
16
 66
1
 10
0.0000
 20
0.0000
 30
0.0000
 40
0.1270
 41
0.1270
 70
0
  0
VERTEX
  8
16
 10
62.2749
 20
2.4951
 30
0.0000
 42
1.0000
  0
VERTEX
  8
16
 10
62.1851
 20
2.5849
 30
0.0000
  0
SEQEND
  8
0
  0
POLYLINE
  8
16
 66
1
 10
0.0000
 20
0.0000
 30
0.0000
 40
0.1270
 41
0.1270
 70
0
  0
VERTEX
  8
16
 10
60.9151
 20
1.3149
 30
0.0000
 42
1.0000
  0
VERTEX
  8
16
 10
61.0049
 20
1.2251
 30
0.0000
  0
SEQEND
  8
0
  0
POLYLINE
  8
16
 66
1
 10
0.0000
 20
0.0000
 30
0.0000
 40
0.2540
 41
0.2540
 70
0
  0
VERTEX
  8
16
 10
62.2300
 20
2.5400
 30
0.0000
  0
VERTEX
  8
16
 10
62.2300
 20
3.7450
 30
0.0000
  0
SEQEND
  8
0
  0
POLYLINE
  8
16
 66
1
 10
0.0000
 20
0.0000
 30
0.0000
 40
0.1270
 41
0.1270
 70
0
  0
VERTEX
  8
16
 10
62.2935
 20
3.7450
 30
0.0000
 42
1.0000
  0
VERTEX
  8
16
 10
62.1665
 20
3.7450
 30
0.0000
  0
SEQEND
  8
0
  0
POLYLINE
  8
16
 66
1
 10
0.0000
 20
0.0000
 30
0.0000
 40
0.1270
 41
0.1270
 70
0
  0
VERTEX
  8
16
 10
62.1665
 20
2.5400
 30
0.0000
 42
1.0000
  0
VERTEX
  8
16
 10
62.2935
 20
2.5400
 30
0.0000
  0
SEQEND
  8
0
  0
POLYLINE
  8
16
 66
1
 10
0.0000
 20
0.0000
 30
0.0000
 40
0.2540
 41
0.2540
 70
0
  0
VERTEX
  8
16
 10
62.2300
 20
3.7450
 30
0.0000
  0
VERTEX
  8
16
 10
62.2950
 20
3.8100
 30
0.0000
  0
SEQEND
  8
0
  0
POLYLINE
  8
16
 66
1
 10
0.0000
 20
0.0000
 30
0.0000
 40
0.1270
 41
0.1270
 70
0
  0
VERTEX
  8
16
 10
62.3399
 20
3.7651
 30
0.0000
 42
1.0000
  0
VERTEX
  8
16
 10
62.2501
 20
3.8549
 30
0.0000
  0
SEQEND
  8
0
  0
POLYLINE
  8
16
 66
1
 10
0.0000
 20
0.0000
 30
0.0000
 40
0.1270
 41
0.1270
 70
0
  0
VERTEX
  8
16
 10
62.1851
 20
3.7899
 30
0.0000
 42
1.0000
  0
VERTEX
  8
16
 10
62.2749
 20
3.7001
 30
0.0000
  0
SEQEND
  8
0
  0
POLYLINE
  8
16
 66
1
 10
0.0000
 20
0.0000
 30
0.0000
 40
0.2540
 41
0.2540
 70
0
  0
VERTEX
  8
16
 10
46.6900
 20
22.8600
 30
0.0000
  0
VERTEX
  8
16
 10
41.9100
 20
22.8600
 30
0.0000
  0
SEQEND
  8
0
  0
POLYLINE
  8
16
 66
1
 10
0.0000
 20
0.0000
 30
0.0000
 40
0.1270
 41
0.1270
 70
0
  0
VERTEX
  8
16
 10
41.9100
 20
22.9235
 30
0.0000
 42
1.0000
  0
VERTEX
  8
16
 10
41.9100
 20
22.7965
 30
0.0000
  0
SEQEND
  8
0
  0
POLYLINE
  8
16
 66
1
 10
0.0000
 20
0.0000
 30
0.0000
 40
0.1270
 41
0.1270
 70
0
  0
VERTEX
  8
16
 10
46.6900
 20
22.7965
 30
0.0000
 42
1.0000
  0
VERTEX
  8
16
 10
46.6900
 20
22.9235
 30
0.0000
  0
SEQEND
  8
0
  0
POLYLINE
  8
16
 66
1
 10
0.0000
 20
0.0000
 30
0.0000
 40
0.2540
 41
0.2540
 70
0
  0
VERTEX
  8
16
 10
41.9100
 20
22.8600
 30
0.0000
  0
VERTEX
  8
16
 10
38.1000
 20
26.6700
 30
0.0000
  0
SEQEND
  8
0
  0
POLYLINE
  8
16
 66
1
 10
0.0000
 20
0.0000
 30
0.0000
 40
0.1270
 41
0.1270
 70
0
  0
VERTEX
  8
16
 10
38.1449
 20
26.7149
 30
0.0000
 42
1.0000
  0
VERTEX
  8
16
 10
38.0551
 20
26.6251
 30
0.0000
  0
SEQEND
  8
0
  0
POLYLINE
  8
16
 66
1
 10
0.0000
 20
0.0000
 30
0.0000
 40
0.1270
 41
0.1270
 70
0
  0
VERTEX
  8
16
 10
41.8651
 20
22.8151
 30
0.0000
 42
1.0000
  0
VERTEX
  8
16
 10
41.9549
 20
22.9049
 30
0.0000
  0
SEQEND
  8
0
  0
POLYLINE
  8
16
 66
1
 10
0.0000
 20
0.0000
 30
0.0000
 40
0.2540
 41
0.2540
 70
0
  0
VERTEX
  8
16
 10
38.1000
 20
26.6700
 30
0.0000
  0
VERTEX
  8
16
 10
35.5600
 20
26.6700
 30
0.0000
  0
SEQEND
  8
0
  0
POLYLINE
  8
16
 66
1
 10
0.0000
 20
0.0000
 30
0.0000
 40
0.1270
 41
0.1270
 70
0
  0
VERTEX
  8
16
 10
35.5600
 20
26.7335
 30
0.0000
 42
1.0000
  0
VERTEX
  8
16
 10
35.5600
 20
26.6065
 30
0.0000
  0
SEQEND
  8
0
  0
POLYLINE
  8
16
 66
1
 10
0.0000
 20
0.0000
 30
0.0000
 40
0.1270
 41
0.1270
 70
0
  0
VERTEX
  8
16
 10
38.1000
 20
26.6065
 30
0.0000
 42
1.0000
  0
VERTEX
  8
16
 10
38.1000
 20
26.7335
 30
0.0000
  0
SEQEND
  8
0
  0
POLYLINE
  8
16
 66
1
 10
0.0000
 20
0.0000
 30
0.0000
 40
0.2540
 41
0.2540
 70
0
  0
VERTEX
  8
16
 10
35.5600
 20
26.6700
 30
0.0000
  0
VERTEX
  8
16
 10
34.2900
 20
27.9400
 30
0.0000
  0
SEQEND
  8
0
  0
POLYLINE
  8
16
 66
1
 10
0.0000
 20
0.0000
 30
0.0000
 40
0.1270
 41
0.1270
 70
0
  0
VERTEX
  8
16
 10
34.3349
 20
27.9849
 30
0.0000
 42
1.0000
  0
VERTEX
  8
16
 10
34.2451
 20
27.8951
 30
0.0000
  0
SEQEND
  8
0
  0
POLYLINE
  8
16
 66
1
 10
0.0000
 20
0.0000
 30
0.0000
 40
0.1270
 41
0.1270
 70
0
  0
VERTEX
  8
16
 10
35.5151
 20
26.6251
 30
0.0000
 42
1.0000
  0
VERTEX
  8
16
 10
35.6049
 20
26.7149
 30
0.0000
  0
SEQEND
  8
0
  0
POLYLINE
  8
16
 66
1
 10
0.0000
 20
0.0000
 30
0.0000
 40
0.2540
 41
0.2540
 70
0
  0
VERTEX
  8
16
 10
34.2900
 20
27.9400
 30
0.0000
  0
VERTEX
  8
16
 10
26.6700
 20
27.9400
 30
0.0000
  0
SEQEND
  8
0
  0
POLYLINE
  8
16
 66
1
 10
0.0000
 20
0.0000
 30
0.0000
 40
0.1270
 41
0.1270
 70
0
  0
VERTEX
  8
16
 10
26.6700
 20
28.0035
 30
0.0000
 42
1.0000
  0
VERTEX
  8
16
 10
26.6700
 20
27.8765
 30
0.0000
  0
SEQEND
  8
0
  0
POLYLINE
  8
16
 66
1
 10
0.0000
 20
0.0000
 30
0.0000
 40
0.1270
 41
0.1270
 70
0
  0
VERTEX
  8
16
 10
34.2900
 20
27.8765
 30
0.0000
 42
1.0000
  0
VERTEX
  8
16
 10
34.2900
 20
28.0035
 30
0.0000
  0
SEQEND
  8
0
  0
POLYLINE
  8
16
 66
1
 10
0.0000
 20
0.0000
 30
0.0000
 40
0.2540
 41
0.2540
 70
0
  0
VERTEX
  8
16
 10
26.6700
 20
27.9400
 30
0.0000
  0
VERTEX
  8
16
 10
25.4000
 20
26.6700
 30
0.0000
  0
SEQEND
  8
0
  0
POLYLINE
  8
16
 66
1
 10
0.0000
 20
0.0000
 30
0.0000
 40
0.1270
 41
0.1270
 70
0
  0
VERTEX
  8
16
 10
25.3551
 20
26.7149
 30
0.0000
 42
1.0000
  0
VERTEX
  8
16
 10
25.4449
 20
26.6251
 30
0.0000
  0
SEQEND
  8
0
  0
POLYLINE
  8
16
 66
1
 10
0.0000
 20
0.0000
 30
0.0000
 40
0.1270
 41
0.1270
 70
0
  0
VERTEX
  8
16
 10
26.7149
 20
27.8951
 30
0.0000
 42
1.0000
  0
VERTEX
  8
16
 10
26.6251
 20
27.9849
 30
0.0000
  0
SEQEND
  8
0
  0
POLYLINE
  8
16
 66
1
 10
0.0000
 20
0.0000
 30
0.0000
 40
0.2540
 41
0.2540
 70
0
  0
VERTEX
  8
16
 10
25.4000
 20
26.6700
 30
0.0000
  0
VERTEX
  8
16
 10
25.4000
 20
25.4000
 30
0.0000
  0
SEQEND
  8
0
  0
POLYLINE
  8
16
 66
1
 10
0.0000
 20
0.0000
 30
0.0000
 40
0.1270
 41
0.1270
 70
0
  0
VERTEX
  8
16
 10
25.3365
 20
25.4000
 30
0.0000
 42
1.0000
  0
VERTEX
  8
16
 10
25.4635
 20
25.4000
 30
0.0000
  0
SEQEND
  8
0
  0
POLYLINE
  8
16
 66
1
 10
0.0000
 20
0.0000
 30
0.0000
 40
0.1270
 41
0.1270
 70
0
  0
VERTEX
  8
16
 10
25.4635
 20
26.6700
 30
0.0000
 42
1.0000
  0
VERTEX
  8
16
 10
25.3365
 20
26.6700
 30
0.0000
  0
SEQEND
  8
0
  0
ENDSEC
  0
EOF
